<svg id="svg" xmlns="http://www.w3.org/2000/svg" xmlns:xlink="http://www.w3.org/1999/xlink" width="400" height="391.5393654524089" viewBox="0, 0, 400,391.5393654524089" version="1.1"><g id="svgg"><path id="path0" d="M217.151 31.367 C 200.858 32.665,185.022 41.111,174.641 54.041 L 173.245 55.780 170.522 55.122 C 143.629 48.631,113.997 67.239,110.267 92.960 C 109.998 94.815,109.959 94.858,106.204 97.333 C 72.522 119.542,81.194 171.921,120.274 182.320 C 127.669 184.287,158.502 185.177,159.380 183.448 C 159.841 182.541,160.813 170.085,160.452 169.723 C 160.297 169.568,152.472 169.339,143.063 169.213 C 122.266 168.936,119.600 168.318,111.944 162.003 C 92.517 145.979,97.339 116.568,121.116 106.052 C 123.879 104.830,123.729 105.136,124.411 99.308 C 125.393 90.921,127.840 85.452,133.091 79.913 C 144.608 67.765,159.341 65.326,175.455 72.900 L 179.118 74.622 179.765 73.777 C 180.120 73.313,181.557 70.955,182.958 68.538 C 192.879 51.415,212.176 42.921,231.899 46.995 C 254.107 51.583,269.108 72.596,266.228 95.080 C 265.236 102.817,264.852 102.121,271.107 103.907 C 282.881 107.269,289.267 112.323,294.016 122.037 C 301.813 137.987,295.327 157.409,279.459 165.623 C 273.064 168.933,272.748 168.983,256.302 169.226 C 240.304 169.462,240.766 169.384,241.132 171.792 C 241.231 172.439,241.510 175.260,241.754 178.061 C 242.340 184.796,240.832 184.134,255.582 184.131 C 272.749 184.128,278.013 183.216,286.400 178.794 C 321.110 160.493,320.331 110.121,285.076 93.205 L 281.797 91.631 281.523 87.051 C 279.509 53.362,250.968 28.673,217.151 31.367 M190.653 144.243 C 188.273 145.575,179.064 147.390,173.647 147.595 C 168.362 147.795,168.049 147.852,167.880 148.634 C 167.782 149.089,167.166 157.835,166.511 168.071 C 165.856 178.306,164.889 193.203,164.364 201.175 C 163.289 217.481,163.285 217.433,166.072 219.290 L 167.403 220.176 200.744 220.176 C 237.946 220.175,235.923 220.324,237.572 217.468 C 238.448 215.952,238.414 215.009,236.416 185.700 C 235.880 177.835,235.127 166.426,234.742 160.345 C 233.948 147.784,234.205 148.656,231.467 149.246 C 227.562 150.087,219.150 150.472,213.916 150.050 C 206.528 149.453,200.455 147.847,192.744 144.452 C 191.749 144.014,191.166 143.956,190.653 144.243 M202.086 159.173 C 202.316 159.450,202.558 160.812,202.624 162.200 L 202.742 164.722 204.464 165.014 C 210.094 165.971,212.721 168.901,210.204 171.418 C 209.092 172.530,207.821 172.631,205.766 171.770 C 201.951 170.172,197.536 170.682,196.649 172.823 C 195.603 175.347,197.233 176.736,202.351 177.680 C 208.240 178.767,210.810 180.264,212.080 183.350 C 214.601 189.471,211.382 195.375,204.707 196.873 L 202.742 197.314 202.547 200.374 C 202.202 205.763,199.021 206.187,199.021 200.844 C 199.021 197.566,198.835 197.290,196.377 196.915 C 190.696 196.048,187.261 192.332,189.796 189.796 C 191.062 188.530,192.645 188.560,195.214 189.900 C 198.470 191.599,203.325 191.503,204.928 189.710 C 207.384 186.964,205.745 184.977,200.185 183.959 C 195.408 183.085,193.043 182.051,191.381 180.110 C 187.069 175.071,190.082 166.551,196.676 165.138 C 198.733 164.698,199.021 164.292,199.021 161.833 C 199.021 158.970,200.705 157.509,202.086 159.173 M129.058 239.537 C 125.559 241.061,125.459 251.897,128.927 253.690 C 130.464 254.485,138.295 254.484,139.834 253.688 C 143.242 251.925,143.122 241.235,139.675 239.599 C 138.004 238.806,130.833 238.765,129.058 239.537 M205.199 247.892 C 202.904 249.316,202.938 248.830,202.942 280.419 C 202.945 315.424,203.102 317.325,206.528 324.024 C 211.509 333.762,218.585 337.298,233.116 337.310 C 243.347 337.318,244.074 336.908,244.074 331.125 C 244.074 325.792,242.518 324.835,233.795 324.802 C 219.177 324.746,217.304 321.038,217.262 292.067 L 217.238 275.220 229.187 275.024 C 237.524 274.888,241.387 274.685,241.967 274.352 C 244.514 272.891,244.912 266.279,242.591 263.957 L 241.318 262.684 229.278 262.488 L 217.238 262.292 217.042 255.892 L 216.846 249.493 215.567 248.351 C 213.977 246.931,207.230 246.633,205.199 247.892 M360.526 251.224 C 360.615 251.494,361.158 251.770,361.734 251.838 C 362.752 251.958,362.782 252.036,362.788 254.580 C 362.794 257.461,363.160 258.418,364.113 258.052 C 364.611 257.861,364.740 257.207,364.740 254.887 C 364.740 252.009,364.757 251.960,365.788 251.838 C 368.512 251.515,367.078 250.735,363.761 250.735 C 361.220 250.735,360.406 250.858,360.526 251.224 M368.266 254.456 C 368.266 257.917,368.321 258.178,369.050 258.178 C 369.717 258.178,369.833 257.917,369.833 256.415 C 369.833 255.446,369.986 254.652,370.172 254.652 C 370.358 254.652,370.814 255.446,371.184 256.415 C 371.634 257.593,372.089 258.178,372.555 258.178 C 373.021 258.178,373.477 257.593,373.926 256.415 C 374.788 254.159,375.318 254.170,375.318 256.444 C 375.318 257.939,375.432 258.214,376.004 258.105 C 376.588 257.993,376.706 257.437,376.802 254.354 L 376.915 250.735 375.764 250.735 C 374.737 250.735,374.537 250.947,373.901 252.717 C 372.810 255.751,372.419 255.810,371.403 253.092 C 370.606 250.960,370.414 250.735,369.394 250.735 L 368.266 250.735 368.266 254.456 M69.592 261.529 C 39.430 267.522,28.129 304.217,49.736 326.002 C 58.266 334.602,64.775 336.982,80.412 337.221 L 90.501 337.375 91.676 336.200 C 92.796 335.080,92.850 334.874,92.850 331.691 C 92.850 325.402,92.732 325.332,81.685 325.065 C 68.379 324.742,62.404 321.923,56.649 313.253 C 40.435 288.827,73.185 261.198,93.853 281.866 C 100.514 288.527,101.077 291.112,101.077 315.024 C 101.077 338.488,100.710 337.316,108.058 337.316 C 112.799 337.316,114.088 336.730,114.773 334.263 C 115.321 332.292,115.308 300.026,114.757 295.089 C 112.284 272.906,91.195 257.236,69.592 261.529 M129.985 262.938 C 127.184 263.963,127.326 261.987,127.328 299.948 C 127.329 340.909,126.682 337.492,134.447 337.506 C 138.556 337.513,139.875 336.989,140.934 334.928 C 141.749 333.342,141.637 266.374,140.816 264.788 C 139.740 262.707,133.521 261.645,129.985 262.938 M177.144 262.909 C 166.003 264.355,157.510 272.534,155.119 284.123 C 154.429 287.464,154.368 289.646,154.364 311.205 L 154.358 334.652 155.690 335.984 L 157.023 337.316 161.284 337.316 C 168.910 337.316,168.462 338.905,168.462 311.869 C 168.462 287.903,168.536 287.044,170.956 282.664 C 173.876 277.381,177.917 275.442,186.680 275.120 L 192.556 274.905 193.830 273.633 C 196.312 271.153,195.475 264.270,192.543 263.045 C 191.052 262.422,181.546 262.338,177.144 262.909 M275.086 262.882 C 264.291 264.403,256.644 271.359,253.341 282.664 C 252.579 285.273,252.534 286.602,252.404 310.013 L 252.268 334.619 253.617 335.968 L 254.966 337.316 259.262 337.316 C 266.803 337.316,266.401 338.780,266.403 311.320 C 266.406 288.027,266.454 287.408,268.613 283.147 C 273.975 272.566,291.347 272.380,296.924 282.845 C 299.206 287.127,299.300 288.271,299.308 311.962 C 299.316 338.808,298.906 337.316,306.277 337.316 C 310.516 337.316,312.212 336.842,312.881 335.470 C 313.069 335.085,313.313 324.633,313.423 312.243 C 313.651 286.721,313.682 286.433,316.712 281.930 C 322.903 272.731,338.340 272.839,343.862 282.119 C 346.464 286.492,346.464 286.499,346.701 311.982 L 346.915 335.031 348.194 336.174 C 351.078 338.749,359.465 337.590,360.237 334.509 C 360.868 331.987,360.200 284.643,359.500 282.272 C 355.397 268.391,346.784 262.665,330.069 262.706 C 319.121 262.733,314.151 264.231,308.600 269.179 L 306.555 271.001 304.526 269.183 C 298.409 263.705,286.831 261.227,275.086 262.882 " stroke="none" fill="#2685f4" fill-rule="evenodd"></path><path id="path1" d="M0.000 195.886 L 0.000 391.773 200.000 391.773 L 400.000 391.773 400.000 195.886 L 400.000 0.000 200.000 0.000 L 0.000 0.000 0.000 195.886 M232.772 32.140 C 259.649 36.490,279.861 59.256,281.523 87.051 L 281.797 91.631 285.076 93.205 C 320.331 110.121,321.110 160.493,286.400 178.794 C 278.013 183.216,272.749 184.128,255.582 184.131 C 240.832 184.134,242.340 184.796,241.754 178.061 C 241.510 175.260,241.231 172.439,241.132 171.792 C 240.766 169.384,240.304 169.462,256.302 169.226 C 272.748 168.983,273.064 168.933,279.459 165.623 C 295.327 157.409,301.813 137.987,294.016 122.037 C 289.267 112.323,282.881 107.269,271.107 103.907 C 264.852 102.121,265.236 102.817,266.228 95.080 C 269.108 72.596,254.107 51.583,231.899 46.995 C 212.176 42.921,192.879 51.415,182.958 68.538 C 181.557 70.955,180.120 73.313,179.765 73.777 L 179.118 74.622 175.455 72.900 C 159.341 65.326,144.608 67.765,133.091 79.913 C 127.840 85.452,125.393 90.921,124.411 99.308 C 123.729 105.136,123.879 104.830,121.116 106.052 C 97.339 116.568,92.517 145.979,111.944 162.003 C 119.600 168.318,122.266 168.936,143.063 169.213 C 152.472 169.339,160.297 169.568,160.452 169.723 C 160.813 170.085,159.841 182.541,159.380 183.448 C 158.502 185.177,127.669 184.287,120.274 182.320 C 81.194 171.921,72.522 119.542,106.204 97.333 C 109.959 94.858,109.998 94.815,110.267 92.960 C 113.997 67.239,143.629 48.631,170.522 55.122 L 173.245 55.780 174.641 54.041 C 188.636 36.609,210.196 28.487,232.772 32.140 M196.866 146.210 C 205.897 149.997,221.589 151.374,231.467 149.246 C 234.205 148.656,233.948 147.784,234.742 160.345 C 235.127 166.426,235.880 177.835,236.416 185.700 C 238.414 215.009,238.448 215.952,237.572 217.468 C 235.923 220.324,237.946 220.175,200.744 220.176 L 167.403 220.176 166.072 219.290 C 163.285 217.433,163.289 217.481,164.364 201.175 C 164.889 193.203,165.856 178.306,166.511 168.071 C 167.166 157.835,167.782 149.089,167.880 148.634 C 168.049 147.852,168.362 147.795,173.647 147.595 C 179.064 147.390,188.273 145.575,190.653 144.243 C 191.166 143.956,191.749 144.014,192.744 144.452 C 193.503 144.786,195.357 145.577,196.866 146.210 M199.491 159.138 C 199.232 159.397,199.021 160.609,199.021 161.833 C 199.021 164.292,198.733 164.698,196.676 165.138 C 190.082 166.551,187.069 175.071,191.381 180.110 C 193.043 182.051,195.408 183.085,200.185 183.959 C 205.745 184.977,207.384 186.964,204.928 189.710 C 203.325 191.503,198.470 191.599,195.214 189.900 C 192.645 188.560,191.062 188.530,189.796 189.796 C 187.261 192.332,190.696 196.048,196.377 196.915 C 198.835 197.290,199.021 197.566,199.021 200.844 C 199.021 206.187,202.202 205.763,202.547 200.374 L 202.742 197.314 204.707 196.873 C 211.382 195.375,214.601 189.471,212.080 183.350 C 210.810 180.264,208.240 178.767,202.351 177.680 C 197.233 176.736,195.603 175.347,196.649 172.823 C 197.536 170.682,201.951 170.172,205.766 171.770 C 207.821 172.631,209.092 172.530,210.204 171.418 C 212.721 168.901,210.094 165.971,204.464 165.014 L 202.742 164.722 202.624 162.200 C 202.469 158.916,201.075 157.554,199.491 159.138 M139.675 239.599 C 143.122 241.235,143.242 251.925,139.834 253.688 C 138.295 254.484,130.464 254.485,128.927 253.690 C 125.459 251.897,125.559 241.061,129.058 239.537 C 130.833 238.765,138.004 238.806,139.675 239.599 M215.567 248.351 L 216.846 249.493 217.042 255.892 L 217.238 262.292 229.278 262.488 L 241.318 262.684 242.591 263.957 C 244.912 266.279,244.514 272.891,241.967 274.352 C 241.387 274.685,237.524 274.888,229.187 275.024 L 217.238 275.220 217.262 292.067 C 217.304 321.038,219.177 324.746,233.795 324.802 C 242.518 324.835,244.074 325.792,244.074 331.125 C 244.074 336.908,243.347 337.318,233.116 337.310 C 214.455 337.294,205.262 329.736,203.345 312.831 C 202.645 306.660,202.810 251.854,203.534 250.045 C 204.789 246.908,212.703 245.794,215.567 248.351 M366.996 251.224 C 366.907 251.494,366.364 251.770,365.788 251.838 C 364.757 251.960,364.740 252.009,364.740 254.887 C 364.740 257.207,364.611 257.861,364.113 258.052 C 363.160 258.418,362.794 257.461,362.788 254.580 C 362.782 252.036,362.752 251.958,361.734 251.838 C 359.010 251.515,360.444 250.735,363.761 250.735 C 366.302 250.735,367.116 250.858,366.996 251.224 M371.403 253.092 C 372.419 255.810,372.810 255.751,373.901 252.717 C 374.537 250.947,374.737 250.735,375.764 250.735 L 376.915 250.735 376.802 254.354 C 376.706 257.437,376.588 257.993,376.004 258.105 C 375.432 258.214,375.318 257.939,375.318 256.444 C 375.318 254.170,374.788 254.159,373.926 256.415 C 373.477 257.593,373.021 258.178,372.555 258.178 C 372.089 258.178,371.634 257.593,371.184 256.415 C 370.814 255.446,370.358 254.652,370.172 254.652 C 369.986 254.652,369.833 255.446,369.833 256.415 C 369.833 257.917,369.717 258.178,369.050 258.178 C 368.321 258.178,368.266 257.917,368.266 254.456 L 368.266 250.735 369.394 250.735 C 370.414 250.735,370.606 250.960,371.403 253.092 M82.468 261.322 C 99.373 263.701,112.826 277.770,114.757 295.089 C 115.308 300.026,115.321 332.292,114.773 334.263 C 114.088 336.730,112.799 337.316,108.058 337.316 C 100.710 337.316,101.077 338.488,101.077 315.024 C 101.077 291.112,100.514 288.527,93.853 281.866 C 73.185 261.198,40.435 288.827,56.649 313.253 C 62.404 321.923,68.379 324.742,81.685 325.065 C 92.732 325.332,92.850 325.402,92.850 331.691 C 92.850 334.874,92.796 335.080,91.676 336.200 L 90.501 337.375 80.412 337.221 C 64.775 336.982,58.266 334.602,49.736 326.002 C 23.847 299.899,45.969 256.186,82.468 261.322 M138.870 263.045 C 141.562 264.169,141.431 262.266,141.424 299.981 C 141.420 326.190,141.307 334.202,140.934 334.928 C 139.092 338.513,130.219 338.725,128.090 335.235 C 126.869 333.231,126.901 266.598,128.125 264.619 C 129.410 262.538,135.517 261.644,138.870 263.045 M192.543 263.045 C 195.475 264.270,196.312 271.153,193.830 273.633 L 192.556 274.905 186.680 275.120 C 177.917 275.442,173.876 277.381,170.956 282.664 C 168.536 287.044,168.462 287.903,168.462 311.869 C 168.462 338.905,168.910 337.316,161.284 337.316 L 157.023 337.316 155.690 335.984 L 154.358 334.652 154.364 311.205 C 154.368 289.646,154.429 287.464,155.119 284.123 C 157.510 272.534,166.003 264.355,177.144 262.909 C 181.546 262.338,191.052 262.422,192.543 263.045 M294.025 263.483 C 297.216 264.346,302.063 266.977,304.526 269.183 L 306.555 271.001 308.600 269.179 C 314.151 264.231,319.121 262.733,330.069 262.706 C 346.784 262.665,355.397 268.391,359.500 282.272 C 360.200 284.643,360.868 331.987,360.237 334.509 C 359.465 337.590,351.078 338.749,348.194 336.174 L 346.915 335.031 346.701 311.982 C 346.464 286.499,346.464 286.492,343.862 282.119 C 338.340 272.839,322.903 272.731,316.712 281.930 C 313.682 286.433,313.651 286.721,313.423 312.243 C 313.313 324.633,313.069 335.085,312.881 335.470 C 312.212 336.842,310.516 337.316,306.277 337.316 C 298.906 337.316,299.316 338.808,299.308 311.962 C 299.300 288.271,299.206 287.127,296.924 282.845 C 291.347 272.380,273.975 272.566,268.613 283.147 C 266.454 287.408,266.406 288.027,266.403 311.320 C 266.401 338.780,266.803 337.316,259.262 337.316 L 254.966 337.316 253.617 335.968 L 252.268 334.619 252.404 310.013 C 252.534 286.602,252.579 285.273,253.341 282.664 C 256.644 271.359,264.291 264.403,275.086 262.882 C 278.946 262.338,291.236 262.728,294.025 263.483 " stroke="none" fill="#fbfbfc" fill-rule="evenodd"></path></g></svg>