<svg id="svg" xmlns="http://www.w3.org/2000/svg" xmlns:xlink="http://www.w3.org/1999/xlink" width="400" height="391.5393654524089" viewBox="0, 0, 400,391.5393654524089" version="1.1"><g id="svgg"><path id="path0" d="M218.217 30.543 C 217.894 30.760,216.898 30.941,216.004 30.944 C 213.614 30.953,205.115 32.472,204.962 32.918 C 204.891 33.129,204.586 33.301,204.285 33.301 C 203.542 33.301,198.482 34.955,198.237 35.277 C 198.129 35.419,197.118 35.840,195.989 36.211 C 194.860 36.583,193.834 37.053,193.709 37.256 C 193.583 37.459,192.567 38.086,191.451 38.648 C 190.335 39.211,189.334 39.800,189.226 39.958 C 189.119 40.115,188.448 40.542,187.737 40.906 C 187.026 41.271,186.346 41.824,186.226 42.136 C 186.106 42.448,185.825 42.703,185.601 42.703 C 184.283 42.703,174.121 52.820,174.035 54.217 C 173.976 55.193,171.137 55.098,169.179 54.054 C 166.639 52.700,149.462 52.665,148.485 54.012 C 148.376 54.163,147.140 54.515,145.739 54.794 C 144.339 55.073,142.400 55.654,141.430 56.084 C 140.460 56.515,138.874 57.136,137.904 57.465 C 136.934 57.795,135.877 58.289,135.553 58.564 C 135.230 58.838,134.349 59.374,133.595 59.753 C 132.840 60.132,132.135 60.559,132.027 60.702 C 131.920 60.845,131.126 61.381,130.264 61.892 C 128.534 62.920,128.255 63.137,125.884 65.302 C 124.983 66.124,124.050 66.974,123.809 67.189 C 122.533 68.332,118.707 72.546,118.707 72.809 C 118.707 72.976,118.393 73.456,118.009 73.873 C 117.031 74.937,115.448 77.576,115.660 77.789 C 115.757 77.886,116.551 76.863,117.425 75.515 C 122.535 67.633,133.307 59.172,141.234 56.814 C 142.096 56.557,143.330 56.116,143.976 55.833 C 149.143 53.569,162.854 53.030,169.994 54.811 C 173.667 55.727,173.418 55.777,174.738 53.859 C 182.637 42.377,200.316 32.845,216.573 31.301 C 224.536 30.545,241.132 32.674,243.814 34.796 C 244.065 34.995,244.976 35.381,245.837 35.654 C 248.085 36.367,253.981 39.720,257.303 42.175 C 264.090 47.191,273.531 58.068,274.848 62.387 C 274.996 62.873,275.338 63.536,275.608 63.859 C 275.878 64.182,276.487 65.502,276.962 66.792 C 277.437 68.083,277.970 69.317,278.148 69.535 C 278.439 69.894,280.046 75.805,280.918 79.726 C 281.110 80.588,281.386 83.595,281.533 86.408 L 281.799 91.522 285.366 93.203 C 291.204 95.954,302.431 105.037,302.446 107.022 C 302.448 107.167,302.863 107.784,303.370 108.393 C 304.570 109.835,306.127 112.488,307.354 115.181 C 307.894 116.366,308.538 117.688,308.786 118.118 C 311.539 122.903,313.162 139.182,311.501 145.348 C 310.107 150.520,308.986 154.220,308.711 154.555 C 308.535 154.771,308.022 155.881,307.573 157.022 C 307.123 158.163,306.566 159.308,306.335 159.567 C 306.105 159.827,305.532 160.680,305.064 161.463 C 302.974 164.955,301.683 166.555,297.978 170.246 C 293.930 174.280,291.763 176.009,288.834 177.541 C 287.919 178.021,287.169 178.554,287.169 178.726 C 287.169 179.230,287.848 179.089,288.485 178.452 C 288.808 178.129,289.217 177.864,289.394 177.863 C 289.571 177.862,290.645 177.157,291.781 176.296 C 292.916 175.435,294.006 174.731,294.203 174.731 C 294.399 174.731,294.936 174.202,295.397 173.555 C 295.857 172.909,296.432 172.380,296.674 172.380 C 296.916 172.380,297.775 171.631,298.583 170.715 C 299.391 169.799,300.518 168.521,301.087 167.875 C 302.810 165.920,305.574 162.027,305.579 161.550 C 305.581 161.304,305.824 161.010,306.120 160.896 C 306.415 160.783,306.979 159.795,307.372 158.700 C 307.766 157.605,308.215 156.709,308.370 156.709 C 308.525 156.709,309.042 155.431,309.519 153.869 C 309.996 152.307,310.526 150.850,310.697 150.633 C 313.111 147.556,312.949 125.929,310.476 121.188 C 310.157 120.578,309.896 119.837,309.895 119.542 C 309.892 118.959,306.422 111.584,305.999 111.263 C 305.857 111.156,305.256 110.274,304.664 109.305 C 302.171 105.223,295.642 98.505,292.314 96.597 C 291.962 96.396,291.437 95.994,291.146 95.705 C 290.855 95.415,289.980 94.912,289.201 94.587 C 288.422 94.261,287.690 93.859,287.575 93.692 C 287.460 93.525,286.359 92.986,285.128 92.493 C 282.171 91.308,282.218 91.405,281.945 85.994 C 281.706 81.271,280.690 74.425,280.173 74.050 C 280.021 73.940,279.656 72.880,279.363 71.694 C 279.070 70.509,278.151 68.082,277.319 66.300 C 276.488 64.518,275.808 62.887,275.808 62.676 C 275.808 62.465,275.644 62.292,275.443 62.292 C 275.242 62.292,274.952 61.895,274.800 61.410 C 274.426 60.224,271.777 56.029,270.754 55.003 C 270.302 54.549,269.931 53.955,269.931 53.682 C 269.931 52.970,259.506 42.703,258.783 42.703 C 258.450 42.703,258.178 42.539,258.178 42.337 C 258.178 41.880,255.418 39.916,253.085 38.715 C 252.116 38.215,251.234 37.697,251.126 37.562 C 251.019 37.427,249.961 36.912,248.776 36.418 C 247.591 35.924,246.357 35.309,246.033 35.052 C 245.710 34.795,244.212 34.263,242.703 33.869 C 241.195 33.475,239.871 33.023,239.760 32.865 C 239.004 31.779,219.505 29.677,218.217 30.543 M216.650 46.243 C 201.103 48.361,190.040 56.045,181.780 70.461 C 179.172 75.012,179.649 74.896,174.096 72.332 C 159.014 65.369,144.300 68.089,133.091 79.913 C 127.840 85.452,125.393 90.921,124.411 99.308 C 123.729 105.136,123.879 104.830,121.116 106.052 C 92.001 118.928,93.335 158.408,123.213 168.096 C 125.840 168.948,126.673 168.995,143.110 169.213 C 163.243 169.481,161.399 168.920,160.606 174.535 C 160.393 176.043,160.069 178.751,159.886 180.553 C 159.678 182.601,159.351 183.956,159.013 184.171 C 158.635 184.410,158.617 184.515,158.953 184.519 C 160.039 184.533,160.537 182.648,160.957 176.930 C 161.454 170.178,161.164 170.852,163.708 170.550 L 165.720 170.312 165.777 172.032 C 165.873 174.870,166.319 170.401,167.054 159.256 C 167.410 153.869,167.781 149.089,167.879 148.634 C 168.048 147.852,168.365 147.795,173.647 147.589 C 179.194 147.373,186.389 145.988,190.164 144.411 C 191.402 143.893,191.653 143.924,193.595 144.829 C 204.374 149.854,220.085 151.685,231.467 149.244 C 234.201 148.658,233.955 147.874,234.705 159.563 C 235.067 165.212,235.561 171.773,235.803 174.143 C 236.045 176.513,236.603 184.976,237.042 192.948 C 237.481 200.921,238.006 208.590,238.207 209.990 C 238.957 215.199,238.028 218.896,235.791 219.606 C 235.358 219.744,235.102 219.954,235.221 220.073 C 235.690 220.542,238.216 218.351,238.625 217.120 C 239.104 215.681,238.400 197.899,237.808 196.474 C 237.629 196.043,237.287 191.636,237.049 186.680 C 236.810 181.724,236.508 176.242,236.378 174.498 C 236.181 171.859,236.242 171.287,236.742 171.095 C 237.455 170.822,240.229 171.585,240.640 172.168 C 240.799 172.393,240.934 172.135,240.940 171.596 C 240.967 169.386,240.488 169.460,256.302 169.226 C 272.748 168.983,273.064 168.933,279.459 165.623 C 299.192 155.408,303.409 128.689,287.761 113.018 C 282.895 108.145,278.407 105.769,269.815 103.517 C 265.115 102.285,265.325 102.761,266.196 95.351 C 269.585 66.518,245.204 42.353,216.650 46.243 M114.006 80.312 C 113.502 81.389,113.190 82.370,113.313 82.493 C 113.436 82.616,113.744 82.088,113.997 81.319 C 114.251 80.550,114.631 79.922,114.843 79.922 C 115.054 79.922,115.118 79.745,114.985 79.530 C 114.852 79.314,114.930 79.138,115.158 79.138 C 115.386 79.138,115.573 78.962,115.573 78.746 C 115.573 77.790,114.849 78.513,114.006 80.312 M111.843 85.040 C 111.480 86.131,111.290 87.130,111.419 87.260 C 111.549 87.390,111.655 87.302,111.655 87.064 C 111.655 86.827,111.860 86.136,112.110 85.530 C 112.361 84.923,112.537 84.295,112.502 84.133 C 112.467 83.972,112.615 83.839,112.831 83.839 C 113.046 83.839,113.222 83.663,113.222 83.448 C 113.222 82.366,112.425 83.286,111.843 85.040 M110.088 90.304 C 110.088 90.627,110.264 90.891,110.480 90.891 C 110.695 90.891,110.872 90.627,110.872 90.304 C 110.872 89.980,110.695 89.716,110.480 89.716 C 110.264 89.716,110.088 89.980,110.088 90.304 M109.696 92.458 C 109.696 93.190,109.801 93.294,110.167 92.929 C 110.532 92.563,110.532 92.354,110.167 91.988 C 109.801 91.623,109.696 91.727,109.696 92.458 M108.325 95.078 C 107.679 95.423,107.062 95.833,106.954 95.987 C 106.846 96.141,106.176 96.565,105.465 96.930 C 104.753 97.294,104.073 97.848,103.954 98.160 C 103.834 98.472,103.560 98.727,103.346 98.727 C 102.810 98.727,98.276 102.542,97.551 103.603 C 97.228 104.076,96.479 104.978,95.886 105.607 C 95.294 106.236,94.809 106.852,94.809 106.977 C 94.809 107.102,94.280 107.797,93.634 108.521 C 92.987 109.245,92.458 110.017,92.458 110.237 C 92.458 110.486,92.577 110.496,92.774 110.264 C 92.947 110.060,94.340 108.393,95.869 106.560 C 99.892 101.738,102.638 99.286,106.810 96.790 C 109.549 95.152,110.774 93.767,108.325 95.078 M91.507 111.487 C 90.839 112.155,90.695 112.831,91.220 112.831 C 91.401 112.831,91.750 112.390,91.995 111.851 C 92.511 110.720,92.375 110.619,91.507 111.487 M88.579 117.199 C 88.011 118.827,88.036 119.011,88.702 118.101 C 89.006 117.685,89.172 117.210,89.070 117.046 C 88.969 116.882,89.073 116.748,89.301 116.748 C 89.529 116.748,89.716 116.572,89.716 116.357 C 89.716 115.496,88.984 116.038,88.579 117.199 M87.219 120.944 C 87.084 121.330,86.870 121.866,86.745 122.135 C 86.619 122.405,86.688 122.625,86.898 122.625 C 87.109 122.625,87.396 122.163,87.538 121.599 C 87.835 120.415,87.585 119.901,87.219 120.944 M85.106 130.460 C 85.106 131.214,85.186 131.523,85.285 131.146 C 85.383 130.769,85.383 130.152,85.285 129.775 C 85.186 129.398,85.106 129.706,85.106 130.460 M84.492 133.464 C 84.068 133.888,84.189 139.471,84.623 139.471 C 84.851 139.471,85.015 138.165,85.015 136.337 C 85.015 133.193,84.976 132.980,84.492 133.464 M85.106 142.997 C 85.106 143.751,85.186 144.060,85.285 143.683 C 85.383 143.306,85.383 142.689,85.285 142.311 C 85.186 141.934,85.106 142.243,85.106 142.997 M88.317 155.276 C 88.442 155.673,88.650 156.423,88.781 156.941 C 88.911 157.460,89.148 157.884,89.307 157.884 C 89.467 157.884,89.874 158.590,90.213 159.452 C 90.551 160.313,91.000 161.019,91.209 161.019 C 91.599 161.019,89.783 157.098,89.193 156.665 C 89.013 156.533,88.914 156.357,88.973 156.274 C 89.032 156.190,88.858 155.769,88.585 155.338 C 88.162 154.669,88.123 154.660,88.317 155.276 M199.491 159.138 C 199.232 159.397,199.021 160.609,199.021 161.833 C 199.021 164.296,198.729 164.704,196.670 165.128 C 191.850 166.121,188.640 171.065,189.561 176.076 C 190.377 180.510,193.335 182.727,200.044 183.935 C 205.742 184.961,207.411 186.934,204.928 189.710 C 203.325 191.503,198.470 191.599,195.214 189.900 C 191.747 188.092,188.834 188.947,188.834 191.773 C 188.834 193.840,192.470 196.319,196.377 196.915 C 198.835 197.290,199.021 197.566,199.021 200.844 C 199.021 206.187,202.202 205.763,202.547 200.374 L 202.742 197.314 204.800 196.852 C 209.849 195.719,212.967 192.018,212.884 187.259 C 212.785 181.579,209.987 179.069,202.166 177.644 C 196.599 176.630,194.870 174.512,197.478 171.903 C 198.844 170.537,202.720 170.471,205.766 171.762 C 207.815 172.631,209.090 172.532,210.204 171.418 C 212.721 168.901,210.094 165.971,204.464 165.014 L 202.742 164.722 202.624 162.200 C 202.469 158.916,201.075 157.554,199.491 159.138 M92.243 162.721 C 92.792 163.441,93.242 164.172,93.242 164.344 C 93.242 164.709,93.448 164.934,98.897 170.519 C 101.157 172.835,103.163 174.731,103.355 174.731 C 103.548 174.731,104.144 175.127,104.679 175.612 C 105.960 176.772,108.126 177.999,108.403 177.722 C 108.524 177.601,108.159 177.291,107.592 177.033 C 107.026 176.775,106.562 176.444,106.562 176.298 C 106.562 176.151,106.104 175.823,105.544 175.568 C 102.608 174.230,94.439 165.895,92.485 162.243 C 92.240 161.785,91.860 161.410,91.641 161.410 C 91.422 161.410,91.693 162.000,92.243 162.721 M241.047 175.906 C 241.047 176.876,241.123 177.272,241.217 176.787 C 241.310 176.303,241.310 175.509,241.217 175.024 C 241.123 174.540,241.047 174.936,241.047 175.906 M165.454 178.648 C 165.454 180.049,165.525 180.622,165.612 179.922 C 165.698 179.221,165.698 178.075,165.612 177.375 C 165.525 176.675,165.454 177.248,165.454 178.648 M108.913 178.208 C 108.913 178.601,112.814 180.363,113.084 180.092 C 113.182 179.994,112.719 179.725,112.055 179.494 C 111.391 179.262,110.577 178.801,110.244 178.469 C 109.579 177.803,108.913 177.673,108.913 178.208 M241.378 180.999 C 241.362 182.260,241.459 182.585,241.719 182.141 C 241.933 181.775,241.942 181.051,241.741 180.378 C 241.426 179.324,241.398 179.371,241.378 180.999 M113.614 180.554 C 113.614 181.015,115.134 181.568,115.472 181.231 C 115.773 180.929,115.571 180.764,114.496 180.434 C 113.988 180.278,113.614 180.329,113.614 180.554 M282.762 180.486 C 282.385 180.584,282.076 180.814,282.076 180.997 C 282.076 181.179,281.535 181.447,280.873 181.593 C 280.211 181.738,279.759 181.946,279.868 182.056 C 280.171 182.359,284.035 180.987,284.035 180.576 C 284.035 180.200,283.894 180.190,282.762 180.486 M116.357 181.741 C 116.680 181.940,117.649 182.206,118.511 182.332 C 119.621 182.494,119.792 182.466,119.099 182.235 C 117.301 181.638,115.727 181.354,116.357 181.741 M120.274 182.909 C 120.274 183.097,120.825 183.362,121.499 183.497 C 123.176 183.832,123.408 183.809,123.408 183.304 C 123.408 183.059,123.063 182.957,122.625 183.071 C 122.195 183.184,121.743 183.116,121.623 182.921 C 121.342 182.467,120.274 182.457,120.274 182.909 M276.200 182.958 C 276.200 183.173,276.464 183.350,276.787 183.350 C 277.111 183.350,277.375 183.173,277.375 182.958 C 277.375 182.742,277.111 182.566,276.787 182.566 C 276.464 182.566,276.200 182.742,276.200 182.958 M274.437 183.350 C 274.304 183.565,274.568 183.741,275.024 183.741 C 275.481 183.741,275.745 183.565,275.612 183.350 C 275.479 183.134,275.215 182.958,275.024 182.958 C 274.834 182.958,274.570 183.134,274.437 183.350 M241.822 183.839 C 241.911 184.109,242.310 184.392,242.708 184.469 C 243.373 184.598,243.380 184.558,242.801 183.980 C 242.049 183.227,241.596 183.162,241.822 183.839 M165.058 185.896 C 165.060 187.189,165.133 187.671,165.220 186.967 C 165.307 186.262,165.306 185.205,165.216 184.616 C 165.127 184.027,165.056 184.603,165.058 185.896 M128.404 184.417 C 129.104 184.504,130.250 184.504,130.950 184.417 C 131.650 184.330,131.077 184.259,129.677 184.259 C 128.276 184.259,127.703 184.330,128.404 184.417 M267.483 184.417 C 268.183 184.504,269.329 184.504,270.029 184.417 C 270.730 184.330,270.157 184.259,268.756 184.259 C 267.356 184.259,266.783 184.330,267.483 184.417 M164.153 192.729 C 164.153 193.794,164.329 194.774,164.545 194.907 C 164.788 195.057,164.936 194.323,164.936 192.971 C 164.936 191.773,164.760 190.793,164.545 190.793 C 164.329 190.793,164.153 191.664,164.153 192.729 M163.832 200.000 C 163.824 202.074,163.871 202.219,164.229 201.235 C 164.506 200.474,164.509 199.725,164.238 198.884 C 163.876 197.757,163.840 197.855,163.832 200.000 M163.495 207.248 C 163.495 208.648,163.566 209.221,163.653 208.521 C 163.740 207.821,163.740 206.675,163.653 205.975 C 163.566 205.274,163.495 205.847,163.495 207.248 M163.014 214.104 C 163.001 215.397,163.130 216.676,163.303 216.948 C 163.475 217.219,163.547 216.337,163.464 214.989 C 163.258 211.665,163.045 211.244,163.014 214.104 M163.761 218.185 C 163.761 218.638,166.472 220.339,166.749 220.061 C 166.862 219.948,166.588 219.740,166.141 219.598 C 165.693 219.456,165.145 218.999,164.922 218.583 C 164.505 217.802,163.761 217.548,163.761 218.185 M167.679 220.568 C 167.679 220.826,179.040 220.960,200.979 220.960 C 222.919 220.960,234.280 220.826,234.280 220.568 C 234.280 220.310,222.919 220.176,200.979 220.176 C 179.040 220.176,167.679 220.310,167.679 220.568 M129.481 238.462 C 128.513 238.724,126.151 241.227,126.151 241.992 C 126.151 242.301,126.339 242.437,126.569 242.295 C 126.798 242.153,126.901 241.952,126.796 241.847 C 126.692 241.742,126.968 241.241,127.410 240.733 C 130.095 237.644,139.450 237.871,141.551 241.076 C 143.623 244.239,142.110 253.139,139.307 254.273 C 138.586 254.565,138.575 254.605,139.216 254.627 C 139.615 254.641,140.541 254.053,141.273 253.320 L 142.605 251.988 142.605 246.688 L 142.605 241.388 141.194 239.891 L 139.782 238.394 135.023 238.322 C 132.406 238.283,129.912 238.346,129.481 238.462 M204.144 248.022 C 203.481 248.685,202.949 249.523,202.963 249.883 C 202.982 250.378,203.070 250.336,203.322 249.711 C 204.132 247.706,205.474 247.209,210.069 247.209 C 216.936 247.209,217.434 247.840,217.434 256.559 L 217.434 262.488 228.893 262.488 C 243.684 262.489,244.056 262.640,244.069 268.633 C 244.075 271.692,243.634 273.316,242.591 274.079 C 242.222 274.348,242.055 274.702,242.218 274.866 C 242.554 275.202,243.520 274.107,244.088 272.746 C 244.739 271.185,244.546 265.980,243.780 264.447 C 242.478 261.839,241.760 261.706,229.089 261.705 L 217.826 261.704 217.826 256.004 C 217.826 247.338,217.389 246.817,210.129 246.817 L 205.349 246.817 204.144 248.022 M360.430 250.244 C 360.430 250.406,361.884 250.539,363.662 250.539 C 366.781 250.539,366.892 250.570,366.802 251.420 C 366.692 252.460,367.396 252.604,367.760 251.616 C 368.617 249.294,370.373 249.895,371.424 252.872 C 372.369 255.549,372.747 255.765,373.165 253.864 C 373.306 253.220,373.584 252.693,373.782 252.693 C 373.981 252.693,374.143 252.517,374.143 252.302 C 374.143 251.498,373.411 251.948,373.027 252.987 C 372.636 254.045,372.624 254.048,372.361 253.183 C 372.213 252.698,371.951 252.302,371.778 252.302 C 371.605 252.302,371.349 251.784,371.210 251.152 L 370.958 250.003 365.694 249.976 C 362.800 249.962,360.431 250.083,360.430 250.244 M374.152 250.528 C 373.870 250.868,373.755 251.260,373.895 251.401 C 374.036 251.542,374.381 251.342,374.663 250.957 C 374.944 250.572,375.515 250.323,375.932 250.404 C 377.200 250.648,377.080 257.996,375.808 257.951 C 375.320 257.934,374.927 258.153,374.927 258.441 C 374.927 258.758,375.384 258.962,376.094 258.962 C 377.568 258.962,377.741 258.350,377.588 253.673 L 377.473 250.147 376.068 250.029 C 375.152 249.952,374.486 250.126,374.152 250.528 M126.174 251.191 C 126.143 252.068,128.704 254.659,129.572 254.627 C 130.141 254.607,130.117 254.543,129.437 254.268 C 128.663 253.956,127.762 252.981,126.664 251.267 C 126.256 250.631,126.194 250.621,126.174 251.191 M364.660 255.142 C 364.554 257.748,364.472 257.993,363.663 258.108 C 362.383 258.289,362.581 258.962,363.915 258.962 C 365.322 258.962,365.524 258.466,365.524 255.012 C 365.524 251.412,364.806 251.520,364.660 255.142 M132.517 254.940 C 133.541 255.021,135.215 255.021,136.239 254.940 C 137.262 254.860,136.425 254.794,134.378 254.794 C 132.331 254.794,131.494 254.860,132.517 254.940 M369.996 256.317 C 370.027 257.884,369.966 257.981,368.952 257.967 C 368.326 257.958,367.875 258.163,367.875 258.457 C 367.875 258.758,368.353 258.962,369.060 258.962 C 370.456 258.962,371.131 257.713,370.754 255.828 C 370.409 254.103,369.957 254.395,369.996 256.317 M373.968 256.415 C 373.303 258.157,372.091 258.832,371.683 257.689 C 371.587 257.419,371.374 257.323,371.210 257.476 C 370.651 257.996,371.374 258.962,372.323 258.962 C 373.346 258.962,374.392 257.690,374.941 255.778 C 375.455 253.986,374.709 254.475,373.968 256.415 M71.303 260.509 C 70.979 260.683,69.218 261.106,67.388 261.451 C 65.558 261.795,64.001 262.259,63.927 262.481 C 63.853 262.703,63.631 262.785,63.434 262.663 C 63.238 262.542,62.685 262.717,62.205 263.053 C 61.726 263.388,61.099 263.663,60.812 263.663 C 60.176 263.663,55.692 266.282,53.296 268.052 C 50.174 270.359,45.054 275.898,45.054 276.967 C 45.054 277.192,44.875 277.375,44.657 277.375 C 44.439 277.375,43.875 278.168,43.404 279.138 C 42.933 280.108,42.406 280.901,42.233 280.901 C 42.061 280.901,41.920 281.077,41.920 281.293 C 41.920 282.165,42.596 281.590,43.418 280.020 C 48.125 271.026,59.140 263.256,69.905 261.335 C 77.069 260.058,90.074 261.871,93.634 264.643 C 93.957 264.895,94.800 265.330,95.507 265.610 C 98.410 266.759,105.114 272.657,107.719 276.353 C 114.365 285.782,115.181 290.122,115.181 316.019 C 115.181 334.436,115.092 335.425,113.316 336.774 C 112.902 337.088,112.826 337.296,113.122 337.304 C 113.390 337.311,114.139 336.585,114.787 335.690 L 115.965 334.065 115.965 315.318 C 115.965 305.008,115.819 296.572,115.641 296.572 C 115.463 296.572,115.397 296.026,115.495 295.358 C 115.593 294.691,115.485 293.501,115.256 292.714 C 115.027 291.927,114.631 290.402,114.377 289.324 C 113.803 286.885,113.100 284.685,112.813 284.427 C 112.693 284.319,112.279 283.391,111.894 282.363 C 111.508 281.336,110.945 280.246,110.641 279.942 C 110.337 279.639,110.088 279.269,110.088 279.121 C 110.088 278.132,102.469 269.148,101.630 269.148 C 101.502 269.148,100.717 268.565,99.885 267.853 C 99.052 267.140,97.878 266.303,97.276 265.992 C 96.673 265.682,96.089 265.306,95.976 265.158 C 95.678 264.763,92.096 263.271,91.446 263.271 C 91.141 263.271,90.891 263.118,90.891 262.931 C 90.891 261.522,73.439 259.364,71.303 260.509 M130.362 261.954 C 129.985 262.063,129.677 262.327,129.677 262.540 C 129.677 262.752,129.515 262.826,129.316 262.703 C 128.911 262.452,127.312 264.314,127.353 264.989 C 127.367 265.229,127.566 265.040,127.794 264.567 C 129.242 261.571,139.240 261.740,140.816 264.788 C 141.697 266.491,141.753 333.042,140.875 335.143 C 140.286 336.554,139.253 337.316,137.930 337.316 C 137.485 337.316,137.120 337.493,137.120 337.708 C 137.120 338.794,140.219 337.240,141.353 335.585 L 142.226 334.311 142.122 299.581 L 142.018 264.851 140.552 263.386 L 139.086 261.920 135.067 261.837 C 132.857 261.791,130.739 261.844,130.362 261.954 M177.277 262.092 C 174.671 262.404,169.003 264.237,168.040 265.080 C 167.699 265.378,167.273 265.622,167.092 265.622 C 165.598 265.622,158.896 272.513,158.139 274.829 L 157.883 275.612 158.452 274.829 C 162.587 269.135,163.700 268.108,168.592 265.473 C 175.502 261.750,193.076 261.210,194.653 264.671 C 195.741 267.060,194.895 274.241,193.526 274.241 C 193.316 274.241,193.144 274.417,193.144 274.633 C 193.144 275.401,193.748 274.985,194.809 273.484 C 197.274 269.999,195.990 263.701,192.517 262.250 C 191.103 261.659,181.716 261.562,177.277 262.092 M275.710 261.994 C 274.471 262.071,273.457 262.313,273.457 262.530 C 273.457 262.748,273.264 262.806,273.028 262.661 C 272.792 262.515,272.219 262.575,271.755 262.794 C 271.291 263.013,269.897 263.492,268.657 263.857 C 267.417 264.222,266.271 264.724,266.111 264.973 C 265.950 265.222,264.980 265.820,263.957 266.302 C 262.933 266.784,262.096 267.362,262.096 267.585 C 262.096 267.809,261.653 268.160,261.112 268.366 C 260.570 268.572,259.925 269.185,259.678 269.728 C 259.430 270.271,259.092 270.715,258.927 270.715 C 258.761 270.715,258.121 271.464,257.504 272.380 C 255.820 274.881,255.748 275.024,256.186 275.024 C 256.409 275.024,256.861 274.503,257.190 273.866 C 259.322 269.743,266.297 264.756,271.870 263.369 C 277.826 261.887,295.369 262.722,297.747 264.601 C 298.071 264.856,299.013 265.372,299.841 265.747 C 301.553 266.521,304.233 268.525,305.308 269.833 C 306.228 270.955,306.404 270.941,307.778 269.645 C 313.474 264.273,318.415 262.737,330.069 262.714 C 343.535 262.688,349.648 265.150,355.044 272.773 C 360.369 280.293,360.583 281.716,360.721 310.542 L 360.835 334.110 359.947 335.501 C 359.328 336.471,358.666 336.970,357.757 337.153 C 356.900 337.325,356.587 337.547,356.842 337.801 C 357.389 338.349,360.241 336.673,360.782 335.485 C 361.878 333.080,361.238 284.494,360.080 282.149 C 359.900 281.786,359.350 280.211,358.856 278.648 C 358.362 277.086,357.842 275.808,357.700 275.808 C 357.558 275.808,357.148 275.192,356.789 274.438 C 355.744 272.248,353.342 269.391,351.224 267.821 C 345.228 263.376,341.549 262.144,333.327 261.830 C 327.487 261.607,319.651 262.137,318.741 262.816 C 318.507 262.991,317.522 263.361,316.552 263.638 C 314.307 264.279,310.064 266.789,307.992 268.702 L 306.390 270.181 304.740 268.500 C 303.833 267.576,302.461 266.525,301.692 266.166 C 300.923 265.806,299.853 265.204,299.314 264.828 C 298.776 264.451,297.542 263.916,296.572 263.639 C 295.602 263.361,294.603 262.979,294.352 262.790 C 293.236 261.950,283.220 261.522,275.710 261.994 M126.804 265.883 C 126.363 266.324,126.492 334.182,126.934 334.182 C 127.193 334.182,127.326 322.494,127.326 299.902 C 127.326 281.048,127.267 265.622,127.196 265.622 C 127.124 265.622,126.947 265.739,126.804 265.883 M75.220 275.024 C 74.517 275.250,74.958 275.338,76.787 275.338 C 78.617 275.338,79.058 275.250,78.355 275.024 C 77.816 274.852,77.111 274.711,76.787 274.711 C 76.464 274.711,75.759 274.852,75.220 275.024 M184.427 275.706 C 185.774 275.783,187.977 275.783,189.324 275.706 C 190.671 275.630,189.569 275.567,186.876 275.567 C 184.182 275.567,183.080 275.630,184.427 275.706 M217.549 293.340 C 217.732 311.841,217.868 313.532,219.463 317.140 C 222.191 323.313,225.105 324.754,234.890 324.770 C 243.117 324.783,243.997 325.406,244.045 331.244 C 244.066 333.711,243.906 334.649,243.295 335.651 C 242.868 336.352,242.702 336.925,242.925 336.925 C 244.502 336.925,245.087 328.816,243.675 326.530 C 242.553 324.714,242.325 324.663,234.309 324.403 C 229.146 324.237,227.045 324.034,226.931 323.691 C 226.843 323.428,226.527 323.213,226.228 323.213 C 225.553 323.213,222.527 321.659,222.526 321.312 C 222.526 321.172,222.094 320.555,221.565 319.941 C 221.037 319.326,220.319 317.916,219.971 316.807 C 219.622 315.697,219.177 314.437,218.981 314.006 C 218.155 312.190,217.826 305.681,217.826 291.201 L 217.826 275.820 229.285 275.710 L 240.744 275.600 229.058 275.508 L 217.372 275.416 217.549 293.340 M255.023 276.450 C 254.807 277.019,254.703 277.556,254.792 277.645 C 254.881 277.734,255.141 277.269,255.370 276.612 C 255.880 275.150,255.572 275.007,255.023 276.450 M281.597 275.704 C 282.518 275.786,283.929 275.785,284.731 275.701 C 285.534 275.617,284.780 275.549,283.056 275.551 C 281.332 275.552,280.676 275.621,281.597 275.704 M328.599 275.703 C 329.515 275.786,331.014 275.786,331.929 275.703 C 332.845 275.621,332.096 275.553,330.264 275.553 C 328.433 275.553,327.684 275.621,328.599 275.703 M83.839 276.314 C 84.594 276.548,85.299 276.859,85.406 277.004 C 85.793 277.528,87.365 277.828,87.365 277.378 C 87.365 277.136,87.189 277.046,86.974 277.179 C 86.758 277.312,86.582 277.256,86.582 277.053 C 86.582 276.850,85.799 276.487,84.841 276.246 C 82.666 275.699,82.002 275.743,83.839 276.314 M156.947 276.428 C 156.624 277.270,156.643 277.375,157.124 277.375 C 157.352 277.375,157.430 277.199,157.297 276.983 C 157.164 276.768,157.241 276.592,157.470 276.592 C 157.698 276.592,157.884 276.415,157.884 276.200 C 157.884 275.580,157.209 275.744,156.947 276.428 M178.844 276.200 C 177.846 276.629,178.876 276.629,180.215 276.200 C 181.003 275.948,181.041 275.884,180.411 275.875 C 179.980 275.868,179.275 276.015,178.844 276.200 M288.139 276.300 C 288.995 276.526,289.933 276.948,290.223 277.239 C 290.514 277.529,290.990 277.767,291.281 277.767 C 291.572 277.767,292.309 278.252,292.918 278.844 C 294.954 280.824,295.603 281.244,295.065 280.234 C 294.165 278.545,289.076 275.718,287.172 275.849 C 286.847 275.871,287.282 276.074,288.139 276.300 M334.966 276.200 C 336.305 276.629,337.335 276.629,336.337 276.200 C 335.906 276.015,335.201 275.868,334.770 275.875 C 334.140 275.884,334.178 275.948,334.966 276.200 M275.808 276.521 C 273.899 277.386,269.540 281.045,269.540 281.782 C 269.540 281.961,269.192 282.586,268.768 283.170 C 266.782 285.901,266.666 287.314,266.430 311.655 C 266.178 337.639,266.223 337.316,262.847 337.316 C 262.434 337.316,262.096 337.493,262.096 337.708 C 262.096 338.666,263.941 337.869,266.405 335.846 C 266.513 335.757,266.707 325.166,266.837 312.309 C 267.065 289.609,267.265 286.046,268.358 285.211 C 268.499 285.103,269.007 284.194,269.486 283.190 C 270.574 280.913,272.401 278.982,274.431 277.963 C 276.654 276.847,277.849 275.596,275.808 276.521 M66.264 277.388 C 65.755 277.812,65.439 278.159,65.560 278.159 C 66.094 278.159,67.777 277.219,67.777 276.920 C 67.777 276.398,67.262 276.557,66.264 277.388 M177.081 277.006 C 177.081 277.235,176.905 277.312,176.690 277.179 C 176.474 277.046,176.298 277.096,176.298 277.289 C 176.298 277.483,175.834 277.852,175.268 278.110 C 174.701 278.369,174.320 278.662,174.421 278.763 C 174.664 279.006,177.857 277.263,177.862 276.885 C 177.863 276.724,177.689 276.592,177.473 276.592 C 177.258 276.592,177.081 276.778,177.081 277.006 M337.316 276.936 C 337.316 277.125,337.858 277.505,338.521 277.779 C 339.765 278.294,342.801 281.056,342.801 281.672 C 342.801 281.864,343.073 282.292,343.405 282.625 C 343.738 282.957,344.254 283.895,344.553 284.709 C 344.852 285.524,345.107 285.926,345.120 285.602 C 345.153 284.787,343.306 280.901,342.885 280.901 C 342.696 280.901,342.322 280.490,342.053 279.988 C 341.784 279.486,341.005 278.746,340.322 278.345 C 339.638 277.943,338.846 277.385,338.562 277.103 C 337.968 276.517,337.316 276.429,337.316 276.936 M321.645 277.262 C 321.645 277.488,321.155 277.875,320.555 278.123 C 319.206 278.682,317.679 280.270,316.754 282.076 C 316.367 282.831,315.919 283.536,315.757 283.643 C 314.244 284.650,314.039 287.584,313.824 311.263 C 313.585 337.627,313.632 337.316,309.840 337.316 C 309.166 337.316,309.062 337.426,309.407 337.771 C 310.147 338.511,313.209 336.675,313.756 335.163 C 314.068 334.299,314.202 327.577,314.202 312.682 C 314.202 292.264,314.491 285.994,315.434 285.994 C 315.618 285.994,315.769 285.785,315.769 285.530 C 315.769 284.738,317.394 281.662,318.368 280.611 C 318.878 280.061,319.295 279.461,319.295 279.277 C 319.295 279.093,319.515 278.938,319.785 278.934 C 320.524 278.920,322.263 277.470,321.933 277.141 C 321.775 276.982,321.645 277.037,321.645 277.262 M88.322 278.367 C 88.740 278.683,89.225 278.942,89.399 278.942 C 90.299 278.942,96.087 284.892,97.128 286.887 C 97.433 287.473,97.756 287.879,97.845 287.790 C 98.696 286.939,92.264 279.942,89.048 278.220 C 87.862 277.586,87.409 277.677,88.322 278.367 M63.641 278.714 C 63.223 279.020,62.971 279.360,63.082 279.471 C 63.193 279.582,63.721 279.336,64.257 278.924 C 65.372 278.067,64.794 277.871,63.641 278.714 M253.734 279.023 C 253.522 279.833,253.686 280.450,254.016 280.085 C 254.415 279.643,254.659 278.159,254.333 278.159 C 254.128 278.159,253.858 278.548,253.734 279.023 M172.703 280.255 C 168.668 285.313,168.469 286.846,168.465 312.876 C 168.462 333.873,168.441 334.496,167.679 335.464 C 166.809 336.570,166.710 336.925,167.273 336.925 C 168.549 336.925,168.657 335.266,168.876 312.439 C 169.124 286.618,169.165 286.264,172.443 281.563 C 174.169 279.087,174.347 278.196,172.703 280.255 M60.707 281.016 C 47.466 293.543,50.816 314.229,67.451 322.658 C 70.860 324.386,71.499 324.483,81.169 324.734 L 90.448 324.976 91.649 326.126 C 94.527 328.884,93.016 337.297,89.637 337.328 C 88.506 337.339,88.438 337.394,89.087 337.771 C 89.887 338.236,91.770 337.434,92.752 336.210 C 93.511 335.264,93.416 327.368,92.631 326.170 C 91.683 324.724,91.295 324.664,81.325 324.419 C 74.356 324.249,71.913 324.065,71.792 323.701 C 71.702 323.432,71.306 323.213,70.911 323.213 C 65.965 323.213,56.389 314.095,54.793 307.865 C 54.526 306.825,54.184 305.975,54.031 305.975 C 52.863 305.975,52.844 293.102,54.011 292.269 C 54.166 292.157,54.533 291.273,54.826 290.304 C 55.353 288.562,57.766 284.642,59.331 282.986 C 59.774 282.517,60.313 281.943,60.529 281.711 C 60.744 281.478,61.361 280.952,61.900 280.541 C 62.439 280.130,62.784 279.697,62.666 279.579 C 62.549 279.461,61.668 280.108,60.707 281.016 M295.409 281.587 C 295.432 282.118,296.559 283.396,296.796 283.159 C 297.105 282.849,296.254 281.293,295.775 281.293 C 295.567 281.293,295.402 281.425,295.409 281.587 M154.750 282.272 C 154.750 282.595,154.927 282.860,155.142 282.860 C 155.357 282.860,155.534 282.595,155.534 282.272 C 155.534 281.949,155.357 281.685,155.142 281.685 C 154.927 281.685,154.750 281.949,154.750 282.272 M40.932 284.061 C 40.569 285.152,40.351 286.123,40.446 286.218 C 40.541 286.313,40.842 285.641,41.114 284.723 C 41.386 283.806,41.789 282.835,42.008 282.566 C 42.280 282.232,42.278 282.076,41.999 282.076 C 41.775 282.076,41.294 282.969,40.932 284.061 M297.002 283.643 C 296.987 283.751,297.226 284.633,297.531 285.602 C 297.837 286.572,298.091 287.013,298.095 286.582 C 298.103 285.899,297.070 283.125,297.002 283.643 M154.065 286.974 C 154.070 287.835,154.150 288.142,154.244 287.655 C 154.337 287.167,154.334 286.462,154.236 286.087 C 154.138 285.713,154.061 286.112,154.065 286.974 M345.152 286.974 C 345.152 287.297,345.328 287.561,345.544 287.561 C 345.759 287.561,345.935 287.297,345.935 286.974 C 345.935 286.650,345.759 286.386,345.544 286.386 C 345.328 286.386,345.152 286.650,345.152 286.974 M251.750 287.804 C 251.334 288.889,251.502 334.574,251.922 334.574 C 252.163 334.574,252.302 325.913,252.302 310.872 C 252.302 297.835,252.232 287.169,252.148 287.169 C 252.063 287.169,251.884 287.455,251.750 287.804 M298.139 288.368 C 298.139 288.812,298.315 289.066,298.531 288.932 C 298.746 288.799,298.923 288.436,298.923 288.126 C 298.923 287.815,298.746 287.561,298.531 287.561 C 298.315 287.561,298.139 287.924,298.139 288.368 M97.949 288.639 C 97.962 289.282,98.703 290.065,98.999 289.749 C 99.173 289.564,99.093 289.334,98.822 289.237 C 98.552 289.140,98.430 288.900,98.552 288.703 C 98.673 288.506,98.586 288.345,98.358 288.345 C 98.130 288.345,97.946 288.477,97.949 288.639 M345.544 289.324 C 345.544 289.863,345.720 290.304,345.935 290.304 C 346.151 290.304,346.327 289.863,346.327 289.324 C 346.327 288.786,346.151 288.345,345.935 288.345 C 345.720 288.345,345.544 288.786,345.544 289.324 M298.804 290.161 C 298.383 290.582,298.496 333.140,298.920 333.790 C 299.171 334.177,299.304 326.762,299.308 312.145 C 299.312 299.917,299.256 289.912,299.184 289.912 C 299.112 289.912,298.941 290.024,298.804 290.161 M99.174 290.695 C 99.174 291.019,99.325 291.636,99.510 292.067 C 99.723 292.560,99.847 292.633,99.847 292.262 C 99.847 291.939,99.695 291.322,99.510 290.891 C 99.298 290.397,99.174 290.325,99.174 290.695 M346.510 313.418 C 346.510 325.162,346.560 329.966,346.621 324.094 C 346.682 318.222,346.682 308.614,346.621 302.742 C 346.560 296.871,346.510 301.675,346.510 313.418 M100.300 296.451 C 100.304 297.559,100.404 297.792,100.686 297.356 C 101.181 296.589,101.181 295.507,100.686 295.201 C 100.450 295.055,100.296 295.555,100.300 296.451 M38.141 299.119 C 38.140 301.058,38.206 301.901,38.288 300.991 C 38.370 300.082,38.371 298.495,38.290 297.465 C 38.209 296.435,38.142 297.179,38.141 299.119 M39.177 309.500 C 39.177 310.232,39.282 310.336,39.647 309.971 C 40.013 309.605,40.013 309.396,39.647 309.030 C 39.282 308.665,39.177 308.769,39.177 309.500 M41.920 316.944 C 41.920 317.160,42.061 317.336,42.233 317.336 C 42.406 317.336,42.933 318.129,43.404 319.099 C 43.875 320.069,44.433 320.862,44.645 320.862 C 44.857 320.862,44.602 320.232,44.080 319.461 C 43.557 318.691,43.021 317.721,42.890 317.306 C 42.642 316.525,41.920 316.255,41.920 316.944 M203.727 318.586 C 203.737 319.565,204.207 320.862,204.551 320.862 C 204.741 320.862,204.897 320.597,204.897 320.274 C 204.897 319.951,204.702 319.687,204.463 319.687 C 204.225 319.687,204.129 319.428,204.250 319.111 C 204.372 318.795,204.303 318.432,204.097 318.305 C 203.890 318.177,203.724 318.304,203.727 318.586 M45.054 321.376 C 45.054 322.292,50.100 327.746,52.839 329.791 C 53.621 330.375,54.602 331.161,55.020 331.538 C 55.438 331.915,55.984 332.223,56.233 332.223 C 56.483 332.223,57.094 332.576,57.591 333.007 C 58.537 333.827,59.158 334.011,59.158 333.471 C 59.158 333.296,58.530 332.853,57.763 332.487 C 54.700 331.026,49.487 326.538,46.319 322.634 C 45.623 321.776,45.054 321.211,45.054 321.376 M205.681 323.882 C 205.681 325.534,213.458 334.393,214.214 333.602 C 214.369 333.439,214.150 333.107,213.728 332.863 C 212.502 332.154,208.406 327.829,207.743 326.543 C 206.971 325.045,205.681 323.380,205.681 323.882 M215.256 334.391 C 215.674 334.707,216.247 334.966,216.529 334.966 C 216.811 334.966,217.042 335.152,217.042 335.381 C 217.042 335.609,217.218 335.687,217.434 335.553 C 217.649 335.420,217.826 335.475,217.826 335.675 C 217.826 336.086,221.263 337.144,221.577 336.830 C 221.689 336.718,221.167 336.512,220.419 336.372 C 219.670 336.231,219.001 335.990,218.932 335.835 C 218.792 335.525,215.232 333.783,214.779 333.803 C 214.623 333.810,214.838 334.074,215.256 334.391 M62.219 335.165 C 62.718 335.530,63.232 335.723,63.362 335.593 C 63.676 335.280,63.462 335.118,62.292 334.782 L 61.312 334.501 62.219 335.165 M127.328 334.990 C 127.326 335.745,128.753 337.327,129.398 337.285 C 129.722 337.264,129.707 337.188,129.351 337.046 C 129.064 336.932,128.492 336.284,128.079 335.608 C 127.662 334.923,127.328 334.649,127.328 334.990 M299.326 334.815 C 299.309 335.453,300.860 337.318,301.400 337.308 C 301.653 337.303,301.487 336.994,301.030 336.622 C 300.574 336.250,300.006 335.593,299.769 335.162 C 299.532 334.731,299.333 334.575,299.326 334.815 M252.302 335.217 C 252.302 336.519,255.561 338.523,256.367 337.717 C 256.640 337.444,256.422 337.316,255.680 337.316 C 255.000 337.316,254.163 336.887,253.447 336.171 C 252.817 335.541,252.302 335.112,252.302 335.217 M346.719 335.217 C 346.719 335.879,347.676 336.954,348.736 337.482 C 350.153 338.190,351.028 338.276,351.028 337.708 C 351.028 337.493,350.574 337.316,350.019 337.316 C 349.425 337.316,348.537 336.844,347.864 336.171 C 347.234 335.541,346.719 335.112,346.719 335.217 M63.859 335.718 C 63.859 336.143,66.159 336.714,66.499 336.374 C 66.627 336.246,66.360 336.141,65.906 336.141 C 65.452 336.141,64.972 335.965,64.838 335.749 C 64.535 335.258,63.859 335.236,63.859 335.718 M101.469 335.626 C 101.469 336.063,102.973 337.536,103.158 337.281 C 103.222 337.193,102.868 336.696,102.372 336.177 C 101.875 335.658,101.469 335.410,101.469 335.626 M154.358 335.733 C 154.358 336.159,157.518 338.100,158.213 338.100 C 158.463 338.100,158.668 337.924,158.668 337.708 C 158.668 337.493,158.219 337.316,157.670 337.316 C 157.108 337.316,156.275 336.888,155.764 336.337 C 154.807 335.304,154.358 335.111,154.358 335.733 M71.890 337.708 C 72.023 337.924,73.081 338.100,74.241 338.100 C 75.401 338.100,76.458 337.924,76.592 337.708 C 76.744 337.462,75.870 337.316,74.241 337.316 C 72.612 337.316,71.738 337.462,71.890 337.708 M103.820 337.708 C 103.820 337.924,104.172 338.100,104.603 338.100 C 105.034 338.100,105.387 337.924,105.387 337.708 C 105.387 337.493,105.034 337.316,104.603 337.316 C 104.172 337.316,103.820 337.493,103.820 337.708 M111.068 337.708 C 111.201 337.924,111.564 338.100,111.874 338.100 C 112.185 338.100,112.439 337.924,112.439 337.708 C 112.439 337.493,112.076 337.316,111.632 337.316 C 111.188 337.316,110.934 337.493,111.068 337.708 M130.069 337.708 C 130.069 337.924,130.421 338.100,130.852 338.100 C 131.283 338.100,131.636 337.924,131.636 337.708 C 131.636 337.493,131.283 337.316,130.852 337.316 C 130.421 337.316,130.069 337.493,130.069 337.708 M164.349 337.708 C 164.482 337.924,164.845 338.100,165.155 338.100 C 165.466 338.100,165.720 337.924,165.720 337.708 C 165.720 337.493,165.357 337.316,164.913 337.316 C 164.470 337.316,164.216 337.493,164.349 337.708 M224.638 337.637 C 224.939 338.125,228.795 338.209,228.795 337.727 C 228.795 337.490,227.877 337.316,226.617 337.316 C 225.420 337.316,224.529 337.461,224.638 337.637 M239.765 337.708 C 239.765 337.924,240.118 338.100,240.548 338.100 C 240.979 338.100,241.332 337.924,241.332 337.708 C 241.332 337.493,240.979 337.316,240.548 337.316 C 240.118 337.316,239.765 337.493,239.765 337.708 M302.057 337.708 C 302.057 337.924,302.409 338.100,302.840 338.100 C 303.271 338.100,303.624 337.924,303.624 337.708 C 303.624 337.493,303.271 337.316,302.840 337.316 C 302.409 337.316,302.057 337.493,302.057 337.708 " stroke="none" fill="#fafbfc" fill-rule="evenodd"></path><path id="path1" d="M215.180 31.393 C 200.117 32.972,182.298 42.870,174.738 53.859 C 173.418 55.777,173.667 55.727,169.994 54.811 C 162.854 53.030,149.143 53.569,143.976 55.833 C 143.330 56.116,142.096 56.557,141.234 56.814 C 138.124 57.739,133.217 60.453,128.325 63.954 C 127.043 64.871,125.840 65.573,125.652 65.514 C 125.463 65.455,125.413 65.575,125.541 65.781 C 125.668 65.987,125.447 66.388,125.050 66.673 C 122.774 68.300,115.573 77.458,115.573 78.725 C 115.573 78.952,115.386 79.138,115.158 79.138 C 114.930 79.138,114.852 79.314,114.985 79.530 C 115.118 79.745,115.058 79.922,114.852 79.922 C 114.645 79.922,114.159 80.803,113.772 81.881 C 113.385 82.958,112.926 83.839,112.753 83.839 C 112.580 83.839,112.467 83.972,112.502 84.133 C 112.537 84.295,112.348 84.956,112.082 85.602 C 111.816 86.249,111.400 87.659,111.157 88.737 C 110.914 89.814,110.549 90.810,110.345 90.950 C 110.141 91.090,110.085 91.493,110.221 91.847 C 110.356 92.200,110.307 92.791,110.110 93.159 C 109.914 93.528,109.660 94.133,109.546 94.504 C 109.431 94.875,108.493 95.697,107.460 96.330 C 101.834 99.781,94.389 107.123,92.216 111.365 C 91.858 112.063,91.453 112.723,91.316 112.831 C 91.178 112.938,90.723 113.820,90.304 114.789 C 89.885 115.759,89.390 116.660,89.204 116.792 C 89.018 116.924,88.873 117.141,88.882 117.275 C 88.891 117.408,88.662 118.094,88.372 118.798 C 88.083 119.502,87.724 120.651,87.575 121.352 C 87.425 122.052,87.122 122.625,86.901 122.625 C 86.679 122.625,86.611 122.919,86.749 123.279 C 86.887 123.639,86.831 124.038,86.625 124.165 C 84.734 125.334,84.734 148.123,86.625 149.292 C 86.831 149.420,86.887 149.818,86.749 150.178 C 86.611 150.538,86.679 150.833,86.901 150.833 C 87.122 150.833,87.425 151.405,87.575 152.106 C 87.724 152.806,88.083 153.955,88.372 154.659 C 88.662 155.364,88.891 156.049,88.882 156.183 C 88.873 156.316,89.013 156.533,89.193 156.665 C 89.502 156.892,91.416 160.711,91.326 160.921 C 91.302 160.975,91.565 161.327,91.909 161.704 C 92.254 162.081,93.238 163.359,94.096 164.545 C 96.948 168.481,103.197 174.499,105.544 175.568 C 106.104 175.823,106.562 176.155,106.562 176.307 C 106.562 176.458,107.444 177.000,108.521 177.512 C 109.598 178.023,110.480 178.555,110.480 178.693 C 110.480 178.831,111.582 179.352,112.929 179.849 C 114.275 180.347,115.466 180.881,115.574 181.036 C 115.682 181.192,116.916 181.607,118.316 181.959 C 119.716 182.311,121.126 182.708,121.450 182.840 C 121.773 182.973,122.283 183.040,122.583 182.990 C 122.883 182.939,123.243 183.082,123.383 183.308 C 124.003 184.311,157.510 185.122,159.013 184.171 C 159.351 183.956,159.678 182.601,159.886 180.553 C 160.069 178.751,160.393 176.043,160.606 174.535 C 161.399 168.920,163.243 169.481,143.110 169.213 C 126.673 168.995,125.840 168.948,123.213 168.096 C 93.335 158.408,92.001 118.928,121.116 106.052 C 123.879 104.830,123.729 105.136,124.411 99.308 C 127.262 74.945,151.386 61.847,174.096 72.332 C 179.649 74.896,179.172 75.012,181.780 70.461 C 187.589 60.322,193.399 54.680,202.318 50.515 C 234.952 35.276,270.337 60.113,266.196 95.351 C 265.325 102.761,265.115 102.285,269.815 103.517 C 278.407 105.769,282.895 108.145,287.761 113.018 C 303.409 128.689,299.192 155.408,279.459 165.623 C 273.064 168.933,272.748 168.983,256.302 169.226 C 238.810 169.484,240.508 168.613,241.382 176.885 C 241.610 179.040,241.785 181.316,241.771 181.942 C 241.716 184.421,242.213 184.526,254.027 184.519 C 265.264 184.512,273.629 184.020,274.478 183.315 C 274.760 183.082,275.194 183.016,275.443 183.170 C 275.692 183.324,276.008 183.295,276.146 183.106 C 276.283 182.917,277.622 182.449,279.121 182.066 C 280.621 181.683,281.943 181.231,282.060 181.062 C 282.177 180.892,283.374 180.347,284.721 179.849 C 286.068 179.352,287.169 178.825,287.169 178.679 C 287.169 178.532,287.919 178.021,288.834 177.541 C 291.763 176.009,293.930 174.280,297.978 170.246 C 301.683 166.555,302.974 164.955,305.064 161.463 C 305.532 160.680,306.105 159.827,306.335 159.567 C 306.566 159.308,307.123 158.163,307.573 157.022 C 308.022 155.881,308.535 154.771,308.711 154.555 C 308.986 154.220,310.107 150.520,311.501 145.348 C 313.162 139.182,311.539 122.903,308.786 118.118 C 308.538 117.688,307.894 116.366,307.354 115.181 C 306.127 112.488,304.570 109.835,303.370 108.393 C 302.863 107.784,302.448 107.167,302.446 107.022 C 302.431 105.037,291.204 95.954,285.366 93.203 L 281.799 91.522 281.533 86.408 C 281.386 83.595,281.110 80.588,280.918 79.726 C 280.046 75.805,278.439 69.894,278.148 69.535 C 277.970 69.317,277.437 68.083,276.962 66.792 C 276.487 65.502,275.878 64.182,275.608 63.859 C 275.338 63.536,274.996 62.873,274.848 62.387 C 273.531 58.068,264.090 47.191,257.303 42.175 C 254.347 39.990,248.082 36.348,246.425 35.852 C 245.886 35.690,244.710 35.228,243.811 34.825 C 237.553 32.020,224.327 30.434,215.180 31.393 M190.653 144.243 C 188.273 145.575,179.064 147.390,173.647 147.595 C 168.361 147.795,168.049 147.852,167.882 148.634 C 167.786 149.089,167.516 152.723,167.284 156.709 C 167.051 160.695,166.612 166.513,166.309 169.638 C 166.005 172.762,165.541 179.761,165.277 185.191 C 165.002 190.843,164.646 194.970,164.443 194.844 C 164.242 194.720,164.116 196.033,164.152 197.901 C 164.186 199.702,164.014 203.820,163.768 207.052 C 163.053 216.477,163.399 218.152,166.380 219.725 C 167.607 220.372,234.211 220.369,235.632 219.722 C 238.119 218.589,238.978 215.343,238.207 209.990 C 238.006 208.590,237.481 200.921,237.042 192.948 C 236.603 184.976,236.045 176.513,235.803 174.143 C 235.561 171.773,235.067 165.212,234.705 159.563 C 233.955 147.874,234.201 148.658,231.467 149.244 C 227.419 150.112,219.439 150.487,214.087 150.061 C 206.540 149.460,200.529 147.880,192.744 144.452 C 191.749 144.014,191.166 143.956,190.653 144.243 M202.086 159.173 C 202.316 159.450,202.558 160.812,202.624 162.200 L 202.742 164.722 204.464 165.014 C 210.094 165.971,212.721 168.901,210.204 171.418 C 209.090 172.532,207.815 172.631,205.766 171.762 C 202.720 170.471,198.844 170.537,197.478 171.903 C 194.870 174.512,196.599 176.630,202.166 177.644 C 209.987 179.069,212.785 181.579,212.884 187.259 C 212.967 192.018,209.849 195.719,204.800 196.852 L 202.742 197.314 202.547 200.374 C 202.202 205.763,199.021 206.187,199.021 200.844 C 199.021 197.566,198.835 197.290,196.377 196.915 C 192.470 196.319,188.834 193.840,188.834 191.773 C 188.834 188.947,191.747 188.092,195.214 189.900 C 198.470 191.599,203.325 191.503,204.928 189.710 C 207.411 186.934,205.742 184.961,200.044 183.935 C 193.335 182.727,190.377 180.510,189.561 176.076 C 188.640 171.065,191.850 166.121,196.670 165.128 C 198.729 164.704,199.021 164.296,199.021 161.833 C 199.021 158.970,200.705 157.509,202.086 159.173 M129.481 239.336 C 128.074 239.990,126.143 241.724,126.821 241.724 C 126.969 241.724,126.880 241.935,126.621 242.194 C 125.587 243.228,126.044 250.347,127.258 252.103 C 128.888 254.460,129.602 254.690,134.899 254.566 L 139.533 254.456 140.873 252.993 L 142.214 251.530 142.201 246.725 C 142.192 243.170,142.042 241.726,141.626 241.176 C 141.316 240.768,141.174 240.239,141.309 240.001 C 141.445 239.763,141.423 239.688,141.261 239.834 C 141.099 239.979,140.175 239.759,139.207 239.344 C 136.808 238.315,131.684 238.311,129.481 239.336 M204.807 247.979 C 204.268 248.403,203.744 248.668,203.644 248.567 C 203.249 248.172,203.209 250.370,203.059 280.509 C 202.909 310.816,203.105 317.692,204.137 318.330 C 204.321 318.443,204.372 318.795,204.250 319.111 C 204.129 319.428,204.188 319.687,204.382 319.687 C 204.576 319.687,204.956 320.514,205.227 321.526 C 205.768 323.551,207.071 325.817,209.286 328.587 C 210.083 329.584,210.629 330.573,210.498 330.785 C 210.363 331.004,210.463 331.044,210.733 330.877 C 211.008 330.708,211.604 330.970,212.155 331.502 C 213.854 333.142,214.476 333.583,216.153 334.335 C 217.061 334.742,217.721 335.210,217.619 335.376 C 217.516 335.541,217.786 335.584,218.217 335.471 C 218.648 335.358,219.001 335.449,219.001 335.672 C 219.001 336.238,223.996 337.316,226.620 337.316 C 227.816 337.316,228.795 337.493,228.795 337.708 C 228.795 337.951,230.885 338.100,234.280 338.100 C 237.675 338.100,239.765 337.951,239.765 337.708 C 239.765 337.493,240.129 337.316,240.574 337.316 C 242.983 337.316,244.085 335.365,244.047 331.165 C 243.995 325.415,243.091 324.783,234.890 324.770 C 225.105 324.754,222.191 323.313,219.463 317.140 C 217.868 313.532,217.732 311.841,217.549 293.340 L 217.372 275.416 229.078 275.416 C 237.660 275.416,240.909 275.291,241.254 274.946 C 241.512 274.688,241.724 274.599,241.724 274.750 C 241.724 275.289,243.329 273.408,243.698 272.437 C 244.235 271.024,244.153 265.998,243.573 264.838 C 242.485 262.659,241.423 262.489,228.893 262.488 L 217.434 262.488 217.434 256.559 C 217.434 247.840,216.936 247.209,210.069 247.209 C 206.403 247.209,205.645 247.320,204.807 247.979 M360.580 250.912 C 360.256 251.755,360.746 252.302,361.825 252.302 C 362.755 252.302,362.782 252.384,362.782 255.267 C 362.782 258.118,362.816 258.228,363.663 258.108 C 364.472 257.993,364.554 257.748,364.660 255.142 C 364.769 252.455,364.824 252.302,365.695 252.302 C 366.612 252.302,367.292 251.377,366.873 250.699 C 366.485 250.070,360.829 250.261,360.580 250.912 M368.348 250.676 C 367.262 251.365,367.897 257.982,369.050 257.982 C 369.946 257.982,370.027 257.841,369.996 256.317 C 369.956 254.384,370.410 254.107,370.759 255.850 C 371.309 258.603,373.017 258.904,373.968 256.415 C 374.810 254.212,375.122 254.185,375.122 256.317 C 375.122 257.721,375.245 257.982,375.906 257.982 C 377.061 257.982,377.121 250.633,375.968 250.411 C 375.138 250.251,373.810 251.497,374.048 252.212 C 374.136 252.477,374.031 252.693,373.815 252.693 C 373.599 252.693,373.306 253.220,373.165 253.864 C 372.747 255.765,372.369 255.549,371.424 252.872 C 370.515 250.297,369.777 249.770,368.348 250.676 M68.885 261.515 C 67.448 261.801,65.892 262.239,65.427 262.487 C 64.962 262.736,64.321 262.840,64.004 262.718 C 63.679 262.594,63.531 262.666,63.666 262.884 C 63.797 263.097,63.607 263.271,63.242 263.271 C 62.325 263.271,57.661 265.692,54.737 267.687 C 50.579 270.523,46.387 275.040,43.614 279.673 C 43.146 280.456,42.607 281.273,42.417 281.489 C 42.227 281.704,42.050 281.969,42.023 282.076 C 41.997 282.184,41.803 282.723,41.594 283.275 C 41.384 283.826,40.991 285.016,40.720 285.919 C 40.450 286.822,40.068 287.561,39.872 287.561 C 39.677 287.561,39.628 287.914,39.765 288.345 C 39.902 288.776,39.847 289.128,39.643 289.128 C 38.097 289.128,38.056 307.090,39.598 308.948 C 39.805 309.197,39.864 309.688,39.730 310.038 C 39.595 310.389,39.666 310.676,39.888 310.676 C 40.109 310.676,40.413 311.249,40.562 311.949 C 40.711 312.649,41.070 313.798,41.360 314.503 C 41.649 315.207,41.878 315.892,41.869 316.026 C 41.860 316.160,42.020 316.377,42.223 316.509 C 42.427 316.640,42.910 317.365,43.297 318.119 C 44.856 321.162,48.942 325.955,52.498 328.913 C 53.467 329.720,54.212 330.543,54.153 330.743 C 54.094 330.943,54.214 331.002,54.420 330.875 C 54.626 330.747,55.437 331.079,56.222 331.612 C 57.007 332.145,57.989 332.689,58.404 332.820 C 58.818 332.952,59.158 333.195,59.158 333.361 C 59.158 333.527,60.127 333.993,61.312 334.396 C 62.498 334.798,63.467 335.278,63.467 335.462 C 63.467 335.645,63.651 335.682,63.876 335.543 C 64.101 335.404,64.498 335.456,64.758 335.659 C 65.624 336.335,69.105 336.995,72.956 337.213 C 75.050 337.332,76.671 337.579,76.558 337.763 C 76.444 337.947,79.310 338.089,82.926 338.078 C 87.154 338.066,89.295 337.929,88.923 337.694 C 88.497 337.424,88.684 337.327,89.637 337.322 C 93.014 337.307,94.528 328.884,91.649 326.126 L 90.448 324.976 81.169 324.734 C 71.499 324.483,70.860 324.386,67.451 322.658 C 55.987 316.849,50.300 304.521,53.460 292.327 C 54.398 288.708,57.948 282.942,58.883 283.520 C 59.110 283.660,59.158 283.569,58.996 283.306 C 58.677 282.791,62.241 279.256,62.757 279.575 C 62.932 279.683,63.075 279.579,63.075 279.343 C 63.075 279.107,63.849 278.583,64.795 278.177 C 65.741 277.772,66.624 277.264,66.757 277.049 C 66.977 276.692,69.060 276.171,74.731 275.052 C 76.149 274.772,77.426 274.772,78.844 275.052 C 84.652 276.197,86.582 276.693,86.582 277.040 C 86.582 277.250,86.758 277.312,86.974 277.179 C 87.189 277.046,87.365 277.105,87.365 277.310 C 87.365 277.514,87.767 277.783,88.258 277.906 C 90.620 278.499,97.206 285.071,97.797 287.425 C 97.924 287.931,98.196 288.345,98.401 288.345 C 98.605 288.345,98.664 288.521,98.531 288.737 C 98.398 288.952,98.456 289.128,98.660 289.128 C 98.864 289.128,99.334 290.318,99.704 291.773 C 100.074 293.227,100.460 294.682,100.561 295.005 C 100.663 295.328,100.725 304.378,100.699 315.117 C 100.667 328.572,100.779 334.562,101.061 334.388 C 101.285 334.249,101.469 334.385,101.469 334.690 C 101.469 335.642,103.330 337.316,104.389 337.316 C 104.938 337.316,105.387 337.493,105.387 337.708 C 105.387 337.935,106.635 338.100,108.348 338.100 C 110.223 338.100,111.221 337.956,111.068 337.708 C 110.933 337.491,111.229 337.311,111.730 337.304 C 115.000 337.259,115.181 336.143,115.181 316.019 C 115.181 292.244,114.642 288.268,110.394 280.705 C 107.739 275.978,102.704 269.931,101.423 269.931 C 101.187 269.931,101.099 269.658,101.227 269.323 C 101.355 268.989,101.328 268.797,101.167 268.897 C 101.005 268.997,100.170 268.566,99.310 267.939 C 98.451 267.312,96.917 266.386,95.902 265.880 C 94.888 265.375,93.830 264.787,93.552 264.574 C 89.808 261.713,76.304 260.037,68.885 261.515 M129.518 262.939 C 129.612 263.091,129.360 263.319,128.958 263.447 C 127.341 263.960,127.326 264.282,127.326 299.940 C 127.326 338.833,127.184 337.316,130.826 337.316 C 131.271 337.316,131.636 337.493,131.636 337.708 C 131.636 337.932,132.811 338.100,134.378 338.100 C 135.945 338.100,137.120 337.932,137.120 337.708 C 137.120 337.493,137.485 337.316,137.930 337.316 C 141.546 337.316,141.430 338.555,141.430 299.895 C 141.430 262.163,141.573 264.174,138.799 263.015 C 137.360 262.414,129.152 262.347,129.518 262.939 M177.081 262.889 C 169.123 263.823,162.105 268.392,158.445 275.024 C 158.029 275.779,157.555 276.455,157.392 276.527 C 157.229 276.599,157.196 276.820,157.317 277.017 C 157.439 277.214,157.372 277.375,157.168 277.375 C 156.963 277.375,156.479 278.565,156.091 280.020 C 155.703 281.474,155.229 282.771,155.038 282.902 C 154.847 283.032,154.731 283.385,154.782 283.685 C 154.832 283.985,154.714 284.584,154.518 285.015 C 154.317 285.457,154.163 296.462,154.163 310.299 L 154.163 334.800 155.449 336.058 C 156.194 336.786,157.143 337.316,157.702 337.316 C 158.233 337.316,158.668 337.493,158.668 337.708 C 158.668 337.935,159.916 338.100,161.629 338.100 C 163.504 338.100,164.502 337.956,164.349 337.708 C 164.214 337.491,164.509 337.314,165.011 337.310 C 166.106 337.303,166.471 337.061,167.594 335.598 L 168.462 334.468 168.465 312.876 C 168.468 289.469,168.595 287.656,170.488 283.896 C 171.641 281.606,173.282 279.295,173.736 279.322 C 173.852 279.328,174.287 279.025,174.703 278.648 C 176.167 277.319,176.690 276.956,176.696 277.262 C 176.699 277.432,176.831 277.380,176.989 277.145 C 177.621 276.212,180.285 275.723,185.700 275.545 C 188.825 275.443,191.603 275.289,191.875 275.202 C 192.146 275.116,192.499 275.007,192.658 274.959 C 194.763 274.329,196.047 267.730,194.658 264.682 C 193.713 262.607,186.104 261.831,177.081 262.889 M273.284 262.917 C 273.375 263.063,272.666 263.301,271.709 263.445 C 270.751 263.588,269.153 264.139,268.157 264.669 C 267.161 265.198,266.139 265.513,265.886 265.368 C 265.633 265.223,265.557 265.249,265.718 265.426 C 265.878 265.603,265.683 265.940,265.284 266.175 C 261.941 268.142,258.420 271.488,257.190 273.866 C 256.861 274.503,256.441 275.024,256.257 275.024 C 256.073 275.024,255.516 276.126,255.019 277.473 C 254.521 278.820,253.986 280.011,253.829 280.120 C 252.600 280.974,252.302 287.004,252.302 310.945 L 252.302 335.026 253.447 336.171 C 254.133 336.858,255.006 337.316,255.625 337.316 C 256.213 337.316,256.553 337.485,256.415 337.708 C 256.262 337.956,257.260 338.100,259.135 338.100 C 260.848 338.100,262.096 337.935,262.096 337.708 C 262.096 337.493,262.434 337.316,262.847 337.316 C 266.223 337.316,266.178 337.639,266.430 311.655 C 266.666 287.314,266.782 285.901,268.768 283.170 C 269.192 282.586,269.540 281.961,269.540 281.782 C 269.540 280.844,274.433 276.998,276.560 276.264 C 281.155 274.680,292.748 275.924,291.625 277.882 C 291.475 278.142,291.492 278.229,291.662 278.076 C 292.144 277.641,294.142 278.846,294.898 280.028 C 295.274 280.616,295.795 281.273,296.055 281.489 C 296.652 281.982,298.139 285.767,298.139 286.792 C 298.139 287.215,298.323 287.561,298.549 287.561 C 298.808 287.561,298.860 288.086,298.690 288.989 C 298.498 290.012,298.549 290.339,298.868 290.141 C 299.217 289.926,299.690 328.996,299.415 335.286 C 299.403 335.569,299.474 335.720,299.574 335.621 C 299.673 335.521,300.210 335.862,300.767 336.378 C 301.324 336.894,302.194 337.316,302.702 337.316 C 303.209 337.316,303.624 337.493,303.624 337.708 C 303.624 337.935,304.872 338.100,306.585 338.100 C 308.460 338.100,309.458 337.956,309.305 337.708 C 309.171 337.493,309.437 337.316,309.895 337.316 C 313.623 337.316,313.585 337.570,313.824 311.263 C 314.039 287.584,314.244 284.650,315.757 283.643 C 315.919 283.536,316.367 282.831,316.754 282.076 C 317.679 280.270,319.206 278.682,320.555 278.123 C 321.155 277.875,321.645 277.507,321.645 277.304 C 321.645 277.102,321.822 277.046,322.037 277.179 C 322.253 277.312,322.429 277.258,322.429 277.057 C 322.429 275.607,333.156 275.070,336.827 276.336 C 337.958 276.727,338.883 277.168,338.883 277.318 C 338.883 277.467,339.480 277.910,340.208 278.302 C 340.937 278.694,341.760 279.440,342.037 279.958 C 342.315 280.477,342.696 280.901,342.885 280.901 C 343.316 280.901,345.143 284.775,345.148 285.700 C 345.150 286.077,345.347 286.386,345.586 286.386 C 345.850 286.386,345.927 286.758,345.783 287.333 C 345.634 287.925,345.728 288.341,346.034 288.443 C 346.415 288.570,346.566 293.794,346.719 312.016 L 346.915 335.426 348.014 336.371 C 348.619 336.891,349.544 337.316,350.071 337.316 C 350.597 337.316,351.028 337.493,351.028 337.708 C 351.028 337.935,352.277 338.100,353.990 338.100 C 355.621 338.100,356.854 337.943,356.736 337.751 C 356.617 337.559,357.092 337.287,357.790 337.147 C 358.664 336.971,359.337 336.458,359.947 335.501 L 360.835 334.110 360.721 310.542 C 360.583 281.716,360.369 280.293,355.044 272.773 C 349.648 265.150,343.535 262.688,330.069 262.714 C 318.415 262.737,313.474 264.273,307.778 269.645 C 306.404 270.941,306.228 270.955,305.308 269.833 C 304.233 268.525,301.553 266.521,299.841 265.747 C 299.013 265.372,298.071 264.858,297.747 264.604 C 295.878 263.138,272.421 261.520,273.284 262.917 " stroke="none" fill="#2484f4" fill-rule="evenodd"></path></g></svg>