<svg id="Capa_1" data-name="Capa 1" xmlns="http://www.w3.org/2000/svg" viewBox="0 0 735.53 739.36"><title>BCV</title><path d="M682.26,755.71c-16.92-1.1-34-1.24-50.73-3.48-62.54-8.34-119.24-31.55-169.39-69.88-51.69-39.5-91.28-88.78-117.26-148.66a368.34,368.34,0,0,1-26.29-94.06,377.36,377.36,0,0,1-2-88.2C322.38,286.26,344,226.5,381.65,172.9Q447,80,553.4,39.59C586.69,26.91,621.1,19,656.67,17.08c58.58-3.18,115.8,3.76,169.69,28C935.15,93.88,1006.51,175.64,1038.3,291c11.54,41.84,14.33,84.66,10.55,127.88-6.79,77.63-35.23,146.5-85.3,206-43,51.08-96,88.21-159.29,110.24a362.2,362.2,0,0,1-84.79,18.8c-12.31,1.18-24.76.86-37.14,1.22Zm362.37-371c-.58-12.21-.58-23.29-1.73-34.25a361.93,361.93,0,0,0-23.28-96.14q-53.4-134.8-184.16-197.65a350.7,350.7,0,0,0-119.07-33,358.84,358.84,0,0,0-82.27,1.65,354.39,354.39,0,0,0-104.6,30.87c-53.92,25.48-99,62-134.77,109.71-59.88,79.85-83,169.7-70.72,268.52,5.15,41.29,18,80.38,37.1,117.52,26.35,51.38,62.7,94.21,109.29,128,55.28,40.13,117.11,63.39,185.45,68.69a351.2,351.2,0,0,0,141.79-17.88c62-21.09,114.61-56.46,157.39-106C1014.84,555.69,1044.25,475,1044.63,384.76Z" transform="translate(-314.91 -16.35)"/><path d="M524.16,627.33c-10,3-19.79,5.93-29.48,9-.75.24-1.43,1.87-1.51,2.9-.73,9.13-1.31,18.28-2,27.42-.07,1-.27,2-.49,3.54a30.39,30.39,0,0,1-4-2.26c-11.49-9.29-23-18.53-34.34-28-3.73-3.13-3.4-4,1.16-5.71q11.13-4.08,22.34-7.91c1.89-.65,3-1.63,3.11-3.73.52-9,1.1-18.07,1.67-27.1.12-1.87-.69-2.74-2.57-2.54-9.09,1-18.19,1.83-27.25,3-1.2.16-2.75,1.87-3.15,3.17-2.29,7.56-4.26,15.21-6.41,22.82-.43,1.54-1.15,3-2,5.22a329.65,329.65,0,0,1-35.1-41.46c2.64-.61,4.47-1.2,6.35-1.44,7.84-1,15.7-2,23.56-2.82,2-.21,2.79-1.05,3.25-2.93,2-8.29,4.24-16.52,6.24-24.81,1.11-4.61.8-5.07-3.79-5.57-8.28-.9-16.59-1.54-24.87-2.41-2.13-.22-3.26.62-4.14,2.43q-5,10.38-10.24,20.69c-.87,1.73-2,3.34-3.55,5.93-11.1-15.47-19.09-31.66-27.06-48.76a29.33,29.33,0,0,1,4.85-.51c7.47.64,14.94,1.25,22.38,2.19,2.58.32,4.1-.3,5.3-2.53,4.58-8.52,9.23-17,14-25.79a25.33,25.33,0,0,0-2.69-1.3c-8.17-2.78-16.39-5.39-24.5-8.34-3.09-1.12-4.87-.36-6.8,2.13-4.2,5.43-8.71,10.63-13.12,15.91-1.19,1.43-2.48,2.78-4.13,4.63a25.06,25.06,0,0,1-2.11-3.93q-6.81-22.2-13.5-44.42a6.49,6.49,0,0,1-.17-1.24c-.25-3.23.36-3.79,3.43-2.81,8.42,2.7,16.85,5.34,25.18,8.28,2.43.86,3.63.41,5.12-1.56,5.77-7.63,11.73-15.11,17.9-23-5.73-3.53-11.1-6.87-16.51-10.15-2.93-1.78-6-3.37-8.87-5.24-1.86-1.2-3.24-1.11-5,.34-6.69,5.64-13.48,11.14-20.26,16.67-1,.84-2.14,1.54-4.19,3-3.15-19-5.08-37.15-5-56.32,2.3.93,3.85,1.4,5.26,2.15,6.71,3.54,13.37,7.19,20.08,10.74,5,2.65,5,2.62,9.25-.93,6.43-5.42,12.85-10.86,19.67-16.63-2.14-2.23-4-4.33-6-6.19-5.39-4.91-10.92-9.66-16.28-14.6-1.51-1.39-2.67-1.38-4.37-.45-7.09,3.94-14.24,7.78-21.39,11.61-1.63.88-3.34,1.59-6,2.83-.82-19.49,2.07-37.86,4.66-57.11a50,50,0,0,1,5.56,3.45c6.57,5.45,13,11.06,19.61,16.48.88.73,2.67,1.4,3.49,1,9-4.51,17.84-9.25,27.1-14.11-1.48-2.18-2.47-3.74-3.56-5.21-4.85-6.52-9.76-13-14.56-19.54-1.14-1.56-2.2-2.07-4.17-1.46-8.83,2.74-17.72,5.33-26.59,8-1.26.37-2.55.65-4.52,1.15A360.46,360.46,0,0,1,364.82,259l1.92-.95a18,18,0,0,0,1.69,3.34c5.45,6.83,10.92,13.66,16.57,20.34.9,1,3,2.09,4.12,1.78,9.3-2.49,18.52-5.31,28.22-8.16-2.54-5.51-4.73-10.42-7-15.27-2-4.22-4.23-8.35-6.26-12.57a3.27,3.27,0,0,0-3.66-2.12q-12.74,1.17-25.5,2.22c-1.32.11-2.65,0-4.4,0a20.1,20.1,0,0,1,.8-3.78,279.63,279.63,0,0,1,23.64-43.19,28.71,28.71,0,0,1,2-2.32,49.12,49.12,0,0,1,3,4.38q6.13,11.4,12.1,22.9c1,1.89,2.11,2.78,4.36,2.52,8.68-1,17.39-1.83,26.08-2.77a14.43,14.43,0,0,0,2.41-.73c-1.25-5.16-2.4-10.2-3.71-15.2-1.24-4.73-2.7-9.39-4-14.11a3.56,3.56,0,0,0-3.45-3c-8.69-1-17.37-2-26-3.07-4.08-.49-4.52-1.26-2.24-4.58a256,256,0,0,1,29.68-35.77c3-3.05,3.86-2.78,5.13,1.26,2.56,8.13,5.09,16.27,7.53,24.44a4.29,4.29,0,0,0,4.14,3.46c9.19.93,18.37,2,28,3.1a30.73,30.73,0,0,0,.3-4c-.69-8.81-1.46-17.63-2.17-26.44a4.21,4.21,0,0,0-3.34-4c-7.14-2.26-14.25-4.58-21.37-6.89-1.19-.38-2.36-.81-3.52-1.27-1.79-.69-2.24-1.76-.81-3.26a54.21,54.21,0,0,1,4.35-4.48c9.71-8,19.45-16,29.28-23.88,2-1.59,4.37-2.64,7.25-4.34.48,4.33.89,7.88,1.26,11.43.65,6.32,1.2,12.64,2,18.94.13,1,1,2.55,1.84,2.82,9.2,2.94,18.47,5.68,27.73,8.45a6.18,6.18,0,0,0,1.63-.11c1-7.61,1.58-15.33,3.29-22.78,1.65-7.22-.68-11.09-7.33-13.79-5.16-2.1-9.92-5.24-14.77-8.08-5.71-3.34-5.81-4.33,0-7.71,8.54-4.95,17.28-9.57,26-14.21,4-2.1,8-3.93,12.09-5.82a41.23,41.23,0,0,1,3.92-1.3c-.35,4.48-.61,8.35-.94,12.21-.49,5.6-1,11.2-1.55,16.8a4.55,4.55,0,0,0,2.72,5c8.55,4.5,17,9.15,25.85,13.94,1.83-5.83,3.56-11.36,5.3-16.89,1.19-3.77,2.26-7.58,3.63-11.28a4,4,0,0,0-1.24-5c-4.82-4.14-9.67-8.24-14.45-12.42-2.39-2.11-4.65-4.36-7.65-7.19a235.33,235.33,0,0,1,51.59-15.25c-.93,3.53-1.56,6-2.25,8.48-1.88,6.71-3.85,13.39-5.62,20.13-.26,1-.06,2.71.62,3.3,7.61,6.61,15.35,13.08,23.2,19.71a16.16,16.16,0,0,0,1.69-2c4.36-7.82,8.65-15.66,13-23.46,1.34-2.39,1.15-4.31-.69-6.49-5-6-9.86-12.11-14.75-18.2-.89-1.11-1.67-2.32-3.1-4.32,17.88-3,35.07-5,53.2-5-1.5,3.1-2.6,5.42-3.75,7.71-3,6-6,11.9-9,17.81-1.14,2.21-.91,3.94.77,5.92,6.06,7.13,11.92,14.43,18.18,22.06,3.36-3.85,6.45-7.33,9.46-10.87s6-7.46,9.22-11a4.66,4.66,0,0,0,.73-5.94c-3.61-7-7.24-14-10.74-21.13-2.12-4.29-1.75-5,3-4.63,14.93,1.29,29.84,2.82,44.74,4.32a18,18,0,0,1,3.61,1.29c-2.41,3.18-4.45,6-6.63,8.76-3.91,4.88-8,9.65-11.8,14.57a3.61,3.61,0,0,0-.56,3.13c4.79,8.76,9.74,17.44,14.66,26.13a16.7,16.7,0,0,0,1.25,1.57C746.9,95.8,754.51,89.52,761.92,83c.85-.75,1-2.93.68-4.23-2.08-7.72-4.42-15.38-6.65-23.07-.4-1.37-.71-2.76-1.26-4.89,2.54.15,4.65-.11,6.51.44,13.53,4.06,27,8.26,40.5,12.48a28,28,0,0,1,4,2.11c-1.54,1.62-2.71,3-4.08,4.23-5.51,4.78-11.12,9.43-16.59,14.25-.89.78-2,2.38-1.74,3.25,2.84,10,5.91,19.86,9.05,30.21,3.13-1.43,5.53-2.38,7.79-3.58,6-3.16,11.88-6.45,17.83-9.66A4.9,4.9,0,0,0,820.86,99c-.92-7.86-1.58-15.74-2.13-23.63-.28-3.88.85-4.73,4.37-2.95,12.33,6.23,24.54,12.71,36.79,19.1a4.8,4.8,0,0,1,.52.36c4.48,3.17,4.54,4.15-.14,6.86-6.48,3.75-13,7.39-19.67,10.86-2.05,1.07-2.91,2.18-2.6,4.54,1.2,9,2.24,18,3.32,27,.31,2.57,1.32,3.69,4.15,2.77q12.16-3.94,24.43-7.57c2.29-.67,3.05-1.95,3.26-4.21.85-9.42,1.85-18.83,2.86-28.86a24.86,24.86,0,0,1,4.39,2.11c6.81,5.15,13.62,10.29,20.25,15.66,5,4.06,9.82,8.39,14.57,12.76,2.71,2.48,2.49,3.37-1,4.58-7.76,2.71-15.57,5.26-23.36,7.86-1.66.56-3,1.3-3.07,3.38-.51,9.66-1.1,19.32-1.65,29a9,9,0,0,0,.38,1.72c3.47-.19,7-.29,10.47-.6,5.91-.51,11.8-1.28,17.72-1.67,2.58-.17,3.35-1.77,3.94-3.7,2.15-7.07,4.21-14.16,6.37-21.21.63-2.06,1.48-4.05,2.5-6.8a304.21,304.21,0,0,1,34.7,41.3c-3.89.65-6.79,1.27-9.72,1.6-6.83.75-13.69,1.28-20.51,2.12-1.13.15-2.85,1.2-3.09,2.15-2.38,9.05-4.44,18.18-6.74,27.25-.66,2.62.16,3.57,2.73,3.84,8.38.86,16.75,1.82,25.13,2.8,2.4.28,3.87-.66,5-2.82q5.24-10.47,10.7-20.82a46.62,46.62,0,0,1,2.85-4.27c5.93,3.74,26.28,41.24,25.69,47.4-2.23-.13-4.48-.21-6.72-.41-7-.6-13.9-1.21-20.84-1.89-2.36-.23-3.94.44-5,2.72-3.6,7.95-7.33,15.85-11,23.78a27.87,27.87,0,0,0-.91,2.86c1,.4,1.77.82,2.62,1.1,8.11,2.64,16.24,5.21,24.32,7.91,2.15.71,3.48.38,5-1.54,4.89-6.35,10-12.57,15.12-18.7,3-3.52,4.27-3.31,5.74,1.22,3.88,11.85,7.51,23.78,11.17,35.7.76,2.48,1.34,5,1.87,7.57.88,4.26.35,4.79-3.74,3.58-7.88-2.32-15.77-4.61-23.57-7.18-2.51-.83-4-.39-5.55,1.64-5.87,7.67-11.86,15.24-18,23.14,1.35,1,2.11,1.62,3,2.1,7.56,4.17,15.17,8.25,22.69,12.48,2.06,1.15,3.57.85,5.3-.64,5.76-4.95,11.61-9.81,17.46-14.67,1.5-1.25,3.11-2.37,5.33-4.05.77,3.54,1.72,6.48,2,9.48q2,20.35,3.73,40.73c.4,4.84-.44,5.36-4.77,3.19-7.25-3.63-14.39-7.5-21.62-11.16-.86-.44-2.45-.71-3-.23-8,6.51-15.81,13.17-24,20.08,3.94,3.4,7.37,6.43,10.87,9.36,4.15,3.47,8.4,6.83,12.54,10.32a3.15,3.15,0,0,0,4.15.35c6.61-3.74,13.28-7.37,20-11,1.52-.83,3.15-1.48,5.21-2.45.3,1.65.83,2.94.72,4.16-1.38,15.34-2.8,30.67-4.35,46-.29,2.88-1.53,3.25-4,1.35-6-4.77-12.09-9.55-18-14.5-2.9-2.43-5.36-3-8.82-.7-7.38,4.84-15.08,9.2-23.08,14,3.21,4.19,6.12,8.07,9.11,11.88s6.22,7.56,9.18,11.45a3.63,3.63,0,0,0,4.54,1.45c7.64-2.4,15.3-4.71,23-7,1.16-.35,2.34-.62,3.53-.93,1.25,6.12-9.82,43.78-14.68,50a41.35,41.35,0,0,1-3.09-3c-4.64-5.49-9.27-11-13.8-16.55-1.16-1.43-2.31-2.38-4.21-1.8-2.19.67-4.39,1.3-6.55,2.05-7.24,2.53-14.47,5.1-22.06,7.79,2.21,4.22,4.26,8.15,6.34,12.06,2.55,4.77,5.24,9.47,7.64,14.31a3.89,3.89,0,0,0,4.4,2.48q10.41-1,20.83-1.94c1.41-.13,2.85,0,4.84,0a18.72,18.72,0,0,1-1,3.22Q983.37,548,972.61,567.85a17.26,17.26,0,0,1-1.66,2.26c-1.14,1.49-2.27,1.36-3.16-.19q-2-3.51-3.89-7.12c-2.68-5.28-5.24-10.63-8-15.86-.48-.9-1.86-2-2.73-1.92-9.83.8-19.65,1.8-30,2.79.71,3.27,1.2,6,1.89,8.64,1.69,6.54,3.58,13,5.19,19.6.69,2.81,2.14,4.17,5,4.52,7.33.88,14.64,2,22,3a41.39,41.39,0,0,1,4.14,1.12c-9.92,14.58-20.49,27.77-32.83,39.48l-1.15-.41c-1-3-2.06-6-3-9.07-1.65-5.48-3.14-11-4.85-16.46-.33-1-1.29-2.53-2.12-2.64-10-1.43-20.14-2.64-30.87-4,.39,7,.66,13,1.08,18.95.24,3.42.8,6.82,1.07,10.25.21,2.55,1.24,4.15,3.8,5,6.71,2.25,13.35,4.68,20,7.09,1.55.56,3,1.3,5.37,2.32a296.13,296.13,0,0,1-40.37,33c-.53-2.65-1.06-4.5-1.23-6.38-.68-7.46-1.27-14.94-1.83-22.41a3.54,3.54,0,0,0-2.77-3.6c-8.77-2.62-17.52-5.26-26.24-8-2.51-.81-3.14.25-3.4,2.4q-1.5,12.72-3.13,25.41c-.31,2.44.34,4.11,2.62,5.39,6.44,3.61,12.79,7.39,19.13,11.18,1.57.94,3,2.14,5.11,3.68-14.8,10.59-30.7,17.72-46.3,25.41l-.92-.74c.58-4.91,1.14-9.83,1.75-14.75.43-3.51,1-7,1.37-10.52s-.68-6.18-3.8-7.89c-7.93-4.35-15.86-8.68-24.06-13.16a20.87,20.87,0,0,0-1.33,2.61c-2.83,8.26-5.59,16.54-8.43,24.8a4.2,4.2,0,0,0,1.37,5q8,7.2,15.92,14.53c1.43,1.32,2.69,2.82,4.65,4.89-15.84,7-31.73,11.52-48.64,15.22a35.24,35.24,0,0,1,.61-4.1c2.27-7.89,4.54-15.79,7-23.64a3.87,3.87,0,0,0-1.48-4.82c-7.79-6.07-15.52-12.22-23.39-18.44a13.67,13.67,0,0,0-1.49,1.75c-4.35,8.17-8.75,16.31-12.9,24.58a4.75,4.75,0,0,0,.67,4.09c4.55,6.08,9.34,12,14,18,1.08,1.38,2,2.85,3.63,5.09-17.89,3.88-35.36,5.08-53.65,5.59.66-1.6,1-2.62,1.48-3.57,3.62-7.38,7.22-14.76,10.94-22.09,1.2-2.35,1-4.12-.8-6.17-6-7-11.84-14.23-18.44-22.21-.93,1.37-1.54,2.47-2.33,3.42-5.29,6.3-10.55,12.63-16,18.82a4.52,4.52,0,0,0-.74,5.66q4.56,8.88,9,17.8c.85,1.67,1.57,3.4,2.38,5.08,1.09,2.25.52,3.35-2.08,3.24-6-.27-12.09-.25-18.1-.79-8.91-.8-17.8-1.9-26.67-3-4.31-.55-4.75-1.56-2.17-5.07q7.23-9.79,14.77-19.37c1.4-1.79,1.62-3.21.45-5.28-4.2-7.42-8.18-15-12.26-22.46-.54-1-1.19-1.92-2-3.18-4.62,3.56-9.08,6.94-13.49,10.39-3.2,2.5-6.26,5.19-9.52,7.6-1.81,1.34-2.13,2.77-1.51,4.82q3.82,12.69,7.47,25.44c.89,3.07.26,3.91-2.71,3.06-14.27-4.07-28.51-8.32-42.74-12.56a23.3,23.3,0,0,1-3.73-2c1.51-1.64,2.74-3.12,4.13-4.43,5.61-5.29,11.33-10.46,16.85-15.82a4.47,4.47,0,0,0,1.2-3.66c-2.73-8.94-5.69-17.82-8.6-26.71a13.82,13.82,0,0,0-.8-1.57,22.66,22.66,0,0,0-2.93,1.12c-7.57,4.13-15.12,8.31-22.7,12.44a4.48,4.48,0,0,0-2.55,5.09c1,7.74,1.9,15.5,2.81,23.25a20.71,20.71,0,0,1,.19,2.49c0,2.38-.94,3.32-3.3,2.23-4.25-2-8.61-3.69-12.75-5.85-8.75-4.58-17.42-9.32-26.06-14.11a54.72,54.72,0,0,1-5.64-4.2c2.26-1.62,3.94-3,5.77-4.1,6.27-3.9,12.57-7.77,18.92-11.54,2.33-1.38,3.23-3,2.75-5.82-1.47-8.61-2.64-17.28-3.95-25.92A20.21,20.21,0,0,0,524.16,627.33ZM540,483c-5.54,4.21-10.5,8.14-15.62,11.84q-35.56,25.71-71.18,51.34c-1,.7-2.22,1.56-2.51,2.58-1.22,4.4-2.16,8.89-3.15,13.35-.4,1.82.25,3,2.23,3.35,3.29.5,6.6.92,9.85,1.6a5.35,5.35,0,0,0,5-1.48q39.48-33.3,79.07-66.46c8.3-7,8.65-6.75,14.66,2.45,1.48,2.26,1.59,4.05-.29,6.07-5.53,5.95-10.93,12-16.51,17.92a11.51,11.51,0,0,1-4.36,2.78c-11.56,4.09-23.18,8-34.76,12.07a10.32,10.32,0,0,0-3.26,1.73Q483.09,556,467,569.91a4.54,4.54,0,0,0-1.6,2.49c-.46,4.14-.74,8.3-1,12.45-.12,2.24,1,3.17,3.31,2.86,4.13-.55,8.3-.79,12.4-1.5a8.48,8.48,0,0,0,4.43-2.28c13.44-14.1,26.75-28.32,40.17-42.44a55.73,55.73,0,0,1,6.84-5.89,2.74,2.74,0,0,1,2.66.3,2.89,2.89,0,0,1,.29,2.71,23.68,23.68,0,0,1-3.34,4.1q-18.43,19.77-36.92,39.49c-8.47,9.06-8.47,9.06-8.14,21.44,0,.21,0,.42,0,.63-.21,2.59,1.15,3.64,3.56,3.5a74,74,0,0,0,9.32-.8,7.88,7.88,0,0,0,4.33-2.5c8.81-10.82,17.48-21.75,26.14-32.69a10.06,10.06,0,0,0,1.71-3.6c3.19-12.06,6.29-24.15,9.46-36.22a8,8,0,0,1,1.4-3.39c6.3-6.8,12.73-13.48,19.08-20.24,1.09-1.16,2-1.22,3.16-.13,3.22,3.1,6.44,6.21,9.68,9.29,1.25,1.19,1.05,2.27.08,3.53-1.84,2.4-3.54,4.9-5.39,7.29q-30.5,39.39-61,78.78c-.81,1-2,2.28-2,3.37.28,4.85,1,9.67,1.61,15.43,5.45-1.65,10.52-3,15.45-4.77a8.71,8.71,0,0,0,4.17-3.24c12.47-19.82,24.77-39.75,37.21-59.59,5.74-9.18,11.66-18.24,17.56-27.31a8.52,8.52,0,0,1,2.74-2.91c.81-.45,2.1,0,3.18,0a7.92,7.92,0,0,1-.23,2.51,34.75,34.75,0,0,1-2.28,4.08Q559.08,577.13,533,619.57c-1,1.72-2.22,3.83-2.13,5.7a128,128,0,0,0,1.79,13.59c.28,1.79,1.43,2.39,3.2,1.89,2.9-.83,5.79-1.69,8.72-2.37a7.86,7.86,0,0,0,5.48-4.53q21.43-41.45,43.07-82.78c2.12-4.05,4.51-8,6.75-12,1-1.74,2.24-2.31,4.11-1.31,2.84,1.53,5.72,3,8.57,4.46,1.65.86,2,2,1.32,3.83-3,7.86-5.85,15.8-8.88,23.66a8.78,8.78,0,0,1-2.44,3.11c-9.19,8.16-18.44,16.25-27.63,24.41a10.91,10.91,0,0,0-2.47,3.14q-9.57,18.76-19,37.58c-.4.8-1,1.86-.76,2.58,1.55,5,3.28,10,5.11,15.42,4.89-2.7,9.33-5,13.53-7.57a9.43,9.43,0,0,0,3.62-4.26q12-31,23.67-62.07c.65-1.71,1.32-2.74,3.32-2s2.13,2.08,1.63,3.77c-.27.9-.59,1.78-.92,2.65-7.12,19.1-14.18,38.22-21.45,57.25-1.3,3.41-1.64,6.4-.23,9.81,1.6,3.88,2.74,7.94,4.25,12.43,4.55-2.4,8.55-4.37,12.39-6.63a6,6,0,0,0,2.46-3.23c4-13.35,7.8-26.75,11.61-40.15a9.46,9.46,0,0,0,.27-3.67c-1.16-9.71-2.17-19.46-3.69-29.11-1.17-7.35-1.22-14.31,2.29-21.16,2.36-4.61,4-9.6,6.16-14.31.41-.88,2.16-2,2.93-1.72,4.67,1.39,9.26,3.07,13.83,4.77,1.81.67,2.43,2,1.76,4-.78,2.36-1.2,4.84-1.92,7.23q-14.22,47.67-28.48,95.34c-.32,1.06-.89,2.45-.49,3.26,2.3,4.6,4.86,9.08,7.49,13.89,4.89-3.91,9.31-7.37,13.62-11a4.88,4.88,0,0,0,1.31-2.7q8.87-45.48,17.66-91c1-5.06,2-10.11,3.06-15.36l5,1.19c-.08.92-.08,1.64-.21,2.33q-9.48,49-19,98c-.47,2.44-1.82,5.32-1,7.28,2.27,5.51,5.45,10.65,8.48,16.32,3.45-2.5,6.33-4.71,9.33-6.74a8.1,8.1,0,0,0,3.61-6.2q4.38-36.74,8.82-73.47c1.27-10.54,2.56-21.08,3.81-31.62.28-2.35,1-4,3.87-3.64,3.2.36,6.43.51,9.65.69,2,.11,2.55,1.08,2.52,3-.1,7.61,0,15.21-.1,22.82a12.7,12.7,0,0,1-1.28,5.32c-5.5,10.86-11.18,21.62-16.73,32.45a12.41,12.41,0,0,0-1.29,4.1q-2.46,20.94-4.73,41.89a4.09,4.09,0,0,0,.44,2.64c3.07,4.06,6.28,8,9.85,12.52,3.38-3.83,6.62-7.18,9.44-10.86a10.69,10.69,0,0,0,2.19-5.81c.42-22.08.63-44.16.9-66.24,0-1.21,0-2.42,0-3.69l5.26-.32c0,1.44,0,2.57,0,3.71q.25,32.49.55,65c0,1.53,0,3.38.81,4.52,3.09,4.39,6.51,8.56,10.27,13.41,3.21-4,6.15-7.4,8.65-11.06a9.27,9.27,0,0,0,1.5-5.46c-.76-12.16-1.83-24.3-2.67-36.45a22.88,22.88,0,0,0-3-9.68c-5.57-10.12-11-20.33-16.4-30.52a7.48,7.48,0,0,1-1.19-3.15q-.15-13,0-25.94a2.69,2.69,0,0,1,1.66-2c4-.41,8.08-.6,12.12-.75,1.69-.06,2.45.81,2.67,2.67q6.12,52.58,12.46,105.12a8.13,8.13,0,0,0,2,4.72c3.57,3.29,7.48,6.21,11.6,9.56,2.9-5.39,5.61-10.29,8.14-15.27a5.38,5.38,0,0,0,0-3.05c-3.4-17.25-6.86-34.48-10.24-51.73q-5-25.57-9.85-51.18a4.32,4.32,0,0,1,1.23-3.58c2.12-1.55,3.27-.69,4,2.91q9.1,45,18.17,89.93c1,4.67,1,10.12,3.53,13.73,3.58,5.08,9.12,8.78,14,13.26,2.31-4.34,4.1-8,6.16-11.48a6.68,6.68,0,0,0,.56-5.87q-11.41-36.63-22.65-73.31c-3-9.65-5.63-19.37-8.34-29.09-.37-1.35-1.47-3.26.71-4.06,5.24-1.91,10.54-3.67,15.85-5.37,1.83-.58,2.71.5,3.35,2.23,2.58,7,5.34,14,7.95,21a7.38,7.38,0,0,1,.44,3.32c-1.28,11.06-2.69,22.11-3.93,33.18-.35,3.16-1,6.59-.26,9.54,3.62,13.56,7.69,27,11.64,40.47a4.28,4.28,0,0,0,1.26,2.37c4.44,2.63,9,5.1,13.84,7.84,1.7-5.12,3.35-9.72,4.7-14.39a7.72,7.72,0,0,0-.15-4.44c-2.67-7.33-5.55-14.58-8.32-21.87q-7.64-20.12-15.24-40.25c-.78-2.06-1.09-3.71,1.54-4.74,2.88-1.13,3,1.18,3.84,2.73.33.64.54,1.35.81,2,7.39,18.66,15,37.25,22.09,56,3.32,8.75,11.48,10.22,18.54,14.39,1.39-4.57,2.76-8.48,3.72-12.5A7.86,7.86,0,0,0,814,638c-6.33-12.66-12.81-25.23-19.32-37.79a13,13,0,0,0-2.84-3.63c-9.18-8.17-18.43-16.26-27.64-24.4a6,6,0,0,1-1.87-2c-3-8.09-5.89-16.21-8.65-24.38-.31-.93.16-2.89.86-3.26,3.64-1.92,7.47-3.47,11.23-5.16l5.25,7.15a1.43,1.43,0,0,1,.15.27Q793.1,586.32,815,627.86c5.41,10.21,5.52,10.16,16.78,12.46,2.29.47,3.34-.29,3.64-2.44.52-3.71,1.22-7.41,1.43-11.14a9.82,9.82,0,0,0-1.24-5.44c-13.32-21.5-26.83-42.88-40.17-64.37-5.1-8.22-10-16.59-14.77-25-.6-1-.12-2.71-.14-4.09,1.41.54,3.24.69,4.15,1.69a52.67,52.67,0,0,1,5.31,7.31q25.63,40.5,51.23,81a6,6,0,0,0,2.5,2.56c4.73,1.55,9.56,2.83,14.36,4.21,1.67.48,2.54,0,2.69-1.88.3-3.63.87-7.24,1-10.88a7.58,7.58,0,0,0-1.43-4.47c-12.23-15.68-24.67-31.21-36.86-46.92-10.15-13.08-20-26.37-30.09-39.51-1.47-1.92-1.64-3.34.25-5q4-3.5,7.78-7.23c1.91-1.88,3.42-1.66,5.22.25,6.19,6.61,12.52,13.09,18.71,19.7a8.09,8.09,0,0,1,1.53,3.33c3.16,11.42,6.22,22.88,9.44,34.29a16.18,16.18,0,0,0,2.6,5.59c7.93,10.06,16.23,19.83,24,30C868,608.65,875,606.5,882,607.79c-.46-5.07-1-9.4-1.19-13.74a11.22,11.22,0,0,0-3.46-7.7q-14.6-15.45-29-31.06c-4.88-5.28-9.59-10.71-14.41-16-1.35-1.49-2-2.91-.32-4.57,1.87-1.81,2.77.09,3.76,1.07,3.33,3.3,6.58,6.67,9.84,10q17.5,18.08,35,36.15c1.22,1.26,2.56,3,4.06,3.28,5.46.93,11,1.33,16.84,2-.22-4.29-.56-7.71-.52-11.13a8.28,8.28,0,0,0-3.14-6.76q-13-11.26-25.8-22.69a42.33,42.33,0,0,0-15.68-8.7c-9.21-2.95-18.33-6.16-27.47-9.31a8.14,8.14,0,0,1-3.25-1.69q-10-10.54-19.75-21.31a2.85,2.85,0,0,1-.38-2.63c2.66-3.54,5.52-6.93,8.38-10.44,1.84,1.39,3.2,2.35,4.48,3.4q23.52,19.36,47,38.76c12.27,10.17,24.43,20.46,36.75,30.57a7.74,7.74,0,0,0,4.49,1.26,31.85,31.85,0,0,0,5.88-.74c7.33-1.18,6.34-.12,5.1-7.71a22.12,22.12,0,0,0-10.13-15.59C899.5,536,890.33,529,881,522.17q-24.66-17.86-49.33-35.72c-1.43-1-2.72-2.26-4.07-3.4l.51-1.28c2.46.41,5.07.45,7.35,1.33a33.24,33.24,0,0,1,7,4.14q37.75,26.65,75.48,53.38c.91.65,2,1.64,2.93,1.57q7.47-.54,14.88-1.64c.73-.1,2-1.64,1.81-2.24-1.56-6.41-1.61-13.71-9.42-16.66a41.19,41.19,0,0,1-5.45-3q-28.07-16-56.13-32c-1.64-.94-3.11-2.16-4.65-3.26l.26-.94c2.53-.22,5-.51,7.59-.66,3.39-.2,7.27.82,8.74-5,1.68,2,2.82,3.3,3.93,4.65,4,4.84,7.87,9.71,11.89,14.49a11.12,11.12,0,0,0,3.26,2.78q19.35,10.13,38.79,20.09a3.94,3.94,0,0,0,2.56.64c4.32-1.44,8.58-3.07,13.38-4.84-2.48-4.8-4.61-9.29-7.1-13.57a8.85,8.85,0,0,0-4-3.54c-15.64-6.54-31.35-12.9-47-19.33-4.33-1.77-8.61-3.66-13-5.37-2.08-.82-2.27-2.21-1.59-4s2.1-2.09,3.79-1.35c.77.33,1.56.58,2.34.89q29.55,11.79,59.1,23.58c.84.33,1.88.91,2.61.68,5.31-1.67,10.56-3.52,16.26-5.46-2-4.1-3.61-7.87-5.77-11.25a10.23,10.23,0,0,0-5-4.09c-12.5-3.92-25.07-7.6-37.68-11.17a23.43,23.43,0,0,0-7.66-.63c-4.57.3-9.1,1.07-13.65,1.51-5.36.53-10.72.91-16.44,1.39,0-4.77-.05-9,0-13.25.06-3.82.3-4,4-3q36.44,9.83,72.87,19.68c1.15.31,2.69.78,3.55.29,4.2-2.41,8.22-5.11,12.51-7.83-1-1.39-1.82-2.48-2.63-3.54-8-10.34-8-10.39-20.6-12.88q-33.21-6.57-66.46-12.95c-2.71-.52-3.61-1.81-3.2-4.25.45-2.75,2.61-1.57,4-1.32q37.6,6.93,75.15,14.07a8.86,8.86,0,0,0,7.29-1.26c3.89-2.68,8-5.08,12.53-7.94-3.48-4.11-6.4-7.73-9.55-11.16a5.36,5.36,0,0,0-3.34-1.34c-16.29-1.34-32.59-2.56-48.89-3.87-11.41-.92-22.82-2-34.23-2.92-1.44-.12-2.77-.2-2.77-2.1,0-6.21,0-12.43,0-18.73,4.8-.94,8.93.67,12.91,2.77,10.11,5.36,20.18,10.81,30.28,16.18a7.74,7.74,0,0,0,2.88,1q20.4,1.6,40.8,3.06a3.84,3.84,0,0,0,2.59-.56c3.81-3.35,7.5-6.83,11.52-10.55-4.33-3.5-8.37-6.92-12.59-10.1a7.44,7.44,0,0,0-4.23-1.38c-17.08.11-34.16.36-51.24.54-5.28.06-10.56,0-15.88,0v-5.27c1.45,0,2.69,0,3.92,0q31.56-.48,63.11-1c1.23,0,2.81.12,3.61-.55,4.5-3.8,8.81-7.83,13.53-12.09-3.34-2.75-6.38-5.1-9.24-7.63a9.85,9.85,0,0,0-8.37-2.38c-12.59,1.61-25.2,3.11-37.79,4.74a13.65,13.65,0,0,0-4.66,1.52c-10.24,5.55-20.42,11.22-30.63,16.83a15.06,15.06,0,0,1-10.59,1.81V367.64c1.33-.28,2.53-.62,3.74-.78q40.55-5.43,81.07-10.88a5.64,5.64,0,0,0,3.43-1.73c2.58-3.25,4.9-6.71,7.31-10.1,1.07-1.52.79-2.59-.93-3.47-4.15-2.15-8.2-4.52-12.41-6.57a6.36,6.36,0,0,0-3.87-.28c-21.34,4.62-42.67,9.33-64,14-4.64,1-9.3,1.93-14.26,2.95v-5.61l1.29-.33q38.25-8.38,76.5-16.77c.89-.2,2.07-.33,2.56-.94,3.72-4.68,7.31-9.47,11.28-14.67-4.6-2.43-8.57-4.67-12.69-6.6a6.43,6.43,0,0,0-4.32-.31c-18.16,6-36.27,12.19-54.41,18.26-6.46,2.16-13,4.14-20.4,6.5,0-5.58.08-10.42,0-15.25-.06-2.68.79-3.72,3.63-3.45,9.54.89,19.09,1.61,28.64,2.32a10.31,10.31,0,0,0,4-.37Q933.1,306.84,952.5,300a4.34,4.34,0,0,0,2.39-1.71c1.78-3.64,3.43-7.36,4.87-11.14a2.94,2.94,0,0,0-.94-2.68c-7.25-3-14.48-6.9-22.35-1.52a20.61,20.61,0,0,1-3.71,1.62c-16.93,7.2-33.86,14.43-50.83,21.54-.95.4-2.3-.15-3.46-.26.5-1.24.66-3,1.58-3.61a47.19,47.19,0,0,1,7.67-4.14c17.26-7.75,34.57-15.42,51.83-23.17a6.59,6.59,0,0,0,3.12-2.32c2.18-4,4.08-8.19,6.05-12.32,1.19-2.49.13-4-2.29-4.73-3.19-1-6.36-2-9.61-2.67a6.73,6.73,0,0,0-4.32.56q-17.65,10-35.13,20.32a15.52,15.52,0,0,0-3.9,3.47c-4.15,5-8.13,10-12.27,15a21,21,0,0,1-3.35,2.61c-1.08-5.19-1.54-5.57-6.33-5.9-1.78-.13-3.55-.32-5.33-.48l-.32-1.16c1.48-1,2.92-2,4.45-2.95q29.48-17.61,58.95-35.24a6.92,6.92,0,0,0,3-3.28c1.13-3.56,1.8-7.26,2.61-10.91.46-2.06-.35-3.1-2.54-3.27-3.94-.3-7.86-1-11.8-1.05a9.68,9.68,0,0,0-5.4,1.57c-20.66,14.42-41.2,29-61.84,43.46-5.88,4.11-11.94,8-18,11.86-2.57,1.66-5.35,1.85-8.8.6,1.8-1.43,3.17-2.63,4.65-3.69q40.6-28.87,81.2-57.74a6.49,6.49,0,0,0,2.59-2.86c1.38-4.68,2.45-9.46,3.63-14.2.58-2.33-.51-3.24-2.72-3.39-3.11-.2-6.24-.37-9.33-.82a6,6,0,0,0-5.29,1.76q-33,29-66.08,57.82c-6.11,5.32-12.37,10.46-19,16-3.12-3.62-6-7-9-10.34-1.51-1.68-1.62-3.11,0-4.85,6-6.65,11.87-13.41,17.88-20a6.92,6.92,0,0,1,3-1.52c11.58-3.73,23.18-7.37,34.75-11.14a13.18,13.18,0,0,0,4.61-2.47c10.52-9.32,20.95-18.75,31.37-28.18a4.65,4.65,0,0,0,1.68-2.48c.41-4.63.59-9.28.85-13.94-9.33-.79-17.73-.25-23.9,7.5-1.61,2-3.63,3.73-5.43,5.6-11.73,12.14-23.42,24.3-35.19,36.4-1.32,1.35-2.74,3.73-5.07,1.3-2.1-2.2.52-3.21,1.37-4.63a9,9,0,0,1,1.25-1.39q21.57-23,43.13-46.09c.76-.81,1.87-1.75,2-2.7.44-5.27.67-10.56.84-15.85,0-1.82-1.09-2.52-2.9-2.26-3.61.53-7.25.83-10.81,1.56a6.72,6.72,0,0,0-3.72,2.26Q850.08,184.24,837.51,201a13,13,0,0,0-2,4.15c-3.35,11.48-6.6,23-9.92,34.48a8.61,8.61,0,0,1-1.37,3.42c-6.37,6.87-12.87,13.63-19.3,20.45a2.23,2.23,0,0,1-3.52.18c-2.56-2.27-5.11-4.57-7.67-6.86-1.35-1.2-1.26-2.36-.18-3.76,1.71-2.23,3.2-4.62,4.88-6.88q30.19-40.6,60.39-81.21a6.79,6.79,0,0,0,1.54-4.11c-.31-3.61-1.21-7.17-1.72-10.77-.38-2.64-1.8-3.24-4.14-2.56-3.69,1.07-7.44,2-11,3.29a7.9,7.9,0,0,0-3.71,2.91c-5,7.67-9.78,15.48-14.7,23.2q-19.65,30.81-39.36,61.57a26.8,26.8,0,0,1-3.84,4.89c-.6.59-2,.38-3,.53-.12-.93-.6-2-.3-2.77a26.88,26.88,0,0,1,2.49-4.67q26-41.71,52.15-83.38c2.17-3.43,3.4-6.62,2.46-10.7s-1.39-8.29-2.13-12.92c-4.36,1.26-8.1,2.5-11.92,3.37a6.45,6.45,0,0,0-4.68,4Q798,175.14,779,213.41c-3.53,7.06-7.5,13.91-11.28,20.85-.67,1.23-1.36,2.39-3.14,1.51-4.83-2.38-9.68-4.7-14.86-7.21,3.47-8.76,6.67-17.08,10.1-25.31a13.49,13.49,0,0,1,3.59-4.87c9.2-7.83,18.55-15.5,27.79-23.27a10.87,10.87,0,0,0,2.77-3.28q9.45-18.65,18.71-37.4a4,4,0,0,0,.55-2.59c-1.57-4.81-3.3-9.57-5.13-14.75-4.71,2.42-8.92,4.41-13,6.74a8.25,8.25,0,0,0-3.33,3.71c-4.88,11.82-9.51,23.74-14.35,35.58-3.65,8.95-7.46,17.84-11.33,26.7-.35.81-1.64,1.22-2.49,1.81-.45-1-1.43-2.16-1.25-3.07a44.54,44.54,0,0,1,2.32-8.07c7.22-18.38,14.55-36.73,21.81-55.11.41-1,1-2.3.75-3.22-1.74-5.63-3.7-11.19-5.8-17.39-4.12,2.33-7.94,4.19-11.4,6.57a10,10,0,0,0-3.8,4.94c-3.51,12.08-6.81,24.22-10,36.4a30.27,30.27,0,0,0-1.09,9.21c.47,8.2,1.11,16.42,2.17,24.57,1.08,8.31,1,16.29-3.07,23.92-1.57,2.91-2.5,6.16-3.76,9.24-3,7.48-3.33,7.7-11,5s-6.34-1.5-4.83-8.82c.17-.82.38-1.63.59-2.43q13.18-49.11,26.34-98.23c.35-1.3.65-3,.1-4.09-1.76-3.41-3.92-6.62-6-9.89-1.3-2.11-2.88-2.52-4.88-.84a81,81,0,0,1-7.06,5.66c-2.84,1.89-4,4.4-4.59,7.66-6.36,33.74-12.89,67.44-19.27,101.17-.46,2.44-1.62,3.15-3.77,2.87-2.67-.34-1.55-2.26-1.3-3.61q9.22-50,18.61-100c.72-3.79.66-7-1.54-10.31-2.55-3.83-4.68-8-7.33-12.54-3.89,3.64-7.31,6.66-10.48,9.93a7.25,7.25,0,0,0-1.72,4.1c-.62,6.11-.93,12.25-1.47,18.37q-3.3,37.33-6.66,74.66c-.51,5.55-1.17,11.07-1.79,16.88l-18.69-.85c0-8.82-.15-17.24.09-25.65a20,20,0,0,1,1.94-8c5.3-10.72,10.92-21.28,16.32-32a14.61,14.61,0,0,0,1.46-5c1.45-13.25,2.79-26.51,4.13-39.76.1-.91.37-2.1-.07-2.71-3.16-4.35-6.48-8.58-10.07-13.27-3.49,4.08-6.73,7.59-9.6,11.37a10.28,10.28,0,0,0-2.07,5.55c-.39,22.08-.61,44.16-.86,66.24,0,1.22,0,2.44,0,3.7l-5.24.52c0-1.58,0-2.81,0-4q-.25-32.34-.55-64.68c0-1.62-.07-3.57-.93-4.8-3-4.33-6.4-8.41-10.15-13.23-3.17,4-6.13,7.3-8.6,11a9.92,9.92,0,0,0-1.54,5.76c.74,12.06,1.6,24.11,2.77,36.13a26.91,26.91,0,0,0,2.85,9.35c5.33,10.48,11,20.79,16.45,31.2a9.37,9.37,0,0,1,1.16,4.09c0,8.55-.11,17.09-.21,25.63a23.16,23.16,0,0,1-.3,2.46l-17,.9a27.42,27.42,0,0,1-.61-2.85c-1.72-17.72-3.46-35.44-5.12-53.16-1.69-17.93-3.26-35.87-5-53.8a8,8,0,0,0-1.8-4.47c-2.56-2.72-5.47-5.1-8.26-7.59-1.52-1.36-2.79-1.06-3.79.68-2.17,3.79-4.49,7.5-6.46,11.4a8.39,8.39,0,0,0-.82,5c2.25,12.27,4.78,24.5,7.07,36.77q6.3,33.75,12.42,67.52c.5,2.75-.52,3.79-3.18,2.94a4.12,4.12,0,0,1-2-2.82q-9.84-49.59-19.56-99.2c-.4-2-.6-4.49-1.87-5.82-3.83-4-8.14-7.62-12.74-11.81-2.53,4.1-4.89,7.41-6.64,11a9.77,9.77,0,0,0-.75,6.13c1.86,7.78,4.13,15.47,6.23,23.19q10.86,40,21.76,80.08c.62,2.26.24,3.54-2,4.36-3.11,1.16-6.21,2.35-9.29,3.61-2.07.84-3.18.23-4-1.87-2.93-7.34-6-14.6-9-21.93A7.55,7.55,0,0,1,608,199c.74-9.45,1.68-18.88,2.3-28.33.36-5.46,1.31-11.2.08-16.37-3.12-13.14-7.29-26-11.09-39-.28-.95-.68-2.19-1.42-2.63-4.35-2.57-8.82-5-13.78-7.7-1.72,5.23-3.4,9.79-4.65,14.46a9.66,9.66,0,0,0,.25,5.61q12,30.65,24.27,61.18c.92,2.3.83,4.08-1.62,5.15-2.9,1.27-3-1.33-3.66-2.87-7.82-19-15.8-38-23.27-57.21-3.32-8.52-11.23-9.89-18.11-14.19-1.56,4.66-3,8.54-4.1,12.53a6.72,6.72,0,0,0,.39,4.33c3.74,7.78,8.11,15.28,11.43,23.23,4.91,11.74,12,21.46,22.72,28.47,1.56,1,2.79,2.54,4.36,3.54,10.73,6.86,17.17,16.68,20.87,28.75,3.54,11.54,6,8.53-5.72,14.9-9.1,5-7,4.79-11.94-3.33-.11-.18-.21-.37-.3-.55q-21.69-42.71-43.37-85.42c-5.2-10.24-5.19-10.24-16.38-12.74l-.6-.17c-1.82-.54-2.67.08-2.89,2-.41,3.62-1,7.22-1.59,10.81a9,9,0,0,0,1.33,6.77q24.16,38.1,48.15,76.32c2.72,4.31,5.24,8.75,7.8,13.16.8,1.37,1.64,2.95-.28,4.06s-3.58.77-4.65-1.38a22.05,22.05,0,0,0-1.32-2.12Q554,197.71,526.67,155.12c-.7-1.1-1.58-2.46-2.69-2.88-5-1.89-10.14-3.5-15.91-5.44-.79,4.57-1.39,8.42-2.15,12.25a7.35,7.35,0,0,0,1.54,6.34Q538,206,568.31,246.65c6.85,9.18,6.66,9.62-2.72,16.61-1.85,1.38-3.18,1.39-4.79-.33-6.14-6.53-12.4-12.93-18.53-19.46a8.46,8.46,0,0,1-1.62-3.29c-3-10.07-5.81-20.19-8.85-30.24-.92-3.06-1.77-6.39-3.61-8.88-8.25-11.12-16.83-22-25.34-32.91A5.57,5.57,0,0,0,500,166c-4.87-.82-9.79-1.36-14.94-2,.47,5.91.77,11.2,1.39,16.44a8.71,8.71,0,0,0,2,4.61c12.73,13.48,25.59,26.84,38.38,40.26,2.51,2.64,5,5.32,7.26,8.17.57.72.25,2.16.34,3.27-1.11,0-2.55.46-3.29-.06a47.56,47.56,0,0,1-6.38-5.48c-12.37-12.67-24.89-25.21-36.89-38.22-4.22-4.58-8.67-6.75-14.78-6.8-8.9-.08-8.13-1.59-8,7.91a14.38,14.38,0,0,0,5.2,11.42c8.9,7.7,17.5,15.74,26.33,23.52a16.62,16.62,0,0,0,5.55,3.31c11.63,3.9,23.33,7.6,35,11.4a7.88,7.88,0,0,1,3.31,1.56q9.71,10.38,19.16,21c.48.55.82,1.95.48,2.39-3.21,4.15-6.57,8.18-10,12.39-3.43-2.79-6.31-5-9.07-7.39-24.29-20.95-48.73-41.74-72.73-63-6.62-5.88-13.28-5-21.12-3.22,1.27,5,2.35,10,3.83,14.82a9.39,9.39,0,0,0,3.08,4.4c4.52,3.5,9.27,6.72,13.93,10q34.35,24.47,68.68,48.93c.94.67,1.76,1.52,3.12,2.72-4,.85-7.12.74-10-1.09-3.35-2.11-6.73-4.16-10-6.42q-34.61-24.07-69.21-48.17a8.63,8.63,0,0,0-4.84-1.52c-3.94.11-7.86.76-11.8,1.08-2,.16-2.8.9-2.3,3a62.28,62.28,0,0,1,1.5,7.65c.47,4.08,2.7,6.36,6.25,8.42,19,11.06,37.75,22.42,56.58,33.71a35.62,35.62,0,0,1,3.45,2.7l-.28.81-6.44,1.06c-.39,3.18-.75,6.18-1.12,9.19l-1.11.43c-1.2-1.38-2.44-2.74-3.6-4.16-4.51-5.59-9-11.22-13.52-16.79a11.38,11.38,0,0,0-2.87-2.8q-18.68-10.69-37.46-21.24c-.89-.5-2-1.24-2.86-1-4.56,1.2-9.05,2.66-14,4.16,2.7,5.45,4.94,10.25,7.46,14.9a7.93,7.93,0,0,0,3.45,3.21c8.14,3.69,16.41,7.11,24.57,10.77,11.67,5.24,23.28,10.6,34.91,15.92,1.37.62,2.77,1.32,2,3.23s-2.19,2.35-4.07,1.53c-1-.46-2.15-.78-3.2-1.22q-28-11.91-56-23.82c-1.42-.6-3.11-1.56-4.4-1.25-5.09,1.25-10.08,2.94-15.5,4.59,2.21,4.63,4,8.72,6.12,12.61a7.13,7.13,0,0,0,3.52,3.05c11.07,3.94,22.3,7.44,33.28,11.6,5.49,2.08,10.81,2.21,16.46,1.53,8.06-1,16.16-1.54,24.25-2.29,1.43-.13,2.82-.2,2.82,1.84,0,5.59,0,11.18,0,17.53-3.27-.72-6.32-1.15-9.2-2.09-22.94-7.44-45.85-15-68.78-22.49-1.06-.35-2.43-1-3.24-.67-4.38,2-8.64,4.3-13.35,6.7,3.22,4.42,6.08,8.24,8.81,12.16a9.69,9.69,0,0,0,6.33,4.05c18.91,4.07,37.79,8.26,56.68,12.43,6.81,1.5,13.6,3.08,20.41,4.53,2.5.53,2.76,2.12,2.41,4.19-.38,2.36-2,1.53-3.36,1.32-.72-.11-1.43-.26-2.14-.41q-38.31-8.14-76.61-16.27a5.9,5.9,0,0,0-3.59.15c-4.8,2.46-9.49,5.14-14.42,7.86,1.87,2.66,3.66,5.06,5.3,7.56a14.36,14.36,0,0,0,11.29,7c22,2.51,44,5.62,65.95,8.53,5.74.76,11.48,1.57,17.18,2.35V386c-5.7.58-10.91-.08-15.85-2.85-9.72-5.43-19.51-10.72-29.31-16a12,12,0,0,0-4.08-1.4q-19.83-2.46-39.68-4.73a4.35,4.35,0,0,0-2.87.56c-3.87,3-7.62,6.1-11.9,9.58,4.21,3.77,8.27,7.31,12.2,11a7.6,7.6,0,0,0,5.57,2.14c19.89.18,39.78.49,59.67.78,2.35,0,4.7.21,7.06.32V390h-3.81c-20.62-.07-41.25-.07-61.87-.27a10.93,10.93,0,0,0-8.37,3.07c-3.11,3-6.57,5.57-10,8.42,2.14,2,4.08,3.64,5.73,5.5,3.6,4.06,7.94,5.62,13.37,5.16,12.14-1.05,24.3-1.79,36.44-2.73a8.51,8.51,0,0,0,3.17-1.13q15.68-8.4,31.32-16.87c4.32-2.32,8.9-2.23,13.54-1.77v19.8c-4.07.42-8,.9-11.9,1.23l-76.89,6.3a3.37,3.37,0,0,0-2,.59c-3.5,3.78-6.91,7.64-10.74,11.93,5.89,3.52,11.1,6.7,16.39,9.75a4,4,0,0,0,2.41-.05q35.86-6.87,71.71-13.78c3.53-.67,7.08-1.17,10.88-1.79v5.21c-1,.24-1.94.48-2.85.66-10.83,2.09-21.66,4.13-32.48,6.27-14.28,2.83-28.58,5.58-42.8,8.72a19.29,19.29,0,0,0-8.67,4.48c-3.13,2.93-5.41,6.78-8.22,10.45,4.06,2.57,7.83,5.14,11.8,7.39a6.63,6.63,0,0,0,4.52.7c15.24-4.18,30.42-8.57,45.64-12.8,9.92-2.76,19.88-5.35,29.84-8,1.34-.36,3.2-1.16,3.28,1.26.15,5.16,0,10.34,0,15.77-1.27,0-2.4.09-3.51,0-7-.68-14.08-1.46-21.13-2.1-4.54-.41-9.37-1.78-13.58-.74-13.71,3.39-27.21,7.67-40.77,11.67a4.43,4.43,0,0,0-2.45,1.66c-2.46,4.31-4.76,8.72-7.33,13.49,5.18,1.84,10,3.72,14.94,5.19a9.14,9.14,0,0,0,5.55-.18c19.14-7.58,38.21-15.34,57.31-23a16.19,16.19,0,0,1,4.14-1.31,2.92,2.92,0,0,1,2.42,1.21,2.86,2.86,0,0,1-.69,2.6,15.81,15.81,0,0,1-4.07,2.25c-19,8-38,15.88-57,23.87a6.64,6.64,0,0,0-3.14,2.27c-2.27,3.85-4.21,7.89-6.37,11.81-.92,1.67-.59,2.72,1.16,3.39,3.39,1.3,6.73,2.8,10.2,3.82a7.29,7.29,0,0,0,4.88-.28c12.09-6,24.1-12.25,36.1-18.48a11.23,11.23,0,0,0,3.31-2.71c5.6-6.72,11.09-13.52,16.67-20.27a26.48,26.48,0,0,1,2.82-2.55c.33.86.6,1.22.59,1.59,0,4,1.26,5,6.06,5.21,2.53.1,5.05.31,7.58.46l.29,1c-2.63,1.72-5.19,3.58-7.92,5.13q-31.21,17.71-62.48,35.35c-1,.57-2.32,1.42-2.61,2.4-1.16,3.88-2,7.86-2.9,11.8-.45,1.89.15,2.94,2.24,3.15,4,.4,8.08.82,12.08,1.5a6.7,6.7,0,0,0,5.47-1.33Q483.62,517,517.57,492.8c4.66-3.31,9.49-6.4,14.32-9.47C534.15,481.88,536.64,481.37,540,483Z" transform="translate(-314.91 -16.35)"/><path d="M436.41,216.16c-.1,2.37-2.1,3.66-3.85,2.93a14.74,14.74,0,0,1-2.68-1.56q-13.45-9.27-26.87-18.61a9,9,0,0,1-3-3,4,4,0,0,1,.2-3.53,3.44,3.44,0,0,1,3.36-.27c10.54,7.37,21,14.88,31.42,22.41A7.65,7.65,0,0,1,436.41,216.16Z" transform="translate(-314.91 -16.35)"/><path d="M497,97.46c3.35,5,6.7,9.7,9.84,14.58,4.11,6.38,8,12.86,12,19.31.72,1.16,1.66,2.7-.16,3.38a8.34,8.34,0,0,1-4.47-.16c-.62-.15-1.08-1.21-1.52-1.91-6.13-9.66-12.28-19.3-18.33-29C492.28,100.23,492.64,99.44,497,97.46Z" transform="translate(-314.91 -16.35)"/><path d="M407,268.08c.08,3.37-1.33,4.54-3.72,3.52-11-4.67-21.89-9.46-32.82-14.24-.74-.33-1.7-.77-2-1.41a18.75,18.75,0,0,1-.88-3.78c1.11-.16,2.42-.79,3.32-.42q17.13,7,34.12,14.34C406,266.5,406.59,267.69,407,268.08Z" transform="translate(-314.91 -16.35)"/><path d="M873.38,670.78c-.93.71-1.8,1.86-2.82,2a3.74,3.74,0,0,1-3-1.24c-3.48-5.16-6.82-10.41-10.07-15.72-3-4.87-5.77-9.85-8.66-14.76-1-1.77-1.09-3.49.66-4.68,1.91-1.31,3.22.21,4.08,1.6,6.41,10.29,12.73,20.65,19.07,31A15.44,15.44,0,0,1,873.38,670.78Z" transform="translate(-314.91 -16.35)"/><path d="M554.75,67.56c.5.44,1.88,1.1,2.29,2.13Q564,87,570.56,104.47A3.52,3.52,0,0,1,570,107a7.18,7.18,0,0,1-3.92-.61c-.92-.59-1.39-2-1.85-3.17q-6.36-15.7-12.61-31.46C550.49,68.92,551.36,67.55,554.75,67.56Z" transform="translate(-314.91 -16.35)"/><path d="M390.89,325.27c0,3.05-.54,4.58-3.28,4q-18.74-3.93-37.51-7.75c-2.52-.52-2.65-2.39-2.3-4.31.41-2.25,2.11-1.48,3.48-1.2,12.52,2.54,25,5.08,37.52,7.73C389.73,323.94,390.49,325,390.89,325.27Z" transform="translate(-314.91 -16.35)"/><path d="M814.64,702c-.66.56-1.37,1.63-2.24,1.77a5.32,5.32,0,0,1-3.15-.89c-.52-.3-.71-1.23-1-1.9q-5.85-15.62-11.68-31.22a6.45,6.45,0,0,1-.73-2.67,3.42,3.42,0,0,1,1.38-2.43,2.93,2.93,0,0,1,2.7.48,12.36,12.36,0,0,1,2.41,4c3.9,10.07,7.71,20.17,11.54,30.27C814.15,700,814.29,700.74,814.64,702Z" transform="translate(-314.91 -16.35)"/><path d="M963.88,579.62a22.86,22.86,0,0,1-3.39-1.56c-9.36-6.56-18.67-13.18-28-19.75-1.74-1.22-1-2.45-.18-3.71s1.8-2,3.33-.92c9.56,6.81,19.17,13.55,28.63,20.5,1,.72,1.27,2.58,1.52,4C965.83,578.52,964.54,579.13,963.88,579.62Z" transform="translate(-314.91 -16.35)"/><path d="M932.27,218.81c-.71-.69-1.94-1.33-2.12-2.18a3.48,3.48,0,0,1,1.21-2.81c5-3.87,10.09-7.68,15.26-11.35,5-3.55,10.15-6.88,15.2-10.36,1.42-1,2.86-1.3,3.59.45.39.92.18,2.83-.48,3.32-10,7.41-20.15,14.67-30.28,21.94A12.85,12.85,0,0,1,932.27,218.81Z" transform="translate(-314.91 -16.35)"/><path d="M519.7,639.09a53.12,53.12,0,0,1-2.51,5.27c-5.9,9.67-11.89,19.28-17.8,28.94-.94,1.54-2,2-3.58,1s-2.34-2-1.23-3.79q9.82-15.72,19.67-31.44a5.38,5.38,0,0,1,2-1.92,2.81,2.81,0,0,1,2.29,0C519.09,637.48,519.32,638.41,519.7,639.09Z" transform="translate(-314.91 -16.35)"/><path d="M982.68,388.1v-4.89H1024v4.89Z" transform="translate(-314.91 -16.35)"/><path d="M614.68,50.32c.34-.33.93-1.4,1.63-1.48a3.59,3.59,0,0,1,2.87.95,9,9,0,0,1,1.4,3.76c2.19,11.22,4.3,22.45,6.48,33.67.37,1.9.29,3.24-2.07,3.6s-3-.54-3.41-2.73c-2.08-11.66-4.33-23.3-6.52-34.95C614.93,52.43,614.86,51.7,614.68,50.32Z" transform="translate(-314.91 -16.35)"/><path d="M739.77,684c1-1,1.75-2.45,2.87-2.83,2.14-.71,2.8.92,3.14,2.77,2.16,11.66,4.42,23.3,6.48,35,.19,1.08-.49,3-1.33,3.43a2.49,2.49,0,0,1-3.75-2C744.74,708.48,742.32,696.57,739.77,684Z" transform="translate(-314.91 -16.35)"/><path d="M348.24,450.32c12.61-2.18,25.07-4.41,37.57-6.39a5,5,0,0,1,3.93,1.85c.82,1.13.48,2.61-1.7,3-12.46,2.26-24.9,4.67-37.33,7.09-2.24.43-3.2-.18-2.82-2.51C348,452.54,348.08,451.72,348.24,450.32Z" transform="translate(-314.91 -16.35)"/><path d="M976.65,329.11c-1-5.38-1-5.45,3.23-6.38q16.29-3.62,32.61-7.09c4.67-1,5.12-.52,5,4.76Z" transform="translate(-314.91 -16.35)"/><path d="M872.12,100.84a13.34,13.34,0,0,1-.91,2.06q-9.8,15.51-19.68,31c-.81,1.28-1.75,2.87-3.67,1.42-1.64-1.24-1.59-2.71-.54-4.36,6.25-9.8,12.46-19.63,18.72-29.42A9,9,0,0,1,868.35,99,2.34,2.34,0,0,1,872.12,100.84Z" transform="translate(-314.91 -16.35)"/><path d="M1017,455.18c-5.08-.93-10.08-1.8-15.07-2.76-7.35-1.41-14.68-2.88-22-4.32-1.78-.34-3.23-.92-2.93-3.2.32-2.47,2.22-2.3,3.79-2,10.35,1.72,20.68,3.57,31,5.38l2.14.4C1018.88,449.55,1019.05,449.86,1017,455.18Z" transform="translate(-314.91 -16.35)"/><path d="M963.77,500.24c2.9,1.08,5.46,1.95,8,3,8.17,3.36,16.32,6.79,24.49,10.13,2,.83,3.16,2,2.27,4.28s-2.63,1.86-4.37,1.15c-10-4.07-20-8.16-30-12.19-2.29-.92-3-2.45-2.07-4.65C962.31,501.22,963.19,500.77,963.77,500.24Z" transform="translate(-314.91 -16.35)"/><path d="M435.7,557.13a7.9,7.9,0,0,1-1.42,1.73c-9.57,7-19.13,14-28.8,20.8-1.3.92-3.3,2.82-4.85.52s.46-3.75,2-4.88q14.41-10.39,28.95-20.62C433.39,553.44,435.52,554.57,435.7,557.13Z" transform="translate(-314.91 -16.35)"/><path d="M686.07,729.23h-5.19V687.67h5.19Z" transform="translate(-314.91 -16.35)"/><path d="M685.37,84.11h-5.19V42.61h5.19Z" transform="translate(-314.91 -16.35)"/><path d="M384.3,384.32V389H341.41v-5.8Z" transform="translate(-314.91 -16.35)"/><path d="M738.6,87.88q2.71-14.7,5.42-29.38c.49-2.65.89-5.33,1.62-7.92.25-.9,1.36-1.55,2.07-2.32a24.18,24.18,0,0,1,2.95,3c.32.44,0,1.41-.15,2.12q-3.19,17.13-6.42,34.26c-.29,1.52-.47,3.13-2.64,3.23S738.28,90.15,738.6,87.88Z" transform="translate(-314.91 -16.35)"/><path d="M474.12,602.42a16.2,16.2,0,0,1-1.65,2.78c-8.07,8.66-16.14,17.31-24.34,25.84-.78.82-2.46.77-3.71,1.12,0-1.32-.5-3.15.18-3.9,8.16-9.1,16.48-18.07,24.85-27a4.15,4.15,0,0,1,3.07-.73C473.06,600.6,473.52,601.68,474.12,602.42Z" transform="translate(-314.91 -16.35)"/><path d="M615.36,720.83c1.4-7.55,2.78-15.1,4.21-22.65.93-4.89,2-9.77,2.86-14.67.28-1.53.38-2.88,2.57-2.48s2.63,1.81,2.35,3.65c-.76,5-1.53,10.05-2.43,15.06-1.23,6.84-2.58,13.66-3.89,20.49-.33,1.73-.93,3.2-3.08,3.26C616.06,723.55,615.23,722.75,615.36,720.83Z" transform="translate(-314.91 -16.35)"/><path d="M471.68,173.79a20.51,20.51,0,0,1-3.12-2q-13-13.29-25.89-26.65c-1.3-1.34-1.47-3,.16-4a3.57,3.57,0,0,1,3.31.61c8,7.92,15.84,16,23.67,24a11.69,11.69,0,0,1,2.76,4.1C472.9,170.81,472.1,172.14,471.68,173.79Z" transform="translate(-314.91 -16.35)"/><path d="M367.46,517.13a17,17,0,0,1,3.56-2.67c6.53-2.91,13.13-5.65,19.74-8.38,3.64-1.51,7.34-2.86,11-4.35,1.82-.74,3.41-.46,4.27,1.25,1,2.06-.87,2.84-2.19,3.39-11.16,4.72-22.36,9.35-33.56,14C368.28,521.16,367.27,520.38,367.46,517.13Z" transform="translate(-314.91 -16.35)"/><path d="M553.5,702.71c.49-1.59.81-2.8,1.24-4q5.37-14.61,10.8-29.2a11.82,11.82,0,0,1,2-3.86,3.58,3.58,0,0,1,3-.9c.59.17,1.29,1.89,1.08,2.68-.88,3.3-2,6.55-3.2,9.76q-4.41,11.82-9,23.57a8.84,8.84,0,0,1-1.8,3.22,3.27,3.27,0,0,1-2.71.5C554.27,704.33,553.89,703.25,553.5,702.71Z" transform="translate(-314.91 -16.35)"/><path d="M997.6,254.09c-.43.46-1.13,1.76-2.19,2.23q-16.49,7.35-33.1,14.4a2.93,2.93,0,0,1-2.73-.93,3.53,3.53,0,0,1,.56-3A6.83,6.83,0,0,1,963,265c10.36-4.54,20.73-9.07,31.13-13.51C996.75,250.31,997.67,250.9,997.6,254.09Z" transform="translate(-314.91 -16.35)"/><path d="M795.16,105.34c.67-2.11,1.13-3.82,1.77-5.46q5.58-14.22,11.24-28.4c.42-1,.81-2.36,1.64-2.93a4.37,4.37,0,0,1,3.3-.38c.48.12,1.06,1.78.81,2.44q-6.69,17.3-13.64,34.48a4.26,4.26,0,0,1-1.82,2,2.87,2.87,0,0,1-2.35-.06C795.56,106.75,795.38,105.78,795.16,105.34Z" transform="translate(-314.91 -16.35)"/><path d="M924,143.15a18.29,18.29,0,0,1-1.51,2.19q-11.73,12.48-23.52,24.91c-.5.53-1.06,1.21-1.69,1.34a21.87,21.87,0,0,1-3.63.16c.13-1.13-.13-2.57.47-3.33,2.55-3.27,5.23-6.46,8.09-9.46,5.59-5.86,11.3-11.62,17.05-17.32a3.5,3.5,0,0,1,2.87-.87C922.86,141,923.32,142.26,924,143.15Z" transform="translate(-314.91 -16.35)"/><path d="M923.58,628.73c-.55.8-.92,1.91-1.47,2a3.52,3.52,0,0,1-2.74-.64c-4-3.9-8.07-7.83-11.9-11.93-4.26-4.56-8.3-9.33-12.46-14-1.28-1.43-1.81-2.81-.21-4.32s2.88-.37,3.94.79q11.6,12.65,23.12,25.36A19.35,19.35,0,0,1,923.58,628.73Z" transform="translate(-314.91 -16.35)"/><path d="M494.73,478.33V291.6h380V478.33Zm40.48-164.57V456.58c-5.13.87-10.34-.78-15.23,1.6,1,2.68,3.13,2.28,4.84,2.28,17.9.05,35.81.38,53.7-.14,12.93-.38,22.77-6.94,29-18.31a40.16,40.16,0,0,0-24.85-58.27,28.73,28.73,0,0,1-3-1.17l-.07-.88c1.52-.72,3-1.54,4.58-2.12,14.23-5.23,22.76-15.28,24.2-30.38,1.49-15.67-4.31-32.44-24.68-37.86a41.62,41.62,0,0,0-9.54-1.38c-15.62-.39-31.24-.6-46.85-.84a24.29,24.29,0,0,0-5,.23c-.83.16-2,1-2.12,1.67s.87,1.71,1.63,2.18a5.41,5.41,0,0,0,2.71.54C528,313.79,531.55,313.76,535.21,313.76Zm294.92-.5c-8.66,35.35-16.57,70.65-26.86,105.43a12.82,12.82,0,0,1-2-4.38Q789,365.6,776.85,316.89c-1.1-4.4-.88-4.45,3.69-4.55,3.22-.07,6.45-.21,9.65-.48.67-.05,1.28-.78,1.91-1.21a8.32,8.32,0,0,0-1.52-1.75,3.38,3.38,0,0,0-1.82-.31q-21.39,0-42.78.07c-.73,0-1.46.75-2.19,1.15.62.62,1.16,1.65,1.86,1.78a47.33,47.33,0,0,0,8,.89c2.39,0,3.33.88,3.91,3.25q17.79,71.59,35.81,143.13c.42,1.64,1.66,3.07,2.51,4.6.87-1.53,2.15-3,2.55-4.62q17.12-70.63,34-141.32c1.16-4.85,1.14-4.78,6.22-5.09,2.47-.15,4.92-.6,7.38-.91l.15-1.46c-1.18-.51-2.36-1.43-3.55-1.46-8.11-.18-16.23-.2-24.35-.18a28.82,28.82,0,0,0-4.46.68l-.06,1.08C818.39,314.4,824.71,310.86,830.13,313.26Zm-118.79,4.3-4.62-3.76c-13.41-11-29.58-10.63-42.05,1.34a61,61,0,0,0-10.25,12.5c-17.28,29-20.61,59.74-10.26,91.87,3.76,11.66,8.87,22.74,17.33,31.83,7.69,8.24,16.86,13.63,28.71,12.29,7.19-.8,13.14-4.32,18.48-9,4-3.56,4.49-3.43,7.51,1.05,1.35,2,2.77,4,4.41,6.3.44-.91.67-1.16.67-1.41.21-13.53.43-27.06.51-40.59,0-.88-1.07-1.77-1.64-2.66-.64.72-1.59,1.35-1.85,2.19-1.41,4.57-2.52,9.23-4,13.78-2.26,7.07-5.34,13.69-10.35,19.39-6.61,7.51-24.68,10.51-33.4-.52-6.41-8.12-8.94-17.24-9.15-27-.55-25.39-.64-50.8-.62-76.2a61.28,61.28,0,0,1,5.54-24.51c7-16,25.13-19.65,37.47-7.17a39,39,0,0,1,7.9,11.82c2.34,5.49,3.46,11.5,5.16,17.28.43,1.48,1,2.92,1.75,4.87,2.88-4.72,2.67-39.47-.07-42.85C716.2,311.36,713.92,314.27,711.34,317.56Z" transform="translate(-314.91 -16.35)"/><path d="M811.09,483.22C776.23,530,729.87,552.39,671.85,549c-49.38-2.86-87.59-26.41-116.78-65.9Q683.19,481,811.09,483.22Z" transform="translate(-314.91 -16.35)"/><path d="M556.47,287a153.46,153.46,0,0,1,33.77-33.63c27-19.39,57.24-29.77,90.59-30.25,33.07-.48,63.55,8.26,90.94,27a147.06,147.06,0,0,1,38.52,37.76c-4,.28-7,.65-10,.68-15.93.14-31.86.28-47.79.27q-92.15-.06-184.29-.24c-3.73,0-7.46-.32-11.18-.49Z" transform="translate(-314.91 -16.35)"/><path d="M541.92,143.62a8.4,8.4,0,0,1,2.13,1.84c6.72,10.63,13.34,21.32,20,32,1,1.61.42,2.68-1,3.65s-2.62.87-3.63-.71c-6.9-10.76-13.88-21.47-20.73-32.26C537.41,146.06,538.93,143.69,541.92,143.62Z" transform="translate(-314.91 -16.35)"/><path d="M461.29,216.26a20.79,20.79,0,0,1,2.38,1.22c9.81,6.82,19.62,13.64,29.36,20.55a4.71,4.71,0,0,1,2,2.89c.22,2.73-2.22,4.06-4.5,2.49q-14.64-10-29.17-20.28c-1.76-1.24-3.63-2.84-2-5.42C459.78,217.09,460.63,216.75,461.29,216.26Z" transform="translate(-314.91 -16.35)"/><path d="M542.79,194.16c-.54.49-1.06,1.34-1.68,1.43a5.24,5.24,0,0,1-3.38-.34,11.25,11.25,0,0,1-2.76-3.33q-8.9-13.75-17.72-27.57c-1.12-1.75-2.07-3.67.19-5.17s3.78,0,4.9,1.73q9.81,15.59,19.51,31.23C542.17,192.66,542.37,193.26,542.79,194.16Z" transform="translate(-314.91 -16.35)"/><path d="M924.44,529.77c-.05,3.46-1.68,4.57-3.79,3.12-10.45-7.15-20.82-14.4-31.22-21.62-2.1-1.45-1.09-3-.16-4.57s2.17-1.11,3.37-.27c10,6.95,19.92,13.88,29.83,20.91A9.62,9.62,0,0,1,924.44,529.77Z" transform="translate(-314.91 -16.35)"/><path d="M907.23,556.46a20.68,20.68,0,0,1-2.41-1.22c-9.91-7.21-19.83-14.39-29.63-21.73a4.25,4.25,0,0,1-1.32-3.58c.49-2,2.07-2.3,3.86-1.07,4.88,3.36,9.84,6.59,14.68,10,5.35,3.76,10.65,7.6,15.85,11.56a3.63,3.63,0,0,1,1.12,3C909.12,554.54,908,555.46,907.23,556.46Z" transform="translate(-314.91 -16.35)"/><path d="M829.35,625.34a11.31,11.31,0,0,1-2.73,2.39,2.74,2.74,0,0,1-2.47-1C817.25,615.92,810.4,605,803.72,594c-.46-.75.09-2.61.8-3.39.42-.46,2.29-.15,3.1.4a11.09,11.09,0,0,1,2.83,3.28q8.91,14.25,17.72,28.57C828.55,623.49,828.8,624.18,829.35,625.34Z" transform="translate(-314.91 -16.35)"/><path d="M479.76,263c-.3,2.68-1.26,3.66-3.23,2.69a52,52,0,0,1-6.54-3.61c-8.23-5.65-16.35-11.46-24.58-17.11-1.94-1.33-2.46-2.65-1.13-4.62s2.83-1.42,4.31-.39c9.57,6.63,19.15,13.26,28.65,20A13.49,13.49,0,0,1,479.76,263Z" transform="translate(-314.91 -16.35)"/><path d="M804.8,639.11c-.59.56-1.37,1.89-2.19,1.91-1.15,0-3-.6-3.38-1.47-2.44-5.5-4.61-11.13-6.78-16.75-2.27-5.91-4.44-11.87-6.66-17.8-.72-1.92-.94-3.59,1.45-4.61s2.89.92,3.46,2.36Q797.41,619.36,804,636C804.27,636.79,804.4,637.62,804.8,639.11Z" transform="translate(-314.91 -16.35)"/><path d="M780.39,649.08a12,12,0,0,1-2.7,2c-1.66.65-2.66-.31-3.26-1.91-3.54-9.33-7.15-18.63-10.69-28a76,76,0,0,1-2.68-8c-.2-.78.52-2.53,1-2.62a4.49,4.49,0,0,1,3.41.8,10.79,10.79,0,0,1,2,3.83q5.84,14.61,11.6,29.25C779.59,645.76,779.84,647.1,780.39,649.08Z" transform="translate(-314.91 -16.35)"/><path d="M419.74,292.18c0-3.38,1.36-4.47,3.71-3.47,11.27,4.75,22.49,9.61,33.75,14.38,2,.85,2.69,2.07,1.82,4.13s-2.59,1.85-4.18,1.2q-12.1-4.89-24.16-9.93c-3-1.25-5.87-2.62-8.7-4.14A9.51,9.51,0,0,1,419.74,292.18Z" transform="translate(-314.91 -16.35)"/><path d="M908.69,468.31c.09-3.25,1.46-4.39,3.85-3.45C924,469.37,935.47,474,947,478.59c1.85.74,2.34,1.9,1.53,3.66-.72,1.58-1.74,2.55-3.67,1.77-11.54-4.67-23.1-9.3-34.62-14C909.43,469.67,909,468.63,908.69,468.31Z" transform="translate(-314.91 -16.35)"/><path d="M828.58,574.66a12,12,0,0,1,1.9,1.84q10,15.94,20,32c.88,1.42,1.21,2.95-.54,4.08-1.91,1.23-3.06.2-4.06-1.38-6.57-10.34-13.18-20.66-19.68-31a4.17,4.17,0,0,1-.31-3.31C826.25,575.91,827.55,575.42,828.58,574.66Z" transform="translate(-314.91 -16.35)"/><path d="M566.2,131.18a11,11,0,0,1,2.69,2.95c2.52,5.45,4.86,11,7.1,16.57,2.12,5.29,4.06,10.65,6,16,.64,1.75,1.43,3.59-1.24,4.6-2.45.92-3.4-.41-4.15-2.36-4.45-11.5-8.94-23-13.37-34.49C562.6,132.77,562.23,131.06,566.2,131.18Z" transform="translate(-314.91 -16.35)"/><path d="M432.28,263.77c1.13.36,1.94.56,2.7.88,10.69,4.54,21.39,9.06,32,13.66,1.62.7,3.74,1.29,2.49,4-1.11,2.39-2.69,2.45-4.82,1.52-9.7-4.23-19.43-8.37-29.1-12.65a17.52,17.52,0,0,1-4.63-3.07,3.25,3.25,0,0,1-.48-2.76C430.69,264.68,431.72,264.23,432.28,263.77Z" transform="translate(-314.91 -16.35)"/><path d="M608.18,159.7a11.18,11.18,0,0,1-3,.92,7.08,7.08,0,0,1-3.37-.71c-.61-.32-.9-1.36-1.21-2.12-4.36-10.89-8.73-21.77-13-32.69-.6-1.52-1.77-3.43.85-4.42,2.19-.84,3.25.43,4,2.25q6.9,16.68,13.82,33.35c.27.66.41,1.39.62,2.08Z" transform="translate(-314.91 -16.35)"/><path d="M901.33,489.18c4.2,1.59,7.82,2.88,11.37,4.32,8,3.23,15.92,6.55,23.89,9.8,2,.81,3.16,1.83,2.21,4.23s-2.58,1.85-4.3,1.15L901,495.23c-1.56-.63-2.94-1.47-1.94-3.4A14.67,14.67,0,0,1,901.33,489.18Z" transform="translate(-314.91 -16.35)"/><path d="M446.66,356c-10.41-2.18-20.18-4.22-29.94-6.28a54.85,54.85,0,0,0-6.69-1.47c-3.15-.25-2.67-2.44-2.53-4.28.17-2.38,2.15-1.6,3.38-1.35,11.93,2.38,23.83,4.89,35.76,7.28,2.65.54,2.17,2.54,2,4.13C448.55,354.79,447.27,355.42,446.66,356Z" transform="translate(-314.91 -16.35)"/><path d="M722.5,664.13c-2.5-13-5-25.73-7.31-38.48-.21-1.18.49-3.36,1.36-3.75,2.2-1,3.47.71,3.88,2.75,2.51,12.4,5,24.81,7.34,37.24.12.62-1,1.8-1.78,2.15S724,664.13,722.5,664.13Z" transform="translate(-314.91 -16.35)"/><path d="M753.7,656.3c.2,2.36-1.56,2.45-3.08,2.79-1.75.39-2.3-.45-2.6-2.11-2.12-11.65-4.36-23.28-6.53-34.92a29.19,29.19,0,0,1-.25-3.11c-.13-1.76.62-2.7,2.44-2.91s2.32.88,2.62,2.34c1.64,8.15,3.34,16.28,5,24.43C752.14,647.3,752.89,651.8,753.7,656.3Z" transform="translate(-314.91 -16.35)"/><path d="M805.58,181.73c-3,0-4.54-2.2-3.3-4.22,6.52-10.62,13.18-21.17,19.8-31.74.27-.43.62-1,1-1.12,1-.34,2.3-.91,3-.52s1,2,.69,2.83a44.2,44.2,0,0,1-3.56,7.24c-5.37,8.66-10.85,17.25-16.31,25.86A15.25,15.25,0,0,1,805.58,181.73Z" transform="translate(-314.91 -16.35)"/><path d="M913.66,449c.11-4.19.72-5,4.54-4.37,10.57,1.7,21.09,3.64,31.64,5.48,1,.18,2,.41,3.07.49,2.29.17,3,1.36,2.7,3.55s-1.52,2.51-3.5,2.14c-12.06-2.23-24.13-4.36-36.2-6.55A15.6,15.6,0,0,1,913.66,449Z" transform="translate(-314.91 -16.35)"/><path d="M445.1,534.67c-.9-.77-2-1.28-2.28-2.07a3.07,3.07,0,0,1,.69-2.66,82.66,82.66,0,0,1,7.46-6.16c7.69-5.52,15.46-10.92,23.21-16.37,1.33-.93,2.63-1.78,4,0s.28,3-1.16,4.05c-9.24,6.92-18.46,13.88-27.72,20.78A42,42,0,0,1,445.1,534.67Z" transform="translate(-314.91 -16.35)"/><path d="M922.94,241.78a8.54,8.54,0,0,1-1.4,1.54q-14.46,10.31-29,20.56a2.7,2.7,0,0,1-1.1.57c-1.48.19-3.76.95-4.32.29-1.59-1.86.08-3.48,1.62-4.59q14.94-10.72,30-21.31C920.53,237.58,922.94,239.14,922.94,241.78Z" transform="translate(-314.91 -16.35)"/><path d="M446.24,371v5.81l-42.06-1.19V371Z" transform="translate(-314.91 -16.35)"/><path d="M452,329.28c-9.86-2.06-18.82-3.91-27.77-5.81-3.15-.67-6.26-1.58-9.42-2.18-2-.38-2.63-1.42-2.15-3.28s1.49-2.61,3.44-2.2c6.92,1.47,13.86,2.82,20.78,4.3,5.08,1.09,10.13,2.34,15.2,3.49,1.55.35,3.05.89,2.26,2.81A12.21,12.21,0,0,1,452,329.28Z" transform="translate(-314.91 -16.35)"/><path d="M698.44,147.46h-5.29c-.07-.92-.19-1.82-.19-2.72,0-12,.09-23.94.19-35.9,0-4.71.23-4.82,5.29-4.42Z" transform="translate(-314.91 -16.35)"/><path d="M667.82,624.15h5.42c0,1,0,2,0,3q-.11,17.8-.23,35.6c0,4.67,0,4.67-5.18,4.52Z" transform="translate(-314.91 -16.35)"/><path d="M494.68,531.61a10,10,0,0,1-1.51,1.81c-9.9,7.06-19.78,14.14-29.77,21.07-1.35.94-3.34,2.8-4.88.63s.47-3.74,2-4.87q14.56-10.44,29.3-20.66a3.89,3.89,0,0,1,3.08-.12C493.65,529.72,494.06,530.8,494.68,531.61Z" transform="translate(-314.91 -16.35)"/><path d="M918.43,422.25c.41-4.41.65-4.89,4.72-4.27,9,1.37,18,3.07,27,4.67,3.36.6,6.7,1.28,10,1.91,1.07,4.61.28,5.61-3.93,4.85q-17.46-3.12-34.9-6.36C920.29,422.87,919.34,422.51,918.43,422.25Z" transform="translate(-314.91 -16.35)"/><path d="M541.76,578a52.12,52.12,0,0,1-2.38,5c-5.89,9.68-11.87,19.29-17.75,29-1.26,2.07-2.69,1.88-4.44.89-1.9-1.07-1.12-2.36-.32-3.64,6-9.82,12.07-19.66,18.16-29.44a14.23,14.23,0,0,1,3-3.52,3,3,0,0,1,2.57-.15C541.17,576.39,541.4,577.4,541.76,578Z" transform="translate(-314.91 -16.35)"/><path d="M626.69,153.11c-.56.63-1.25,2.08-2.33,2.5-2.07.8-2.72-1.06-3-2.59-2.49-12.2-5-24.42-7.22-36.67-.18-1,1.1-2.21,1.7-3.32,1.05.74,2.8,1.31,3,2.25,1.79,7.15,3.36,14.35,4.86,21.56C624.76,141.92,625.59,147.05,626.69,153.11Z" transform="translate(-314.91 -16.35)"/><path d="M648.64,150c-.25-.31-1.41-1.1-1.59-2.07q-3.49-18.37-6.67-36.82c-.17-1,.49-2.85,1.25-3.17,1.85-.79,3.16.36,3.58,2.31,1.59,7.41,3.22,14.82,4.73,22.25,1,4.79,1.64,9.64,2.68,14.41C653.24,149.74,652,150.28,648.64,150Z" transform="translate(-314.91 -16.35)"/><path d="M538.9,625.63a46.29,46.29,0,0,1,2.22-4.75q8.5-13.83,17.11-27.57c.39-.62.77-1.4,1.36-1.69a26.49,26.49,0,0,1,3.69-1.19c.12,1.2.74,2.64.28,3.56-1.94,3.9-4.07,7.73-6.36,11.44-4,6.47-8.09,12.85-12.21,19.24a9.48,9.48,0,0,1-2.48,2.75,3.07,3.07,0,0,1-2.54.16C539.43,627.35,539.24,626.3,538.9,625.63Z" transform="translate(-314.91 -16.35)"/><path d="M850.45,160.24c-.47,1-.72,1.68-1.1,2.29q-9.4,14.91-18.84,29.79c-.39.61-.77,1.4-1.35,1.68a34.22,34.22,0,0,1-4.1,1.42c0-1.3-.54-2.91,0-3.85q10-16.35,20.36-32.5a2.83,2.83,0,0,1,2.52-.83C848.92,158.53,849.64,159.54,850.45,160.24Z" transform="translate(-314.91 -16.35)"/><path d="M699.23,667.46l-5.11-.41V624.26h5.11Z" transform="translate(-314.91 -16.35)"/><path d="M622.09,615.92c4.31-.11,5.07.67,4.35,4.59-2.32,12.77-4.69,25.52-7,38.18-4.87,1.09-5.6.45-4.77-4q3.35-18.07,6.74-36.13C621.55,617.62,621.86,616.75,622.09,615.92Z" transform="translate(-314.91 -16.35)"/><path d="M953.88,320.4c-12.91,2.65-25.71,5.25-38.5,7.89-1.54.32-2.77.34-2.86-1.65-.06-1.58-.6-3.21,2-3.73,9.46-1.92,18.87-4.08,28.31-6.13,2-.45,4.06-.86,6.11-1.22C953.48,314.76,953.78,315,953.88,320.4Z" transform="translate(-314.91 -16.35)"/><path d="M448.61,421.51c-.95.73-1.81,1.92-2.85,2.12-11.93,2.29-23.88,4.43-35.82,6.61-1.57.28-3.11.7-3.46-1.7-.31-2.08.11-3.2,2.47-3.63,11.84-2.17,23.65-4.49,35.46-6.8C446.7,417.67,448.46,417.74,448.61,421.51Z" transform="translate(-314.91 -16.35)"/><path d="M872.73,244.56c-.53-1-1.42-1.95-1.5-3a3.62,3.62,0,0,1,1.23-2.76q13.1-9.56,26.35-18.88a29.86,29.86,0,0,1,5.16-2.86c.73-.33,2.28-.34,2.51,0a3.65,3.65,0,0,1,.18,2.88,6.52,6.52,0,0,1-2.24,2.52q-14.35,10.22-28.79,20.3a11.42,11.42,0,0,1-1.93.92Z" transform="translate(-314.91 -16.35)"/><path d="M496.54,597.16c-.59-1.65-1.45-2.83-1.16-3.53a15,15,0,0,1,2.89-4.4q11.34-12.27,22.82-24.41c1.15-1.23,2.39-2.5,4.2-.81s.83,2.94-.39,4.26c-7.78,8.4-15.54,16.82-23.39,25.15C500.35,594.66,498.77,595.51,496.54,597.16Z" transform="translate(-314.91 -16.35)"/><path d="M411.32,453.26c.35-.28,1.07-1.31,2-1.49,12.25-2.41,24.52-4.66,36.77-7.07,2.27-.45,3.07.66,3.54,2.44.53,2.05-.92,2.47-2.45,2.77-12.25,2.37-24.51,4.7-36.75,7.16C411.74,457.6,411.31,456.25,411.32,453.26Z" transform="translate(-314.91 -16.35)"/><path d="M419.6,485c-1.39-2.58-1.22-4.56,1.18-5.58q17.34-7.37,34.79-14.46c.63-.25,2.4.57,2.51,1.13.23,1.08.05,2.94-.66,3.4a45.64,45.64,0,0,1-7.52,3.7C441,476.83,432,480.37,423,483.92,422,484.33,420.85,484.61,419.6,485Z" transform="translate(-314.91 -16.35)"/><path d="M497.12,175.93a16,16,0,0,1,1.94,1.45q13,13.47,26,27c1.2,1.24,1.88,2.53.38,4-1.65,1.67-3,.77-4.24-.53-6.31-6.49-12.64-12.95-18.89-19.49-2.36-2.48-4.62-5.08-6.75-7.76a3.47,3.47,0,0,1-.34-2.78C495.42,177.08,496.41,176.58,497.12,175.93Z" transform="translate(-314.91 -16.35)"/><path d="M891.74,575.14a2.37,2.37,0,0,1-3.5,2,19,19,0,0,1-3.55-3Q873.32,561.92,862,549.65c-.21-.22-.4-.48-.61-.7-1.35-1.45-1.51-2.9,0-4.33s2.69-.21,3.66.82q10.49,11.1,20.88,22.28c1.7,1.83,3.21,3.82,4.77,5.77A12,12,0,0,1,891.74,575.14Z" transform="translate(-314.91 -16.35)"/><path d="M672.12,147.46h-5v-43.2l5,.44Z" transform="translate(-314.91 -16.35)"/><path d="M844.37,563.18a13,13,0,0,1,1.88,1.42q12.84,13.42,25.62,26.91c1,1.11,1.94,2.3.44,3.74s-2.78,1.19-4.07-.17q-12.32-13.07-24.6-26.14a10.55,10.55,0,0,1-1.71-2.6C841.09,564.57,842,563.19,844.37,563.18Z" transform="translate(-314.91 -16.35)"/><path d="M908.87,309.23c-2.11-3.33-1.42-5.28,1.12-6.39q16.69-7.27,33.48-14.31c.79-.33,2,.32,3,.52a28,28,0,0,1-.77,3.41c-.13.4-.75.71-1.22.91C932.65,298.66,920.82,303.92,908.87,309.23Z" transform="translate(-314.91 -16.35)"/><path d="M639.72,664.31c1-5.57,1.85-10.36,2.76-15.13,1.57-8.28,3.2-16.54,4.75-24.83.3-1.63.86-2.68,2.72-2.74s3.17.27,2.69,2.78c-2.42,12.67-4.62,25.38-7.12,38C644.8,666,642,663.29,639.72,664.31Z" transform="translate(-314.91 -16.35)"/><path d="M507,225.13c0,2.09-1.73,3-3.43,2a18.93,18.93,0,0,1-4.11-3.29c-7.39-7.88-14.7-15.82-22-23.76-.42-.45-1.09-1-1.07-1.47a5.59,5.59,0,0,1,.8-3.23c.37-.43,2.28-.31,2.8.23,8.68,9.08,17.26,18.26,25.82,27.45A9.39,9.39,0,0,1,507,225.13Z" transform="translate(-314.91 -16.35)"/><path d="M429.33,509.94c-1.2-2.44-1.23-4.53,1.35-5.62q17.24-7.26,34.58-14.26c.64-.26,2.37.44,2.43.85.18,1.28.2,2.93-.49,3.86s-2.31,1.29-3.57,1.79q-15.61,6.27-31.27,12.49C431.42,509.42,430.42,509.62,429.33,509.94Z" transform="translate(-314.91 -16.35)"/><path d="M890.54,197.19a15.64,15.64,0,0,1-1.43,2.24q-12.66,13.51-25.38,27c-1.22,1.3-2.53,1.75-4.05.42-1.72-1.51-.78-2.78.34-4q12.87-13.56,25.81-27a3.23,3.23,0,0,1,2.62-.88C889.26,195.22,889.8,196.36,890.54,197.19Z" transform="translate(-314.91 -16.35)"/><path d="M783.41,169.32c1.28-3.51,2.24-6.37,3.37-9.15q5.57-13.69,11.25-27.32c.56-1.33.89-3.26,3.19-2.38,2.15.83,1.95,2.37,1.28,4.09q-6.87,17.69-13.73,35.38c-.54,1.4-1.31,2.57-2.94,1.66A12,12,0,0,1,783.41,169.32Z" transform="translate(-314.91 -16.35)"/><path d="M507.07,547.66a11.22,11.22,0,0,1-1.29,2.06q-12,12.9-24,25.74c-.36.38-.74.86-1.2,1A35.57,35.57,0,0,1,477,577c0-1.28-.38-2.87.22-3.79a45.57,45.57,0,0,1,5.14-6.24q8.6-9.21,17.35-18.3a19.79,19.79,0,0,1,4.15-3.25C505.45,544.5,507.16,545.61,507.07,547.66Z" transform="translate(-314.91 -16.35)"/><path d="M919.6,355a12.54,12.54,0,0,1-2-2.73c-.67-1.59.45-2.13,1.87-2.43q18.15-3.87,36.27-7.82c1.89-.41,3.36.06,3.85,2.1.54,2.31-1.11,2.87-2.83,3.23q-17.53,3.74-35.09,7.42C921.27,354.82,920.85,354.84,919.6,355Z" transform="translate(-314.91 -16.35)"/><path d="M713.56,148.2c1.68-9.36,3.25-18.15,4.84-26.94.71-3.89,1.59-7.74,2.15-11.65.29-2.06,1.35-2.27,3-2.07s2.61.93,2.24,2.87c-2.4,12.55-4.69,25.12-7.23,37.64-.22,1.11-2,1.92-3,2.87Z" transform="translate(-314.91 -16.35)"/><path d="M582.54,601.65c-1.61,4.64-3.09,9.16-4.74,13.63-2.92,7.89-5.95,15.73-8.9,23.61-.72,2-1.86,3-4,2.22s-1.49-2.49-1-3.9C568,626.12,572.13,615,576.41,604,577.8,600.4,578.86,600.11,582.54,601.65Z" transform="translate(-314.91 -16.35)"/><path d="M871.83,178.18a16.48,16.48,0,0,1-1.46,2.31q-11.77,12.66-23.61,25.25a5.63,5.63,0,0,1-2.2,1.69,15.85,15.85,0,0,1-3.6.22c.12-1.11-.13-2.47.41-3.31a37.79,37.79,0,0,1,4.35-5.28q10.62-11.19,21.37-22.25c.62-.64,1.92-1.34,2.54-1.1C870.52,176.07,871.08,177.27,871.83,178.18Z" transform="translate(-314.91 -16.35)"/><path d="M934.87,263.29c.36.29,1.3.68,1.44,1.27a3.59,3.59,0,0,1-.33,2.76,8.32,8.32,0,0,1-3.1,2q-15.69,6.84-31.42,13.55c-1.28.55-2.93,1.74-4-.48-1-2,.16-3.22,1.81-3.94q16.95-7.45,33.93-14.8A12,12,0,0,1,934.87,263.29Z" transform="translate(-314.91 -16.35)"/><path d="M746.92,113.49c1.53,0,2.56,0,3.6,0a18.28,18.28,0,0,1,1.93.32c-.81,4.27-1.6,8.39-2.39,12.51q-2.49,13-5,26c-.12.61,0,1.48-.41,1.78a22.87,22.87,0,0,1-3.17,1.89c-.53-.95-1.63-2-1.52-2.84.71-5.55,1.58-11.09,2.57-16.6C743.91,128.9,745.43,121.29,746.92,113.49Z" transform="translate(-314.91 -16.35)"/><path d="M404.15,402.77v-4.93H446l.35,4.93Z" transform="translate(-314.91 -16.35)"/><path d="M606.4,612.29c-.57,1.88-.87,3.09-1.32,4.25q-6.21,16.31-12.48,32.59c-.48,1.25-.8,3-3,2.17s-2.1-2.25-1.45-4c4.4-11.78,8.75-23.58,13.24-35.32.34-.87,1.86-2,2.56-1.87C605,610.34,605.74,611.65,606.4,612.29Z" transform="translate(-314.91 -16.35)"/><path d="M778.49,122.6c-.38,1.32-.56,2.24-.9,3.11q-5.88,15.24-11.82,30.48a16.24,16.24,0,0,1-.8,1.69c-1,1.81-2.12,3.83-4.47,2.75s-.54-3.17,0-4.52c4-10.79,8.26-21.51,12.43-32.25a5.14,5.14,0,0,1,1.11-2.2,4.33,4.33,0,0,1,2.86-1C777.54,120.74,778,122,778.49,122.6Z" transform="translate(-314.91 -16.35)"/><path d="M920.72,402.18v-4.82h42.33c-.15,1.31-.34,2.92-.56,4.82Z" transform="translate(-314.91 -16.35)"/><path d="M962.89,370.1v5H921c-1-3.55-.34-4.56,3.78-4.63q17.46-.3,34.91-.52C960.68,370,961.7,370,962.89,370.1Z" transform="translate(-314.91 -16.35)"/><path d="M554.52,385.65c7.41,0,14.71-.51,21.9.16,6.05.56,9.58,5.3,11.53,10.66a35.67,35.67,0,0,1,2.38,11.84c0,10.8-.5,21.59-1,32.38a17.74,17.74,0,0,1-1.55,5.68c-2.54,6.29-6.61,10.35-14.07,10-6.3-.29-12.62-.06-19.21-.06Z" transform="translate(-314.91 -16.35)"/><path d="M554.33,379.68V314c1.84,0,3.56,0,5.28,0,5.51.1,11,.09,16.53.4a7.57,7.57,0,0,1,4.24,1.87,21.5,21.5,0,0,1,7.36,16.2c.35,10.6,1.16,21.19-.89,31.7-1.15,5.89-3.43,11.17-9.27,14a11.5,11.5,0,0,1-4.38,1.48C567,379.77,560.78,379.68,554.33,379.68Z" transform="translate(-314.91 -16.35)"/></svg>