<svg id="Capa_1" data-name="Capa 1" xmlns="http://www.w3.org/2000/svg" viewBox="0 0 750 757.29"><defs><style>.cls-1{fill:#fff;}.cls-2{fill:#353535;}.cls-3{fill:#108e34;}.cls-4{fill:#484848;}.cls-5{fill:#797979;}.cls-6{fill:#656565;}.cls-7{fill:#98cea7;}.cls-8{fill:#aed8ba;}.cls-9{fill:#575757;}.cls-10{fill:#68b87f;}.cls-11{fill:#54ae6e;}.cls-12{fill:#128f36;}.cls-13{fill:#5c5c5c;}.cls-14{fill:#75bd89;}.cls-15{fill:#82c495;}.cls-16{fill:#363636;}.cls-17{fill:#80c293;}.cls-18{fill:#49a964;}.cls-19{fill:#6db982;}.cls-20{fill:#269947;}.cls-21{fill:#349f52;}.cls-22{fill:#3ca359;}.cls-23{fill:#5cb274;}</style></defs><title>DolarToday</title><rect class="cls-1" x="465.96" y="70.16" width="417.55" height="612.79" transform="translate(-71.87 -266.15) rotate(26.37)"/><path class="cls-2" d="M749.32,756.92c-33.62-11.88-63.7-31.06-95.65-46.36-23.77-11.38-47-23.79-70.8-35.17-8.22-3.94-7.52-8.37-4-15.13,9.42-18.1,18.76-36.28,27.29-54.81,3.86-8.36,8.08-8.52,16-5.59,50.35,18.78,100,19.31,147.4-9,39.07-23.31,60-59.38,66.39-103.41,5.35-36.93-14.36-65.29-36.73-91.85-16-19-35.48-34.24-54.25-50.22-5.65-4.8-6.28-8.7-2.95-15.1,10.79-20.75,21.18-41.71,31.39-62.75,3.08-6.35,5.78-7.8,12.46-3.7,31,19,57.27,42.6,76.66,73.51,2.78,4.43,5.55,9.73,10.93,9.67s6-6.46,8.06-10.45c11.18-22,21.92-44.21,33.39-66,4-7.64,3.2-12.66-3-18.94-25.22-25.67-53.87-46.93-84-66.26-7.24-4.65-7.75-8.18-3.92-15.18,7.56-13.78,14.26-28,21.33-42.08,2.23-4.42,4.49-8.19,10.64-5,51.26,26.62,103.95,50.44,154.51,78.44,5,5.22,11.73,8.26,17,13.34s5.16,9.45,1.84,15.66c-21.44,40.07-41.08,81.06-61.68,121.55-18.48,36.33-36.24,73-55,109.26-31.6,61.14-61.54,123.13-91.74,185-15.84,32.44-33.55,64-48.59,96.8C767.58,753.48,760.53,758.23,749.32,756.92Z" transform="translate(-309.35 -5.63)"/><path class="cls-3" d="M601.69,7.31c15.89-1.12,30.25,4.24,44,11.08,48.81,24.18,97.4,48.77,146.3,72.75,7.65,3.76,9,7.22,5.08,14.62-7.35,13.91-14.19,28.1-20.7,42.42-3.25,7.17-6.64,8.86-14.67,6.1-35.07-12-70.56-16.8-107.94-9.94C570,159.72,523.26,272.41,584.71,345.22c16.82,19.94,35.8,37.61,55.85,54.15,6,4.91,7.19,9.32,3.6,16.31q-17.77,34.65-34.64,69.77c-3.72,7.81-7.32,7-13.68,3.06-36.43-22.41-66.32-51.73-92.17-85.48-1.81-2.36-3.19-5.13-5.31-7.15-4.23-4.05-7.85-5.86-11.43,1.58q-18.3,37.95-37.7,75.37c-2.66,5.12-1.75,8.38,1.33,12.58,12.5,17,28.46,30.43,44.71,43.51,18.25,14.7,37.35,28.25,58.1,39.24,6.78,3.59,9.35,6.78,5,14.68-10.53,18.95-20,38.49-29.91,57.77-1.86,3.61-3.7,6.36-8.79,3.73-55.51-28.8-112.71-54.29-167.1-85.28a9.48,9.48,0,0,1-1.79-1.79c-6.9-6.69-16-11.49-18.89-21.66a6.69,6.69,0,0,1,4.17-3.75c3.8-1.17,7.72-1,11.6-1.07,12,.59,18.63-7.18,24.06-16.12,8.84-14.56,15.66-30.2,23.21-45.43,28.9-58.3,58.67-116.17,87.42-174.54C518.6,221.05,556.07,148,592.45,74.4c6.34-12.81,11.64-25.7,5.62-40.19a40.12,40.12,0,0,0-2.82-4.29Q593.59,28,592,26.11c-1.78-2.18-3.32-4.55-5.09-6.77a26.83,26.83,0,0,1-2.14-2.85c-1.1-2.49-3.69-6.37.4-7C590.62,8.74,595.72,4.06,601.69,7.31Z" transform="translate(-309.35 -5.63)"/><path class="cls-4" d="M749.32,756.92c15.65-2.46,19.77-15.08,25.61-27.26,13-27.09,28.34-53.08,40.72-80.42,10.68-23.59,23-46.32,34.4-69.49,23.77-48.31,47.16-96.84,72.62-144.35,19.4-36.19,35.71-74,54.55-110.52,16.87-32.69,31.38-66.62,50.7-98,3.18-5.18.86-7.3-1.87-10.81-4.46-5.71-12.9-7-15.58-14.54,14.39,7,25.9,16.82,31.09,32.62,1.6,4.23-1.15,7.31-2.84,10.67C954.6,412.61,870.23,580.28,787.23,748.63c-7,14.1-18,9.49-28.38,10.37-3.28-.4-6.46-1.31-9.73-1.78Z" transform="translate(-309.35 -5.63)"/><path class="cls-5" d="M1056.45,265.6c6.06,17.72,1.93,34.28-6.09,50.23Q981.2,453.61,911.91,591.32c-22.43,44.65-44.61,89.42-67.18,134-6.55,12.94-16.86,22-31.19,25.81-1.85-5.6,1.6-9.89,3.81-14.32Q930.63,510,1044.11,283.23C1047.34,276.77,1050.75,270.36,1056.45,265.6Z" transform="translate(-309.35 -5.63)"/><path class="cls-6" d="M1056.45,265.6c-.55,8.56-7.24,14-10.77,21.13Q929.9,519.07,813.54,751.13c-20.31,14.32-41.94,14.64-64.42,6.09l10.7-.56c9.09,1.88,18.1,2.94,26.34-2.89,7.7-1.1,10.87-6.54,14.11-13,53-105.85,105.34-212,158.78-317.58,12.67-25,26-49.73,37.55-75.36,12.58-27.93,28-54.46,41.07-82.2,3-6.44,5.85-13.46,13.86-15.68C1055.76,254.35,1054.76,260.4,1056.45,265.6Z" transform="translate(-309.35 -5.63)"/><path class="cls-7" d="M532.4,28.18c7.34-4.81,13.61-11.54,22.94-12.76,1.21,5.85-1.59,10.92-3.94,15.71Q496.8,142.79,440.59,253.67c-20.49,40.57-40.14,81.59-60.87,122-19.36,37.77-36.8,76.52-58,113.31A15.63,15.63,0,0,0,320,502.36c.38,3.47.42,6.83-2.71,9.26a29.44,29.44,0,0,1-4.9-15.69c-2.54-14.95-1.43-28.88,6-42.92,40.15-75.45,76.53-152.79,115.1-229,30.91-61.09,61.64-122.26,91.49-183.87A69.55,69.55,0,0,1,532.4,28.18Z" transform="translate(-309.35 -5.63)"/><path class="cls-8" d="M532.4,28.18C525.45,51.46,513.06,72.33,502.63,94c-14.48,30.07-30.23,59.53-44.55,89.71-12.33,26-26.55,51.1-39.38,76.87-20.54,41.28-40.45,82.87-61,124.16-10.94,22-22.1,44-34.13,65.39-8.12,14.45-13.47,29.06-11.18,45.8-7.13-27.3-1.17-52.93,10.95-77.33Q372.77,319.14,422.89,220q40-79.5,80.28-158.87C510,47.68,520.13,36.93,532.4,28.18Z" transform="translate(-309.35 -5.63)"/><path class="cls-9" d="M788,756.55c-9.38,2.14-18.75,5.11-28.15.1,14.59,2.57,21.6-3.5,28.41-17.28Q909.54,494,1032.62,249.54c2.64-5.3,5.94-10.27,8.94-15.39l4.59,3.8c2.4,5,1.61,9.65-.89,14.49-56.17,108.93-110,219-165.08,328.5q-41,81.54-81.54,163.35A30.16,30.16,0,0,1,788,756.55Z" transform="translate(-309.35 -5.63)"/><path class="cls-10" d="M327.52,527c-3.12-1.69-5.23-4-4.93-7.86-3.31-5.42.14-9.87,2.35-14.27Q417.09,320.6,509.16,136.32C528.75,97.24,549.09,58.53,567.83,19a22,22,0,0,1,4.14-6.4,6.32,6.32,0,0,1,3.63-1.45,6.91,6.91,0,0,1,6.2,4.26c.65,6.39-3.15,11.31-5.75,16.54-28.13,56.58-56.83,112.88-84.75,169.56-2.62,5.31-5.7,10.45-6.87,16.37-9.05,21.4-18.82,42.44-31.3,62.12-6.18,5.26-9.17,12.13-10,20.07-12.88,30-27.09,59.39-43.81,87.5a77.32,77.32,0,0,0-17.46,35.07c-14.17,34.18-32.25,66.45-48.65,99.55A8.32,8.32,0,0,1,327.52,527Z" transform="translate(-309.35 -5.63)"/><path class="cls-11" d="M327.52,527c17-35.18,36.2-69.26,51.45-105.29a336.29,336.29,0,0,1,17.89-35.78A849.72,849.72,0,0,0,440.31,299c3.08-7,5.89-14.1,10.23-20.45a423.73,423.73,0,0,0,30.68-61.35c19.56-35.81,36.58-72.9,55.2-109.17,15.13-29.48,29.21-59.5,45-88.66,2.1-1.73,4.37-2.61,7-1.44l.05,0c3.48,7-1.33,12.21-4,17.63Q463.75,276.88,343.19,518.27c-2.09,4.18-4.53,8.2-5.81,12.74a10.18,10.18,0,0,1-1.88,3.15l-2.73,2.63q-1.32,2.13-2.95.24C326,534.37,327.66,530.46,327.52,527Z" transform="translate(-309.35 -5.63)"/><path class="cls-12" d="M674,519.53c-2.12-.1-4.24-.13-6.35-.33-18.54-1.82-20.1-4.72-11.75-21.33,9.31-18.55,18.7-37.08,27.72-55.77,3.16-6.55,5.7-8.19,11.89-2.57,20.38,18.53,26.23,38.13,16.32,57.37C703.9,512.29,691.84,520.72,674,519.53Z" transform="translate(-309.35 -5.63)"/><path class="cls-13" d="M788,756.55c3.37-5.87,7-11.6,10.07-17.65Q917.58,500,1036.84,261c3.66-7.36,10.83-13.54,9.31-23.06,3.55,3.21,4.77,7.46,5.38,12-12.58,13.81-18,31.69-26.1,47.85Q914.79,517.19,805.29,737.16C801.34,745.06,800.43,756.09,788,756.55Z" transform="translate(-309.35 -5.63)"/><path class="cls-14" d="M573.29,12.73c-5.79,21.48-18.25,39.88-28,59.47q-110.32,221.19-221.41,442a23.82,23.82,0,0,0-1.27,4.9c-2.47-1.05-4.56-2.42-4.71-5.46a94.87,94.87,0,0,1,9.18-26.23q85.28-170.09,170.32-340.28c21.18-42.2,42-84.56,63.18-126.78C563.15,15.17,565,8.53,573.29,12.73Z" transform="translate(-309.35 -5.63)"/><path class="cls-15" d="M317.59,500.93c-3.58-3.17-3.14-6.87-.81-10.3,12.93-19.05,21.47-40.33,31.51-60.88,11.92-24.4,25-48.2,37.25-72.46q38.38-76.23,76.35-152.65,43.5-87.15,86.81-174.41c2.39-4.82,2.69-10.64,6.64-14.82l5.12-2.62c5.14,6.35-.17,11.31-2.62,16.23Q473.81,198,389.16,366.55c-20.69,41.46-41.26,83-62.34,124.25C324.78,494.79,324.81,501.38,317.59,500.93Z" transform="translate(-309.35 -5.63)"/><path class="cls-16" d="M710.78,233.5c23,.11,25.08,3.16,15.26,23.52-7.73,16-15.89,31.84-23.72,47.82-2.85,5.82-5.66,7.86-11.08,2.22-9.91-10.32-20.76-19.64-20-36.15C672.4,248.27,687.66,233.39,710.78,233.5Z" transform="translate(-309.35 -5.63)"/><path class="cls-17" d="M317.59,500.93c4.89-2.08,6-7,8-11.07Q440.73,259.79,555.79,29.69c2.69-5.38,5.47-10.62,4.67-16.91,5.86-2.13,11.35-5.52,17.93-5.09,1.28,2.71-.62,3.84-2.49,5l-2.61.06c-4.34-.4-6.3,1.43-8.4,5.64q-120.27,241.52-241,482.79c-2.06,4.13-4,8.33-6,12.49a3.28,3.28,0,0,1-.56-2Z" transform="translate(-309.35 -5.63)"/><path class="cls-18" d="M575.9,12.67l2.49-5c7.77-.17,15.47-4.29,23.3-.38-3.62.8-7.21,2.16-10.85,2.29-9.9.37-3.61,5-2.41,8.31l-4.93,2.41c-2.07-1.05-1.17-3.67-2.66-5Z" transform="translate(-309.35 -5.63)"/><path class="cls-19" d="M329.82,537l2.95-.24,18,20.48C341.39,553,335.1,545.53,329.82,537Z" transform="translate(-309.35 -5.63)"/><path class="cls-20" d="M598.86,30.48c9.18,11.79,6.43,24.54.82,36-27.28,55.72-55.26,111.1-83,166.59Q487.73,291,458.74,349q-40,80.12-80.13,160.2c-6.34,12.59-13.29,25.08-30.33,25C350.56,526,356,519.44,359.75,512Q473.83,283.32,588.36,54.86C592.36,46.88,594,38,598.86,30.48Z" transform="translate(-309.35 -5.63)"/><path class="cls-21" d="M598.86,30.48c.6,7-1.43,13.21-4.59,19.51Q476.49,285.12,359.05,520.4c-2.71,5.43-5.87,10.2-10.77,13.76H335.5c0-.85,0-1.7,0-2.55a12.12,12.12,0,0,1,4.57-3.28c7.63-3.2,9.06-11,12.2-17.23Q469.56,276.89,586.78,42.65c2.62-5.23,4.13-11.31,9.54-14.79Z" transform="translate(-309.35 -5.63)"/><path class="cls-22" d="M596.32,27.86c-1.73,4.31-3.17,8.77-5.23,12.91Q471.54,280,351.81,519.22c-2.51,5-3.34,12-11.21,12.37-3.82-5.58.65-9.76,2.75-14,36.21-73.05,73-145.81,109.26-218.82,41-82.52,83-164.53,123.38-247.36,3.35-6.88,7.16-13.52,10.63-20.34,1.4-2.76,2.41-6.78,7.15-5.66Z" transform="translate(-309.35 -5.63)"/><path class="cls-18" d="M593.77,25.41c-10,14.7-17,31-24.89,46.85C537,135.91,504.69,199.34,472.81,263c-19.88,39.69-39.15,79.67-58.9,119.42-23.36,47-47,93.88-70.38,140.84a69.14,69.14,0,0,0-2.93,8.34l-5.08,0c-2.76-5.33,1.92-8.69,3.79-12.44Q460.59,276.07,582.14,33.09c2.44-4.89,5.89-9.42,6.34-15.16Q591.12,21.67,593.77,25.41Z" transform="translate(-309.35 -5.63)"/><path class="cls-23" d="M580.84,15.28c2.17,1,2.57,2.94,2.66,5-4,3-5.12,7.71-7.17,11.81Q533,118.53,489.77,205c-2.22,4.43-3.29,9.82-8.55,12.18,8.27-23.72,21.32-45.24,32-67.81C534.68,104.16,558.18,59.92,580.84,15.28Z" transform="translate(-309.35 -5.63)"/><path class="cls-23" d="M396.86,385.9A145.1,145.1,0,0,1,379,421.68,73.59,73.59,0,0,1,396.86,385.9Z" transform="translate(-309.35 -5.63)"/><path class="cls-23" d="M450.54,278.53A49.57,49.57,0,0,1,440.31,299C440.81,290.71,443.78,283.67,450.54,278.53Z" transform="translate(-309.35 -5.63)"/></svg>