<svg id="Capa_1" data-name="Capa 1" xmlns="http://www.w3.org/2000/svg" viewBox="0 0 331.24 431.64"><defs><style>.cls-1{fill:#d1bd5d;}.cls-2{fill:#333133;}.cls-3{fill:#fefefe;}</style></defs><path class="cls-1" d="M463.46,355.91V380.4c-.39,4-.43,8.1-.86,12.13a124.59,124.59,0,0,1-5,22.65,166.26,166.26,0,0,1-82,100.06,167.55,167.55,0,0,1-49.15,16.91A166.86,166.86,0,0,1,208.7,508.53a156.84,156.84,0,0,1-23.29-18,166.76,166.76,0,0,1-51.83-96.26,92.66,92.66,0,0,1-1-13.92c-.08-5-.16-10-.29-15-.71-25.84,5.86-49.95,17.39-72.82a164,164,0,0,1,24.28-35.31c22.91-25.72,51.27-42.36,84.49-50.93a122.29,122.29,0,0,1,33.11-3.9c8.73.16,17.49-.27,26.2.41a133.26,133.26,0,0,1,26.89,5.4A166.52,166.52,0,0,1,389,228.6a161.89,161.89,0,0,1,30.68,25.87c17.06,18.52,29.72,39.63,37.13,63.8A153.74,153.74,0,0,1,462.54,343C463.11,347.3,463,351.63,463.46,355.91Z" transform="translate(-132.22 -202.39)"/><path class="cls-2" d="M463.46,592.85c-.93,3.57-.69,7.24-.95,10.87a43.16,43.16,0,0,1-4.25,16.8c-3.36,6.55-9,10-16,11.63-7.24,1.67-14.6,1.3-21.8.62-10.69-1-18.52-6.43-21.6-18.81A80.36,80.36,0,0,1,397,587.14c.5-5.59,1.09-11.14,3.06-16.37,2.31-6.09,6.27-10.73,12.74-13,4.31-1.53,8.7-1.78,13.16-1.81,5.8,0,11.62-.38,17.36.92A21.35,21.35,0,0,1,459,570a44.42,44.42,0,0,1,3.61,16.76,12.25,12.25,0,0,0,.84,4.63Z" transform="translate(-132.22 -202.39)"/><path class="cls-3" d="M300.61,429.89c-8.66,0-17.32.09-26-.06-2.28,0-2.74.69-2.73,2.82.09,13.49.05,27,.05,40.48,0,3.19-.07,3.26-3.2,3.27-4.5,0-9,0-13.49,0-3.31,0-4-.73-4.2-4.11-.8-13.38-1.66-26.75-2.38-40.13-.1-1.9-.73-2.33-2.52-2.31-8.32.09-16.65,0-25,0-3.11,0-3.29-.19-3.31-3.22,0-1.83,0-3.67,0-5.5,0-3,.74-3.87,3.75-4.13,5.05-.43,10.12-.77,15.18-1.14,2.91-.21,5.81-.46,8.72-.55,1.61-.05,2.17-.63,2.06-2.27-.38-5.73-.71-11.46-.91-17.2-.06-1.84-.82-2.17-2.44-2.15-7.58.08-15.16.07-22.74.09-3.64,0-3.87-.23-3.9-3.75,0-3.34,0-6.67-.07-10,0-2.33,1.07-3.48,3.41-3.71,7.62-.73,15.23-1.59,22.85-2.3,1.56-.15,2.13-.63,2.12-2.25a321.47,321.47,0,0,1,1.62-35.91c1.5-14.19,3.9-28.19,9.57-41.41,6.51-15.18,17-26.28,33.3-30.68,15.26-4.12,30.71-4.82,46.09-.44,18.85,5.38,31.76,17.59,39.72,35.24a70.36,70.36,0,0,1-13.81,77.57c-9.39,9.53-21,14.73-34.13,16.71a102.75,102.75,0,0,1-15.68.93c-12.75,0-25.49,0-38.23-.1-1.81,0-2.5.44-2.45,2.36.12,5.17.14,10.34,0,15.5-.06,2.07.73,2.46,2.6,2.46,17.24-.06,34.48,0,51.72,0,3.87,0,3.91.05,3.91,3.89,0,3.08-.08,6.17,0,9.25.07,2.08-.8,2.78-2.81,2.76C318.44,429.86,309.53,429.89,300.61,429.89Z" transform="translate(-132.22 -202.39)"/><path class="cls-2" d="M174.58,594.51c-3.76,0-6.76,0-9.76,0-1.5,0-2.17.39-2.18,2.13,0,6.7-.12,6.66,6.47,6.85s13.14.51,19.72.67c1.49,0,1.73.6,1.75,1.93.08,5.25.12,5.22-5.15,5.32-6.82.13-13.65.38-20.48.41-1.95,0-2.33.72-2.31,2.5.08,5.82-.06,11.66,0,17.48,0,1.53-.28,2.29-2,2.18-1.9-.11-3.83.06-5.74.06s-2.76-.94-2.84-2.89c-.23-5.57-.63-11.13-.87-16.7-.08-2-.79-2.69-2.85-2.65-3.24.07-6.49-.36-9.73-.36-1.76,0-2.4-.61-2.26-2.29s-.44-3.92,2.25-4.19c3.23-.31,6.47-.55,9.71-.64,1.52,0,2.19-.31,2.21-2,.1-7.75.16-7.75-7.52-7.74-1.66,0-3.33.06-5,0s-2.4-1-2.09-2.65c.15-.82.33-1.64.4-2.46.34-3.7.94-4.32,4.72-4.44a45,45,0,0,0,6.94-.64c1.29-.24,1.68-.71,1.58-1.93-.51-5.93.57-11.79,1.09-17.64.74-8.22,2.32-16.36,7-23.46,3.81-5.73,9.09-9,15.83-10.6a43.83,43.83,0,0,1,15.78-.62,28.31,28.31,0,0,1,22.29,15.43,33.5,33.5,0,0,1,4.13,19.78c-1.29,11.34-6.66,20.3-16.91,25.8a24.06,24.06,0,0,1-10.27,2.81C183.62,594.12,178.74,594.73,174.58,594.51Z" transform="translate(-132.22 -202.39)"/><path class="cls-2" d="M264.2,622.36c4.83,0,9.65,0,14.48,0,1.43,0,1.93.51,1.83,1.9-.09,1.16,0,2.33,0,3.5,0,3.79-.26,3.89-4.18,4.36-8,1-16.11.88-24.18.86-4.79,0-9.55.14-14.24-1.5-6.45-2.27-11-6.44-13.29-12.77-3.27-9.08-3.76-18.59-3.06-28.13.35-4.7.49-9.42,1.13-14.13,1.15-8.59,7.49-16.91,15.74-19.33,4.83-1.41,9.88-1.38,14.83-1.27,4.7.11,9.42,0,14.13,1,6.17,1.33,12.12,7.09,13.86,13.28.73,2.58.8,5.17,1.27,7.73a21.6,21.6,0,0,1-2.23,13.66,14.54,14.54,0,0,1-9.68,7.39c-5.74,1.46-11.63,1.42-17.47,1.7-5.32.26-10.66.14-16,0-1.79,0-2.32.51-2.15,2.24.41,4.11.62,8.36,2.59,12,2.63,4.85,7.4,6.54,12.64,6.74,4.66.17,9.33,0,14,0Z" transform="translate(-132.22 -202.39)"/><path class="cls-2" d="M300.42,594.06c0-9.14,0-16.31,0-23.47,0-1.65-.29-2.33-2.15-2.34-2.65,0-5.3-.48-7.95-.66-1.08-.08-1.41-.52-1.38-1.55.06-1.83.11-3.67,0-5.5a2.21,2.21,0,0,1,2.3-2.57c2.46,0,4.64-1.25,7.08-1.13,1.58.08,2.43-.83,2.64-2.4.33-2.55.84-5.08,1-7.64.15-2,.83-3.1,3-3s4.5.11,6.74.09c1.27,0,1.79.5,1.78,1.78,0,2.75.18,5.5.07,8.24-.07,1.75.52,2.29,2.24,2.33,5.49.13,11,.49,16.47.58,1.78,0,2.32.61,2.21,2.33a56.21,56.21,0,0,0,0,6.49c.09,1.58-.55,1.94-2,2-5.58.18-11.15.53-16.72.71-1.51.05-2.2.33-2.19,2.09.08,12.74,0,25.49.1,38.23a25.22,25.22,0,0,0,1.08,6.35c.82,3.1,4.33,5.55,8,5.86,2.82.25,5.63.52,8.45.78a2.32,2.32,0,0,1,2.42,2.49c.51,8.1.54,8.17-7.41,8.06-4.3-.06-8.58.25-12.88-.76-5.51-1.29-11.21-7.34-12.15-12.9C299.67,609.69,300.92,600.87,300.42,594.06Z" transform="translate(-132.22 -202.39)"/><path class="cls-2" d="M360.52,605.94c0,8,0,16,0,24,0,1.71-.57,2.28-2.18,2.51-3.27.45-6.48-.23-9.72-.21-1,0-1.3-.55-1.25-1.45,0-.41,0-.83,0-1.24.13-23.15-.61-46.29-.77-69.43,0-3.72.44-4.12,4.23-3.76,1.24.12,2.48.29,3.73.38,3.4.25,3.77.58,4.26,3.94.22,1.47.45,3,.68,4.42.07.47-.11,1.17.45,1.31s1.17-.42,1.66-.86a42.72,42.72,0,0,1,10-7,31,31,0,0,1,19.2-2.44c1.51.26,1.62,1.59,1.62,2.43,0,3.57-.25,7.14-.49,10.7-.09,1.32-1.23.86-2,.86-3.57,0-7.12-.41-10.72-.16-7.11.49-12.35,4.55-17.57,8.7a4,4,0,0,0-1.21,3.33c.08,8,0,16,0,24Z" transform="translate(-132.22 -202.39)"/><path class="cls-3" d="M410.3,594.39c-.48-6.29.79-12.37,2.19-18.4,1-4.42,6.44-8.34,11.85-8.5,4.63-.14,9.24-.43,13.88.71a11,11,0,0,1,8.6,8.25,70.68,70.68,0,0,1,.07,35.73c-1.16,4.67-5.61,8.19-10.39,8.78a57.63,57.63,0,0,1-13.45,0,12.08,12.08,0,0,1-10.94-9.64C410.83,605.78,409.84,600.14,410.3,594.39Z" transform="translate(-132.22 -202.39)"/><path class="cls-1" d="M294.18,373c-7.56,0-13.64,0-19.72,0-1.65,0-2.38-.36-2.35-2.19.27-16.23.22-32.48,2.94-48.55a74.94,74.94,0,0,1,3.71-14c6.14-16.31,17.13-24,34.54-24.36a41.84,41.84,0,0,1,42.75,38.21c1.44,14.48-2.31,27.25-13.1,37.43a45.71,45.71,0,0,1-27.56,12.25C307.86,372.56,300.27,372.66,294.18,373Z" transform="translate(-132.22 -202.39)"/><path class="cls-3" d="M202.61,561.87c.19,9.72-5.19,16.87-14.22,20.2a19.6,19.6,0,0,1-6.28,1.25c-5.41.07-10.84-.14-16.22.55-2.4.31-3.18-.75-3-3,.75-8.26,0-16.63,2.18-24.77,1.66-6.28,4.59-11.64,11.09-13.62,9.13-2.8,19.44.08,24,9.79C201.66,555.46,202.82,558.55,202.61,561.87Z" transform="translate(-132.22 -202.39)"/><path class="cls-3" d="M248.63,590.27h-12c-.82,0-1.72.16-1.71-1.16,0-5.88.29-11.69,3.39-17a9.54,9.54,0,0,1,6.25-4.49,34.3,34.3,0,0,1,19.61.76,6.6,6.6,0,0,1,3.87,3.64c1.91,4.34,2.71,8.72,1.18,13.38-1.43,4.32-5.19,4.46-8.63,4.73-4,.32-8,.07-12,.07Z" transform="translate(-132.22 -202.39)"/></svg>